<?xml version="1.0" standalone="no"?>
<!DOCTYPE svg PUBLIC "-//W3C//DTD SVG 1.1//EN" "http://www.w3.org/Graphics/SVG/1.1/DTD/svg11.dtd" >
<svg xmlns="http://www.w3.org/2000/svg" xmlns:xlink="http://www.w3.org/1999/xlink" version="1.1">
<metadata>
Created by FontForge 20170924 at Sun Feb  2 11:48:07 2014
 By www-data
(c) 2014 Klim Type Foundry. All Rights Reserved. Cyrillic characters designed by Aleksey Chekulaev.
</metadata>
<defs>
<font id="ElleManBlack" horiz-adv-x="500" >
  <font-face 
    font-family="Elle Man Black"
    font-weight="900"
    font-stretch="normal"
    units-per-em="1000"
    panose-1="2 10 10 3 8 5 5 6 2 3"
    ascent="780"
    descent="-220"
    x-height="500"
    cap-height="700"
    bbox="-173 -286 1350 1027"
    underline-thickness="35"
    underline-position="-92"
    stemh="27"
    stemv="228"
    unicode-range="U+0020-FB04"
  />
<missing-glyph 
 />
    <glyph glyph-name="ff" unicode="ff" horiz-adv-x="700" 
d="M284 500h104v24c0 11 1 22 2 32c-27 1 -51 9 -63 22c30 7 47 34 47 82c0 37 -7 74 -44 74c-30 0 -46 -27 -46 -66v-168zM325 2v-2h-310v2c41 32 41 41 41 107v366h-51v14l51 22v5c0 156 113 234 274 234c59 0 109 -17 136 -49c48 39 116 58 196 58
c100 0 179 -32 179 -114c0 -59 -50 -94 -103 -94c-34 0 -64 10 -79 25c34 8 53 39 53 93c0 42 -13 74 -50 74c-30 0 -46 -27 -46 -66v-177h118l-5 -25h-113v-366c0 -66 0 -75 41 -107v-2h-310v2c41 32 41 41 41 107v366h-104v-366c0 -66 0 -75 41 -107z" />
    <glyph glyph-name="fi" unicode="fi" horiz-adv-x="668" 
d="M284 657v-157h332v-391c0 -66 0 -75 41 -107v-2h-310v2c41 32 41 41 41 107v332c0 23 -9 34 -36 34h-68v-366c0 -66 0 -75 41 -107v-2h-310v2c41 32 41 41 41 107v366h-51v14l51 22v9c0 156 132 239 299 239c123 0 215 -42 215 -123c0 -58 -51 -97 -116 -97
c-42 0 -73 14 -91 31c36 8 60 40 60 92c0 50 -23 81 -68 81c-39 0 -71 -26 -71 -86z" />
    <glyph glyph-name="fl" unicode="fl" horiz-adv-x="667" 
d="M616 759v-650c0 -66 0 -75 41 -107v-2h-310v2c41 32 41 41 41 107v551c0 45 -22 83 -67 83c-25 0 -37 -24 -37 -53v-190h79l-5 -25h-74v-366c0 -66 0 -75 41 -107v-2h-310v2c41 32 41 41 41 107v366h-51v14l51 22v13c0 156 94 235 256 235c66 0 129 -38 156 -65
c51 15 97 33 146 65h2z" />
    <glyph glyph-name="ffi" unicode="ffi" horiz-adv-x="1000" 
d="M284 500h104v20c0 13 1 25 3 36c-28 1 -52 9 -64 22c30 7 47 34 47 82c0 37 -7 74 -44 74c-30 0 -46 -27 -46 -66v-168zM325 2v-2h-310v2c41 32 41 41 41 107v366h-51v14l51 22v5c0 156 113 234 274 234c62 0 115 -19 141 -55c54 42 130 64 216 64
c123 0 215 -42 215 -123c0 -58 -51 -97 -116 -97c-42 0 -73 14 -91 31c36 8 60 40 60 92c0 50 -23 81 -68 81c-39 0 -71 -26 -71 -86v-157h332v-391c0 -66 0 -75 41 -107v-2h-310v2c41 32 41 41 41 107v332c0 23 -9 34 -36 34h-68v-366c0 -66 0 -75 41 -107v-2h-310v2
c41 32 41 41 41 107v366h-104v-366c0 -66 0 -75 41 -107z" />
    <glyph glyph-name="ffl" unicode="ffl" horiz-adv-x="999" 
d="M284 500h104v24c0 11 0 22 1 32c-26 1 -50 9 -62 22c30 7 47 34 47 82c0 37 -7 74 -44 74c-30 0 -46 -27 -46 -66v-168zM325 2v-2h-310v2c41 32 41 41 41 107v366h-51v14l51 22v5c0 156 113 234 274 234c56 0 104 -15 132 -44c43 35 105 53 182 53c66 0 129 -38 156 -65
c51 15 97 32 146 64h2v-649c0 -66 0 -75 41 -107v-2h-310v2c41 32 41 41 41 107v551c0 45 -22 83 -67 83c-25 0 -37 -24 -37 -53v-190h79l-5 -25h-74v-366c0 -66 0 -75 41 -107v-2h-310v2c41 32 41 41 41 107v366h-104v-366c0 -66 0 -75 41 -107z" />
    <glyph glyph-name="f_b" unicode="fb" horiz-adv-x="993" 
d="M616 759v-377c21 74 75 128 160 128c113 0 205 -101 205 -253c0 -170 -118 -267 -263 -267c-84 0 -141 26 -175 84c-42 -55 -91 -76 -162 -81c7 62 7 131 7 219v448c0 45 -22 83 -67 83c-25 0 -37 -24 -37 -53v-190h79l-5 -25h-74v-366c0 -66 0 -75 41 -107v-2h-310v2
c41 32 41 41 41 107v366h-51v14l51 22v13c0 156 94 235 256 235c66 0 129 -38 156 -65c51 15 97 33 146 65h2zM678 424c-39 0 -62 -53 -62 -122v-188c0 -55 19 -102 57 -102c55 0 69 71 69 229c0 120 -19 183 -64 183z" />
    <glyph glyph-name="f_f_b" unicode="ffb" horiz-adv-x="1325" 
d="M1050 -10c-84 0 -141 26 -175 84c-42 -55 -91 -76 -162 -81c7 62 7 131 7 219v448c0 45 -22 83 -67 83c-25 0 -37 -24 -37 -53v-190h79l-5 -25h-74v-366c0 -66 0 -75 41 -107v-2h-310v2c41 32 41 41 41 107v366h-104v-366c0 -66 0 -75 41 -107v-2h-310v2
c41 32 41 41 41 107v366h-51v14l51 22v5c0 156 113 234 274 234c56 0 104 -15 132 -44c43 35 105 53 182 53c66 0 129 -38 156 -65c51 15 97 32 146 64h2v-376c21 74 75 128 160 128c113 0 205 -101 205 -253c0 -170 -118 -267 -263 -267zM284 500h104v24c0 11 0 22 1 32
c-26 1 -50 9 -62 22c30 7 47 34 47 82c0 37 -7 74 -44 74c-30 0 -46 -27 -46 -66v-168zM1010 424c-39 0 -62 -53 -62 -122v-188c0 -55 19 -102 57 -102c55 0 69 71 69 229c0 120 -19 183 -64 183z" />
    <glyph glyph-name="f_f_h" unicode="ffh" horiz-adv-x="1328" 
d="M284 500h104v24c0 11 0 22 1 32c-26 1 -50 9 -62 22c30 7 47 34 47 82c0 37 -7 74 -44 74c-30 0 -46 -27 -46 -66v-168zM325 2v-2h-310v2c41 32 41 41 41 107v366h-51v14l51 22v5c0 156 113 234 274 234c56 0 104 -15 132 -44c43 35 105 53 182 53c66 0 129 -38 156 -65
c51 15 97 32 146 64h2v-384c23 87 88 135 172 135c117 0 160 -86 160 -173v-227c0 -66 0 -75 41 -107v-2h-310v2c41 32 41 41 41 107v240c0 32 -17 56 -47 56c-34 0 -57 -23 -57 -101v-195c0 -66 0 -75 41 -107v-2h-310v2c41 32 41 41 41 107v551c0 45 -22 83 -67 83
c-25 0 -37 -24 -37 -53v-190h79l-5 -25h-74v-366c0 -66 0 -75 41 -107v-2h-310v2c41 32 41 41 41 107v366h-104v-366c0 -66 0 -75 41 -107z" />
    <glyph glyph-name="f_f_j" unicode="ffj" horiz-adv-x="992" 
d="M284 500h104v20c0 13 1 25 3 36c-28 1 -52 9 -64 22c30 7 47 34 47 82c0 37 -7 74 -44 74c-30 0 -46 -27 -46 -66v-168zM678 -225c-98 0 -183 31 -183 109c0 56 53 90 110 90c36 0 68 -10 84 -24c-36 -8 -59 -37 -59 -89c0 -40 13 -70 48 -70c31 0 42 29 42 64v586
c0 23 -9 34 -36 34h-68v-366c0 -66 0 -75 41 -107v-2h-310v2c41 32 41 41 41 107v366h-104v-366c0 -66 0 -75 41 -107v-2h-310v2c41 32 41 41 41 107v366h-51v14l51 22v5c0 156 113 234 274 234c62 0 115 -19 141 -55c54 42 130 64 216 64c123 0 215 -42 215 -123
c0 -58 -51 -97 -116 -97c-42 0 -73 14 -91 31c36 8 60 40 60 92c0 50 -23 81 -68 81c-39 0 -71 -26 -71 -86v-157h332v-508c0 -149 -121 -217 -270 -217z" />
    <glyph glyph-name="f_f_k" unicode="ffk" horiz-adv-x="1336" 
d="M284 500h104v24c0 11 0 22 1 32c-26 1 -50 9 -62 22c30 7 47 34 47 82c0 37 -7 74 -44 74c-30 0 -46 -27 -46 -66v-168zM325 2v-2h-310v2c41 32 41 41 41 107v366h-51v14l51 22v5c0 156 113 234 274 234c56 0 104 -15 132 -44c43 35 105 53 182 53c66 0 129 -38 156 -65
c51 15 97 32 146 64h2v-479h13c26 0 41 3 66 25l92 83c29 26 41 50 40 68c0 21 -14 37 -34 43v2h204v-2c-72 -23 -105 -46 -148 -81l-32 -26l104 -250c20 -49 54 -108 97 -139v-2h-295c8 12 8 40 -5 70l-60 163c-8 20 -15 28 -33 28h-9v-152c0 -66 0 -75 41 -107v-2h-310v2
c41 32 41 41 41 107v551c0 45 -22 83 -67 83c-25 0 -37 -24 -37 -53v-190h79l-5 -25h-74v-366c0 -66 0 -75 41 -107v-2h-310v2c41 32 41 41 41 107v366h-104v-366c0 -66 0 -75 41 -107z" />
    <glyph glyph-name="f_h" unicode="fh" horiz-adv-x="996" 
d="M616 759v-384c23 87 88 135 172 135c117 0 160 -86 160 -173v-228c0 -66 0 -75 41 -107v-2h-310v2c41 32 41 41 41 107v241c0 32 -17 56 -47 56c-34 0 -57 -23 -57 -101v-196c0 -66 0 -75 41 -107v-2h-310v2c41 32 41 41 41 107v551c0 45 -22 83 -67 83
c-25 0 -37 -24 -37 -53v-190h79l-5 -25h-74v-366c0 -66 0 -75 41 -107v-2h-310v2c41 32 41 41 41 107v366h-51v14l51 22v13c0 156 94 235 256 235c66 0 129 -38 156 -65c51 15 97 33 146 65h2z" />
    <glyph glyph-name="f_j" unicode="fj" horiz-adv-x="660" 
d="M346 -225c-98 0 -183 31 -183 109c0 56 53 90 110 90c36 0 68 -10 84 -24c-36 -8 -59 -37 -59 -89c0 -40 13 -70 48 -70c31 0 42 29 42 64v586c0 23 -9 34 -36 34h-68v-366c0 -66 0 -75 41 -107v-2h-310v2c41 32 41 41 41 107v366h-51v14l51 22v9c0 156 132 239 299 239
c123 0 215 -42 215 -123c0 -58 -51 -97 -116 -97c-42 0 -73 14 -91 31c36 8 60 40 60 92c0 50 -23 81 -68 81c-39 0 -71 -26 -71 -86v-157h332v-508c0 -149 -121 -217 -270 -217z" />
    <glyph glyph-name="f_k" unicode="fk" horiz-adv-x="1004" 
d="M616 759v-480h13c26 0 41 3 66 25l92 83c29 26 41 50 40 68c0 21 -14 37 -34 43v2h204v-2c-72 -23 -105 -46 -148 -81l-32 -26l104 -250c20 -49 54 -108 97 -139v-2h-295c8 12 8 40 -5 70l-60 163c-8 20 -15 28 -33 28h-9v-152c0 -66 0 -75 41 -107v-2h-310v2
c41 32 41 41 41 107v551c0 45 -22 83 -67 83c-25 0 -37 -24 -37 -53v-190h79l-5 -25h-74v-366c0 -66 0 -75 41 -107v-2h-310v2c41 32 41 41 41 107v366h-51v14l51 22v13c0 156 94 235 256 235c66 0 129 -38 156 -65c51 15 97 33 146 65h2z" />
    <glyph glyph-name="f_f_idieresis" unicode="ff&#xef;" horiz-adv-x="1000" 
d="M943 539c-57 0 -104 47 -104 103c0 57 47 106 104 106s103 -49 103 -106c0 -56 -46 -103 -103 -103zM284 500h104v20c0 13 1 25 2 36c-27 1 -51 9 -63 22c30 7 47 34 47 82c0 37 -7 74 -44 74c-30 0 -46 -27 -46 -66v-168zM325 2v-2h-310v2c41 32 41 41 41 107v366h-51
v14l51 22v5c0 156 113 234 274 234c60 0 110 -18 137 -51c48 39 115 60 196 60c92 0 156 -42 156 -119c0 -58 -39 -100 -96 -100c-34 0 -61 14 -79 31c36 8 64 40 64 105c0 37 -14 67 -45 67c-28 0 -47 -27 -47 -86v-157h332v-391c0 -66 0 -75 41 -107v-2h-310v2
c41 32 41 41 41 107v332c0 23 -9 34 -36 34h-68v-366c0 -66 0 -75 41 -107v-2h-310v2c41 32 41 41 41 107v366h-104v-366c0 -66 0 -75 41 -107z" />
    <glyph glyph-name="f_idieresis" unicode="f&#xef;" horiz-adv-x="668" 
d="M611 539c-57 0 -104 47 -104 103c0 57 47 106 104 106s103 -49 103 -106c0 -56 -46 -103 -103 -103zM284 657v-157h332v-391c0 -66 0 -75 41 -107v-2h-310v2c41 32 41 41 41 107v332c0 23 -9 34 -36 34h-68v-366c0 -66 0 -75 41 -107v-2h-310v2c41 32 41 41 41 107v366
h-51v14l51 22v9c0 149 108 239 275 239c92 0 156 -42 156 -119c0 -58 -39 -100 -96 -100c-34 0 -61 14 -79 31c36 8 64 40 64 105c0 37 -14 67 -45 67c-28 0 -47 -27 -47 -86z" />
    <glyph glyph-name=".notdef" 
 />
    <glyph glyph-name="space" unicode=" " horiz-adv-x="200" 
 />
    <glyph glyph-name="exclam" unicode="!" horiz-adv-x="328" 
d="M22 700h284l-140 -434h-4zM281 111c0 -65 -50 -118 -117 -118s-117 53 -117 118s50 118 117 118s117 -53 117 -118z" />
    <glyph glyph-name="quotedbl" unicode="&#x22;" horiz-adv-x="573" 
d="M424 364h-6s-40 153 -119 254c14 55 68 92 122 92s108 -37 122 -92c-79 -101 -119 -254 -119 -254zM155 364h-6s-40 153 -119 254c14 55 68 92 122 92s108 -37 122 -92c-79 -101 -119 -254 -119 -254z" />
    <glyph glyph-name="numbersign" unicode="#" horiz-adv-x="635" 
d="M380 243l31 216h-156l-31 -216h156zM345 0l30 213h-156l-30 -213h-30l30 213h-149l5 30h149l31 216h-164l5 30h163l30 211h30l-30 -211h156l30 211h31l-30 -211h149l-5 -30h-148l-31 -216h164l-6 -30h-163l-30 -213h-31z" />
    <glyph glyph-name="dollar" unicode="$" horiz-adv-x="603" 
d="M302 691c-11 0 -21 -1 -31 -2v-201l57 -17v218c-8 1 -17 2 -26 2zM237 498l14 -4v191c-55 -13 -89 -49 -89 -100c0 -48 29 -73 75 -87zM298 9c10 0 20 1 30 2v221l-57 16v-237c9 -1 18 -2 27 -2zM351 226l-4 1v-213c61 14 108 53 108 112c0 53 -28 79 -104 100zM298 -10
h-27v-104h-20v105c-143 10 -240 61 -240 151c0 55 43 95 108 95c42 0 71 -16 83 -34c-27 -8 -47 -38 -47 -76c0 -51 34 -97 96 -113v239l-36 10c-98 27 -191 92 -191 213c0 120 85 213 227 231v103h20v-101c10 1 20 1 31 1c9 0 18 0 26 -1v101h19v-102
c135 -9 212 -62 212 -135c0 -51 -39 -89 -96 -89c-44 0 -69 19 -82 37c32 7 50 32 50 69c0 45 -32 82 -84 96v-221l37 -11c104 -31 199 -85 199 -214c0 -127 -97 -227 -236 -247v-107h-19v105c-10 -1 -20 -1 -30 -1z" />
    <glyph glyph-name="percent" unicode="%" horiz-adv-x="735" 
d="M179 0h-52l409 678c-24 -21 -81 -49 -140 -49c-23 0 -43 4 -63 9c20 -26 33 -58 33 -94c0 -96 -83 -165 -173 -165s-173 69 -173 165s83 165 173 165c80 0 120 -56 203 -56c73 0 122 25 167 66l11 -9zM193 397c35 0 39 49 39 147s-4 147 -39 147s-39 -49 -39 -147
s4 -147 39 -147zM542 -5c-90 0 -173 69 -173 165s83 165 173 165s173 -69 173 -165s-83 -165 -173 -165zM542 13c35 0 39 49 39 147s-4 147 -39 147s-39 -49 -39 -147s4 -147 39 -147z" />
    <glyph glyph-name="ampersand" unicode="&#x26;" horiz-adv-x="818" 
d="M360 510l59 -69c24 31 38 77 38 125c0 72 -28 127 -89 127c-40 0 -65 -26 -65 -67c0 -40 22 -75 57 -116zM390 37c25 0 51 7 77 18l-227 259c-11 -25 -17 -56 -17 -98c0 -100 58 -179 167 -179zM516 0l-27 31c-53 -26 -115 -41 -184 -41c-136 0 -267 59 -267 181
c0 95 81 147 191 156l-42 47c-39 45 -57 98 -57 142c0 136 118 194 238 194c118 0 228 -50 228 -145c0 -90 -73 -132 -161 -143l192 -223c19 33 31 67 31 98c0 50 -27 65 -81 89v4h199v-4c-58 -23 -72 -39 -83 -89c-10 -43 -26 -83 -48 -120l87 -101c37 -43 54 -51 96 -74
v-2h-312z" />
    <glyph glyph-name="quotesingle" unicode="'" horiz-adv-x="304" 
d="M155 364h-6s-40 153 -119 254c14 55 68 92 122 92s108 -37 122 -92c-79 -101 -119 -254 -119 -254z" />
    <glyph glyph-name="parenleft" unicode="(" horiz-adv-x="391" 
d="M28 313c0 230 161 360 329 436h19c-107 -90 -148 -266 -148 -436s41 -346 148 -436h-19c-168 76 -329 206 -329 436z" />
    <glyph glyph-name="parenright" unicode=")" horiz-adv-x="391" 
d="M34 749c168 -76 329 -206 329 -436s-161 -360 -329 -436h-19c107 90 148 266 148 436s-41 346 -148 436h19z" />
    <glyph glyph-name="asterisk" unicode="*" horiz-adv-x="464" 
d="M148 749h168c-17 -17 -59 -94 -71 -157c57 31 117 94 127 116l52 -160c-22 12 -107 27 -170 19c46 -45 126 -83 149 -85l-136 -99c5 24 -7 111 -35 168c-28 -57 -40 -144 -35 -168l-136 99c23 2 103 40 149 85c-63 8 -148 -7 -170 -19l52 160c10 -22 70 -85 127 -116
c-12 63 -54 140 -71 157z" />
    <glyph glyph-name="plus" unicode="+" horiz-adv-x="479" 
d="M435 306h-180v-179h-32v179h-179v32h179v179h32v-179h180v-32z" />
    <glyph glyph-name="comma" unicode="," horiz-adv-x="264" 
d="M181 28c-12 -14 -36 -25 -68 -25c-55 0 -98 40 -98 105c0 67 50 112 112 112c73 0 122 -56 122 -133c0 -142 -106 -211 -228 -208v17c83 3 160 34 160 132z" />
    <glyph glyph-name="hyphen" unicode="-" horiz-adv-x="329" 
d="M40 249v82h249v-82h-249z" />
    <glyph glyph-name="period" unicode="." horiz-adv-x="264" 
d="M249 111c0 -65 -50 -118 -117 -118s-117 53 -117 118s50 118 117 118s117 -53 117 -118z" />
    <glyph glyph-name="slash" unicode="/" horiz-adv-x="358" 
d="M0 -123l300 872h38l-300 -872h-38z" />
    <glyph glyph-name="zero" unicode="0" horiz-adv-x="722" 
d="M701 350c0 -226 -147 -360 -340 -360s-340 134 -340 360s147 360 340 360s340 -134 340 -360zM441 350c0 264 -16 343 -80 343s-80 -79 -80 -343s16 -343 80 -343s80 79 80 343z" />
    <glyph glyph-name="one" unicode="1" horiz-adv-x="431" 
d="M428 0h-426v5c73 30 92 32 92 83v524c0 51 -19 53 -92 83v5h334v-612c0 -51 19 -53 92 -83v-5z" />
    <glyph glyph-name="two" unicode="2" horiz-adv-x="604" 
d="M261 692c-63 0 -98 -51 -98 -123c0 -71 41 -104 78 -104c19 0 32 3 47 17h2c-21 -71 -74 -98 -137 -98c-77 0 -137 53 -137 140c0 119 103 186 245 186c164 0 309 -51 309 -214c0 -165 -157 -244 -401 -320h213c110 0 150 13 197 80h2l-25 -256h-560v2
c283 297 352 390 352 555c0 72 -21 135 -87 135z" />
    <glyph glyph-name="three" unicode="3" horiz-adv-x="609" 
d="M284 7c54 0 75 78 75 182c0 114 -27 181 -107 181v10c72 4 93 69 93 165c0 85 -10 148 -60 148c-43 0 -69 -46 -69 -112c0 -62 18 -106 55 -106c4 0 10 1 17 3c-14 -23 -48 -47 -112 -47c-78 0 -130 49 -130 119c0 111 114 160 239 160c155 0 285 -58 285 -175
c0 -99 -89 -147 -198 -156c126 -9 223 -66 223 -187c0 -136 -137 -202 -311 -202c-146 0 -274 55 -274 177c0 85 62 132 146 132c70 0 106 -25 121 -52c-8 2 -14 3 -19 3c-39 0 -59 -41 -59 -111c0 -72 34 -132 85 -132z" />
    <glyph glyph-name="four" unicode="4" horiz-adv-x="679" 
d="M293 226v371l-240 -371h240zM293 118v77h-293v5l324 500h208v-474h33c65 0 72 10 106 58h2v-147h-2c-34 48 -41 58 -106 58h-33v-77c0 -66 11 -82 54 -116v-2h-347v2c43 34 54 50 54 116z" />
    <glyph glyph-name="five" unicode="5" horiz-adv-x="593" 
d="M270 7c62 0 78 97 78 207c0 94 -34 183 -123 183c-44 0 -94 -25 -127 -62h-2l48 375c75 -9 176 -14 235 -14c83 0 138 4 180 43h2c0 -141 -41 -235 -192 -235c-59 0 -172 21 -220 41l-20 -163c34 35 101 71 193 71c152 0 257 -80 257 -212c0 -174 -145 -251 -309 -251
c-141 0 -265 54 -265 173c0 84 60 133 142 133c67 0 105 -27 119 -53c-7 2 -13 3 -18 3c-38 0 -60 -43 -60 -110c0 -72 32 -129 82 -129z" />
    <glyph glyph-name="six" unicode="6" horiz-adv-x="649" 
d="M386 710c125 0 239 -39 239 -145c0 -65 -56 -105 -121 -105c-57 0 -109 31 -120 88c7 -4 14 -8 25 -8c29 0 50 29 50 71c0 49 -26 82 -73 82c-95 0 -128 -121 -128 -279c0 -20 1 -42 2 -63c26 53 79 90 153 90c120 0 216 -74 216 -204c0 -163 -131 -247 -291 -247
c-177 0 -317 136 -317 344c0 192 136 376 365 376zM402 201c0 121 -20 197 -65 197s-65 -76 -65 -197s20 -195 65 -195s65 74 65 195z" />
    <glyph glyph-name="seven" unicode="7" horiz-adv-x="563" 
d="M117 700h446v-2l-160 -262c-39 -64 -57 -160 -57 -255c0 -65 9 -129 24 -181h-240c15 185 134 306 249 440l37 43h-283c-52 0 -81 -25 -118 -101h-2l21 330c14 -8 39 -12 83 -12z" />
    <glyph glyph-name="eight" unicode="8" horiz-adv-x="615" 
d="M404 457c131 -44 197 -123 197 -228c0 -164 -138 -239 -294 -239c-166 0 -296 61 -296 169c0 80 68 118 153 130c-67 31 -128 98 -128 194c0 153 125 227 263 227c135 0 246 -50 246 -144c0 -68 -68 -107 -141 -109zM198 605c0 -45 28 -74 84 -97l109 -45
c23 28 34 62 34 107c0 79 -48 123 -126 123c-60 0 -101 -31 -101 -88zM177 283c-21 -23 -35 -57 -35 -110c0 -97 72 -166 165 -166c76 0 123 41 123 100c0 62 -40 84 -108 113z" />
    <glyph glyph-name="nine" unicode="9" horiz-adv-x="649" 
d="M247 499c0 -121 20 -197 65 -197s65 76 65 197s-20 195 -65 195s-65 -74 -65 -195zM263 -10c-125 0 -239 39 -239 145c0 65 56 105 121 105c57 0 109 -31 120 -88c-7 4 -14 8 -25 8c-29 0 -50 -29 -50 -71c0 -49 26 -82 73 -82c95 0 128 121 128 279c0 20 -1 42 -2 63
c-26 -53 -79 -90 -153 -90c-120 0 -216 74 -216 204c0 163 131 247 291 247c177 0 317 -136 317 -344c0 -192 -136 -376 -365 -376z" />
    <glyph glyph-name="colon" unicode=":" horiz-adv-x="264" 
d="M249 382c0 -65 -50 -118 -117 -118s-117 53 -117 118s50 118 117 118s117 -53 117 -118zM249 111c0 -65 -50 -118 -117 -118s-117 53 -117 118s50 118 117 118s117 -53 117 -118z" />
    <glyph glyph-name="semicolon" unicode=";" horiz-adv-x="264" 
d="M249 382c0 -65 -50 -118 -117 -118s-117 53 -117 118s50 118 117 118s117 -53 117 -118zM181 28c-12 -14 -36 -25 -68 -25c-55 0 -98 40 -98 105c0 67 50 112 112 112c73 0 122 -56 122 -133c0 -142 -106 -211 -228 -208v17c83 3 160 34 160 132z" />
    <glyph glyph-name="less" unicode="&#x3c;" horiz-adv-x="351" 
d="M28 309v22l284 165v-37l-243 -139l243 -139v-37z" />
    <glyph glyph-name="equal" unicode="=" horiz-adv-x="484" 
d="M46 373v32h392v-32h-392zM46 241v32h392v-32h-392z" />
    <glyph glyph-name="greater" unicode="&#x3e;" horiz-adv-x="351" 
d="M323 331v-22l-284 -165v37l243 139l-243 139v37z" />
    <glyph glyph-name="question" unicode="?" horiz-adv-x="589" 
d="M272 693c-58 0 -103 -40 -103 -94c0 -49 26 -83 73 -83c5 0 14 1 21 4l1 -2c-13 -42 -54 -76 -116 -76c-65 0 -123 43 -123 115c0 99 110 153 247 153c177 0 292 -75 292 -204c0 -125 -127 -214 -269 -228v-21h-20v192c73 30 108 72 108 142c0 58 -38 102 -111 102z
M284 229c67 0 117 -53 117 -118s-50 -118 -117 -118s-117 53 -117 118s50 118 117 118z" />
    <glyph glyph-name="at" unicode="@" horiz-adv-x="920" 
d="M759 509l-77 -302c-9 -33 -5 -56 23 -56c56 0 132 97 132 238c0 200 -158 301 -337 301c-244 0 -382 -206 -382 -420c0 -246 174 -357 359 -357c123 0 235 34 315 104v-4c-71 -82 -195 -126 -315 -126c-239 0 -437 114 -437 383c0 234 186 440 460 440
c208 0 380 -119 380 -321c0 -188 -123 -301 -250 -301c-85 0 -132 39 -145 93c-33 -61 -74 -93 -143 -93c-83 0 -140 64 -140 159c0 145 90 274 241 274c72 0 107 -34 120 -80c45 47 123 73 196 68zM507 273l33 139c8 35 0 58 -22 58c-50 0 -112 -151 -112 -253
c0 -32 7 -63 30 -63c28 0 57 55 71 119z" />
    <glyph glyph-name="A" unicode="A" horiz-adv-x="770" 
d="M273 422l-94 -200h192zM183 2v-2h-183v2c36 26 64 54 93 114l288 594h5l303 -598c30 -60 48 -84 81 -110v-2h-373v2c29 19 40 35 40 58c0 20 -5 35 -14 55l-37 76h-221l-30 -64c-7 -16 -11 -31 -11 -46c0 -32 18 -60 59 -79z" />
    <glyph glyph-name="B" unicode="B" horiz-adv-x="739" 
d="M309 373h14c80 0 131 57 131 150c0 94 -51 150 -131 150h-14v-300zM309 27h28c103 0 156 60 156 161c0 100 -53 160 -156 160h-28v-321zM679 527c0 -100 -87 -155 -187 -160v-3c112 -6 231 -52 231 -176c0 -137 -123 -188 -287 -188h-423v2c43 34 54 50 54 116v464
c0 66 -11 82 -54 116v2h413c151 0 253 -49 253 -173z" />
    <glyph glyph-name="C" unicode="C" horiz-adv-x="687" 
d="M651 710l6 -247h-2c-54 131 -124 225 -217 225c-105 0 -162 -133 -162 -285c0 -186 99 -289 226 -289c66 0 127 19 169 99l5 -3c-39 -136 -149 -220 -311 -220c-198 0 -344 137 -344 345c0 226 175 375 388 375c97 0 142 -28 176 -28c25 0 40 8 66 28z" />
    <glyph glyph-name="D" unicode="D" horiz-adv-x="797" 
d="M13 0v2c43 34 54 50 54 116v464c0 66 -11 82 -54 116v2h330c252 0 433 -110 433 -350s-181 -350 -433 -350h-330zM309 27h25c136 0 185 128 185 323s-49 323 -185 323h-25v-646z" />
    <glyph glyph-name="E" unicode="E" horiz-adv-x="672" 
d="M13 700h509c42 0 66 3 82 10l34 -206h-2c-61 103 -109 169 -242 169h-85v-293h64c81 0 118 23 148 116h2v-262h-2c-30 92 -67 116 -148 116h-64v-323h98c144 0 191 91 251 188h2l-32 -215h-615v2c43 34 54 50 54 116v464c0 66 -11 82 -54 116v2z" />
    <glyph glyph-name="F" unicode="F" horiz-adv-x="636" 
d="M309 331v-213c0 -66 17 -82 74 -116v-2h-370v2c43 34 54 50 54 116v464c0 66 -11 82 -54 116v2h497c42 0 66 3 82 10l34 -206h-2c-61 103 -109 169 -242 169h-73v-312h70c81 0 118 23 148 116h2v-262h-2c-30 92 -67 116 -148 116h-70z" />
    <glyph glyph-name="G" unicode="G" horiz-adv-x="783" 
d="M445 689c-108 0 -166 -134 -166 -342c0 -186 37 -339 120 -339c62 0 93 48 93 128v75c0 66 -11 82 -54 116v2h340v-2c-43 -34 -54 -50 -54 -116v-221h-2l-90 86c-58 -53 -148 -86 -233 -86c-225 0 -378 137 -378 357s183 363 396 363c101 0 152 -28 186 -28
c25 0 40 8 66 28l6 -247h-2c-59 129 -135 226 -228 226z" />
    <glyph glyph-name="H" unicode="H" horiz-adv-x="843" 
d="M67 118v464c0 66 -11 82 -54 116v2h350v-2c-43 -34 -54 -50 -54 -116v-200h225v200c0 66 -11 82 -54 116v2h350v-2c-43 -34 -54 -50 -54 -116v-464c0 -66 11 -82 54 -116v-2h-350v2c43 34 54 50 54 116v231h-225v-231c0 -66 11 -82 54 -116v-2h-350v2c43 34 54 50 54 116
z" />
    <glyph glyph-name="I" unicode="I" horiz-adv-x="376" 
d="M309 118c0 -66 11 -82 54 -116v-2h-350v2c43 34 54 50 54 116v464c0 66 -11 82 -54 116v2h350v-2c-43 -34 -54 -50 -54 -116v-464z" />
    <glyph glyph-name="J" unicode="J" horiz-adv-x="648" 
d="M349 141v441c0 66 -11 82 -54 116v2h349v-2c-43 -34 -54 -50 -54 -116v-345c0 -189 -156 -247 -322 -247c-127 0 -274 54 -274 181c0 83 67 129 147 129c52 0 97 -20 120 -52c-54 3 -81 -50 -81 -112c0 -70 27 -127 88 -127c56 0 81 47 81 132z" />
    <glyph glyph-name="K" unicode="K" horiz-adv-x="810" 
d="M363 0h-350v2c43 34 54 50 54 116v464c0 66 -11 82 -54 116v2h350v-2c-43 -34 -54 -50 -54 -116v-253l287 265c16 15 24 32 24 48c0 22 -15 43 -42 56v2h211v-2c-64 -27 -115 -68 -163 -113l-93 -87l195 -388c26 -51 52 -81 94 -108v-2h-367v2c19 10 26 19 26 37
c0 19 -8 42 -28 83l-105 210l-39 -36v-178c0 -66 11 -82 54 -116v-2z" />
    <glyph glyph-name="L" unicode="L" horiz-adv-x="663" 
d="M13 700h350v-2c-43 -34 -54 -50 -54 -116v-555h88c144 0 176 74 258 218h2l-39 -245h-605v2c43 34 54 50 54 116v464c0 66 -11 82 -54 116v2z" />
    <glyph glyph-name="M" unicode="M" horiz-adv-x="913" 
d="M101 166c0 -85 22 -134 87 -164v-2h-195v2c54 34 74 79 74 153v427c0 66 -11 82 -54 116v2h304l150 -370l152 370h281v-2c-43 -34 -54 -50 -54 -116v-464c0 -66 11 -82 54 -116v-2h-350v2c43 34 54 50 54 116v472l-245 -601h-4l-254 602v-425z" />
    <glyph glyph-name="N" unicode="N" horiz-adv-x="719" 
d="M727 698c-54 -34 -74 -79 -74 -153v-545h-68l-484 591v-425c0 -85 22 -134 87 -164v-2h-195v2c54 34 74 79 74 153v427c0 66 -11 82 -54 116v2h316l290 -348v182c0 85 -22 134 -87 164v2h195v-2z" />
    <glyph glyph-name="O" unicode="O" horiz-adv-x="778" 
d="M757 350c0 -210 -150 -360 -368 -360s-368 150 -368 360s150 360 368 360s368 -150 368 -360zM497 350c0 235 -16 342 -108 342s-108 -107 -108 -342s16 -342 108 -342s108 107 108 342z" />
    <glyph glyph-name="P" unicode="P" horiz-adv-x="708" 
d="M421 290h-112v-172c0 -66 17 -82 74 -116v-2h-370v2c43 34 54 50 54 116v464c0 66 -11 82 -54 116v2h406c176 0 279 -76 279 -205s-103 -205 -277 -205zM309 317h18c94 0 144 74 144 178s-50 178 -144 178h-18v-356z" />
    <glyph glyph-name="Q" unicode="Q" horiz-adv-x="778" 
d="M657 -186c-119 0 -152 98 -179 185c-28 -6 -58 -9 -89 -9c-218 0 -368 150 -368 360s150 360 368 360s368 -150 368 -360c0 -137 -64 -249 -169 -310c35 -47 71 -91 139 -91c30 0 60 10 83 34h2c-4 -108 -62 -169 -155 -169zM281 350c0 -120 4 -207 21 -263
c20 41 55 70 112 70c29 0 53 -6 73 -16c8 53 10 122 10 209c0 235 -16 342 -108 342s-108 -107 -108 -342zM389 8c33 0 57 14 73 43c-17 47 -37 82 -78 82c-33 0 -60 -26 -74 -63l-4 5c16 -45 42 -67 83 -67z" />
    <glyph glyph-name="R" unicode="R" horiz-adv-x="796" 
d="M309 673v-324h39c86 0 128 70 128 162s-42 162 -128 162h-39zM728 513c0 -113 -108 -180 -230 -180v-3c109 -5 168 -39 198 -130l25 -75c21 -62 37 -90 93 -123v-2h-298c-25 32 -37 65 -48 108l-36 139c-12 47 -34 75 -100 75h-23v-204c0 -66 11 -82 54 -116v-2h-350v2
c43 34 54 50 54 116v464c0 66 -11 82 -54 116v2h453c154 0 262 -52 262 -187z" />
    <glyph glyph-name="S" unicode="S" horiz-adv-x="599" 
d="M300 692c-63 0 -107 -37 -107 -93c0 -76 70 -102 151 -129c109 -37 238 -77 238 -250c0 -143 -128 -230 -285 -230c-82 0 -140 25 -184 25c-27 0 -50 -9 -74 -25l-21 238h2c72 -129 178 -220 276 -220c79 0 123 37 123 103c0 94 -102 116 -203 152
c-97 34 -193 82 -193 223c0 137 106 224 277 224c73 0 125 -25 170 -25c21 0 43 13 60 25l4 -201h-2c-70 111 -130 183 -232 183z" />
    <glyph glyph-name="T" unicode="T" horiz-adv-x="790" 
d="M125 700h540c42 0 66 3 82 10l34 -256h-2c-97 149 -138 219 -242 219h-21v-555c0 -66 11 -82 54 -116v-2h-350v2c43 34 54 50 54 116v555h-21c-104 0 -145 -70 -242 -219h-2l34 256c16 -7 40 -10 82 -10z" />
    <glyph glyph-name="U" unicode="U" horiz-adv-x="725" 
d="M664 545v-272c0 -191 -108 -283 -287 -283c-177 0 -316 92 -316 284v308c0 66 -11 82 -54 116v2h350v-2c-43 -34 -54 -50 -54 -116v-309c0 -135 55 -212 159 -212c96 0 168 76 168 213v260c0 85 -22 134 -87 164v2h195v-2c-54 -34 -74 -79 -74 -153z" />
    <glyph glyph-name="V" unicode="V" horiz-adv-x="749" 
d="M624 573c7 16 11 31 11 46c0 32 -18 60 -59 79v2h183v-2c-36 -26 -64 -54 -93 -114l-287 -594h-5l-303 598c-30 60 -48 84 -81 110v2h367v-2c-29 -19 -40 -35 -40 -58c0 -20 5 -35 14 -55l152 -313z" />
    <glyph glyph-name="W" unicode="W" horiz-adv-x="1011" 
d="M686 -10l-181 450l-183 -450h-6l-253 598c-25 60 -45 84 -73 110v2h351v-2c-27 -18 -38 -35 -38 -61c0 -17 3 -32 11 -52l112 -270l64 161l-45 112c-25 60 -45 84 -73 110v2h346v-2c-27 -18 -38 -35 -38 -61c0 -17 4 -32 11 -52l100 -277l104 268c5 14 8 27 8 39
c-1 33 -20 61 -60 83v2h178v-2c-33 -27 -64 -60 -89 -120l-240 -588h-6z" />
    <glyph glyph-name="X" unicode="X" horiz-adv-x="767" 
d="M182 2v-2h-187v2c49 29 77 57 118 109l163 209l-167 269c-39 61 -61 82 -100 109v2h366v-2c-16 -17 -24 -30 -24 -50c0 -17 9 -34 22 -54l86 -138l97 125c14 18 23 37 23 56c-1 22 -13 44 -43 61v2h184v-2c-51 -29 -80 -57 -121 -109l-124 -159l197 -319
c39 -61 61 -82 100 -109v-2h-366v2c16 17 24 30 24 50c0 17 -9 34 -22 54l-116 187l-134 -172c-12 -16 -19 -34 -19 -52c0 -25 13 -49 43 -67z" />
    <glyph glyph-name="Y" unicode="Y" horiz-adv-x="737" 
d="M468 341l138 234c9 15 15 31 15 47c0 28 -15 55 -55 76v2h181v-2c-43 -33 -69 -64 -101 -118l-168 -283v-179c0 -66 11 -82 54 -116v-2h-337v2c43 34 54 50 54 116v179l-168 283c-32 54 -53 85 -91 118v2h365v-2c-28 -24 -37 -39 -37 -61c0 -16 5 -31 14 -46z" />
    <glyph glyph-name="Z" unicode="Z" horiz-adv-x="716" 
d="M672 0h-659v2l406 671h-138c-121 0 -164 -78 -242 -199h-2l34 236c16 -7 40 -10 82 -10h543v-2l-393 -671h128c133 0 176 67 270 218h2z" />
    <glyph glyph-name="bracketleft" unicode="[" horiz-adv-x="378" 
d="M80 -123v872h278v-2l-103 -41v-785l103 -42v-2h-278z" />
    <glyph glyph-name="backslash" unicode="\" horiz-adv-x="358" 
d="M58 749l300 -872h-38l-300 872h38z" />
    <glyph glyph-name="bracketright" unicode="]" horiz-adv-x="378" 
d="M298 749v-872h-278v2l103 42v785l-103 41v2h278z" />
    <glyph glyph-name="asciicircum" unicode="^" horiz-adv-x="450" 
d="M223 710h4l183 -298h-64l-121 197l-121 -197h-64z" />
    <glyph glyph-name="underscore" unicode="_" horiz-adv-x="329" 
d="M40 -136v82h249v-82h-249z" />
    <glyph glyph-name="grave" unicode="`" 
d="M335 749c0 -73 5 -160 33 -213h-6c-119 50 -200 122 -240 213h213z" />
    <glyph glyph-name="a" unicode="a" horiz-adv-x="591" 
d="M616 40v-2c-30 -29 -86 -48 -138 -48c-96 0 -142 35 -153 90c-1 4 -2 13 -2 14c-19 -66 -73 -101 -158 -101c-78 0 -151 40 -151 126c0 116 109 136 230 158l76 14v119c0 39 -11 82 -54 82c-33 0 -55 -30 -55 -72c0 -46 17 -66 49 -66c7 0 14 1 22 3
c-27 -44 -74 -66 -133 -66s-108 35 -108 90c0 83 95 129 232 129c182 0 271 -50 271 -178c0 -46 -1 -105 -1 -182c0 -71 1 -111 54 -111c5 0 12 0 19 1zM320 273l-28 -7c-46 -11 -61 -50 -61 -112c0 -43 11 -79 43 -79c38 0 46 42 46 81v117z" />
    <glyph glyph-name="b" unicode="b" horiz-adv-x="651" 
d="M376 -10c-84 0 -141 26 -175 84c-42 -55 -91 -76 -162 -81c7 62 7 131 7 219v425c0 73 -12 85 -58 110v2h286v-367c21 74 75 128 160 128c113 0 205 -101 205 -253c0 -170 -118 -267 -263 -267zM400 241c0 120 -19 183 -64 183c-39 0 -62 -53 -62 -122v-188
c0 -55 19 -102 57 -102c55 0 69 71 69 229z" />
    <glyph glyph-name="c" unicode="c" horiz-adv-x="526" 
d="M321 494c-58 0 -75 -86 -75 -195c0 -137 54 -207 148 -207c45 0 91 19 122 70l7 -4c-33 -106 -129 -168 -242 -168c-149 0 -269 96 -269 250c0 171 130 270 306 270c107 0 195 -41 195 -133c0 -67 -52 -99 -105 -99c-62 0 -96 32 -101 65c6 -3 14 -4 19 -4
c41 0 54 37 54 78c0 50 -22 77 -59 77z" />
    <glyph glyph-name="d" unicode="d" horiz-adv-x="656" 
d="M315 76c39 0 62 49 62 112v136c0 80 -26 133 -66 133c-46 0 -60 -67 -60 -213c0 -110 19 -168 64 -168zM377 416v221c0 73 -12 85 -58 110v2h286v-640c0 -66 0 -75 41 -107v-2h-269v118c-21 -74 -75 -128 -160 -128c-113 0 -205 101 -205 253c0 162 100 267 224 267
c76 0 120 -34 141 -94z" />
    <glyph glyph-name="e" unicode="e" horiz-adv-x="552" 
d="M290 510c170 0 252 -107 252 -236h-300c0 -120 64 -182 152 -182c53 0 100 19 132 70l7 -4c-34 -106 -131 -168 -246 -168c-152 0 -275 94 -275 259c0 161 126 261 278 261zM242 294h88c0 118 -4 200 -40 200c-41 0 -47 -82 -48 -200z" />
    <glyph glyph-name="f" unicode="f" horiz-adv-x="368" 
d="M56 109v366h-51v14l51 22v13c0 156 113 235 274 235c100 0 179 -32 179 -114c0 -59 -50 -94 -103 -94c-34 0 -64 10 -79 25c34 8 53 39 53 93c0 42 -13 74 -50 74c-30 0 -46 -27 -46 -66v-177h118l-5 -25h-113v-366c0 -66 19 -79 71 -107v-2h-340v2c41 32 41 41 41 107z
" />
    <glyph glyph-name="g" unicode="g" horiz-adv-x="604" 
d="M280 494c-25 0 -31 -43 -31 -149s6 -148 31 -148s31 42 31 148s-6 149 -31 149zM595 -22c0 -146 -167 -203 -336 -203c-124 0 -257 17 -257 93c0 33 37 62 118 62c-63 17 -104 64 -104 131c0 72 54 124 121 145c-67 27 -103 77 -103 139c0 98 89 165 246 165
c64 0 118 -11 158 -32c22 37 48 82 105 82c58 0 94 -33 94 -84c0 -64 -52 -86 -96 -86v2c5 10 8 22 8 34c0 31 -17 60 -57 60c-18 0 -30 -5 -42 -15c49 -29 76 -72 76 -126c0 -98 -89 -164 -246 -164c-50 0 -91 6 -127 18c-24 -9 -36 -19 -36 -37c0 -17 11 -30 32 -30h248
c115 0 198 -51 198 -154zM259 -208c95 0 185 24 185 82c0 35 -27 50 -75 50h-196c-40 0 -70 -16 -70 -55c0 -57 73 -77 156 -77z" />
    <glyph glyph-name="h" unicode="h" horiz-adv-x="660" 
d="M-6 749h286v-374c23 87 88 135 172 135c117 0 160 -86 160 -173v-228c0 -66 0 -75 41 -107v-2h-310v2c41 32 41 41 41 107v241c0 32 -17 56 -47 56c-34 0 -57 -23 -57 -101v-196c0 -66 0 -75 41 -107v-2h-310v2c41 32 41 41 41 107v528c0 73 -12 85 -58 110v2z" />
    <glyph glyph-name="i" unicode="i" horiz-adv-x="336" 
d="M50 647c0 65 51 114 120 114s122 -49 122 -114c0 -64 -53 -114 -122 -114s-120 50 -120 114zM284 500v-391c0 -66 0 -75 41 -107v-2h-310v2c41 32 41 41 41 107v279c0 73 -2 79 -48 110v2h276z" />
    <glyph glyph-name="j" unicode="j" horiz-adv-x="324" 
d="M46 647c0 65 51 114 120 114s122 -49 122 -114c0 -64 -53 -114 -122 -114s-120 50 -120 114zM10 -225c-98 0 -183 31 -183 109c0 56 53 90 110 90c36 0 68 -10 84 -24c-36 -8 -59 -37 -59 -89c0 -40 13 -70 48 -70c31 0 42 29 42 64v533c-1 73 -2 79 -48 110v2h276v-508
c0 -149 -121 -217 -270 -217z" />
    <glyph glyph-name="k" unicode="k" horiz-adv-x="668" 
d="M280 279h13c26 0 41 3 66 25l92 83c29 26 41 50 40 68c0 21 -14 37 -34 43v2h204v-2c-72 -23 -105 -46 -148 -81l-32 -26l104 -250c20 -49 54 -108 97 -139v-2h-295c8 12 8 40 -5 70l-60 163c-8 20 -15 28 -33 28h-9v-152c0 -66 0 -75 41 -107v-2h-310v2
c41 32 41 41 41 107v528c0 73 -12 85 -58 110v2h286v-470z" />
    <glyph glyph-name="l" unicode="l" horiz-adv-x="331" 
d="M280 749v-640c0 -66 0 -75 41 -107v-2h-310v2c41 32 41 41 41 107v528c0 73 -12 85 -58 110v2h286z" />
    <glyph glyph-name="m" unicode="m" horiz-adv-x="976" 
d="M605 375c23 87 79 135 163 135c117 0 160 -86 160 -173v-228c0 -66 0 -75 41 -107v-2h-310v2c41 32 41 41 41 107v241c0 32 -14 56 -44 56c-28 0 -50 -23 -50 -101v-196c0 -66 0 -75 41 -107v-2h-310v2c41 32 41 41 41 107v241c0 32 -14 56 -44 56
c-28 0 -50 -23 -50 -101v-196c0 -66 0 -75 41 -107v-2h-310v2c41 32 41 41 41 107v279c0 73 -2 79 -48 110v2h276v-125c23 87 78 135 162 135c100 0 148 -63 159 -135z" />
    <glyph glyph-name="n" unicode="n" horiz-adv-x="664" 
d="M8 500h276v-125c23 87 88 135 172 135c117 0 160 -86 160 -173v-228c0 -66 0 -75 41 -107v-2h-310v2c41 32 41 41 41 107v241c0 32 -17 56 -47 56c-34 0 -57 -23 -57 -101v-196c0 -66 0 -75 41 -107v-2h-310v2c41 32 41 41 41 107v279c0 73 -2 79 -48 110v2z" />
    <glyph glyph-name="o" unicode="o" horiz-adv-x="606" 
d="M303 -10c-155 0 -291 99 -291 260s136 260 291 260s291 -99 291 -260s-136 -260 -291 -260zM303 6c46 0 52 72 52 244s-6 244 -52 244s-52 -72 -52 -244s6 -244 52 -244z" />
    <glyph glyph-name="p" unicode="p" horiz-adv-x="655" 
d="M340 424c-39 0 -62 -49 -62 -112v-136c0 -80 26 -133 66 -133c46 0 60 67 60 213c0 110 -19 168 -64 168zM278 84v-190c0 -66 0 -75 41 -107v-2h-310v2c41 32 41 41 41 107v494c0 73 -2 79 -48 110v2h276v-118c21 74 75 128 160 128c113 0 205 -101 205 -253
c0 -162 -100 -267 -224 -267c-76 0 -120 34 -141 94z" />
    <glyph glyph-name="q" unicode="q" horiz-adv-x="647" 
d="M605 288v-394c0 -66 0 -75 41 -107v-2h-310v2c41 32 41 41 41 107v224c-21 -74 -75 -128 -160 -128c-113 0 -205 92 -205 253c0 170 128 267 263 267c79 0 141 -26 175 -84c41 54 91 75 160 81h2c-7 -62 -7 -131 -7 -219zM377 198v175c0 72 -26 117 -58 117
c-54 0 -68 -73 -68 -231c0 -120 19 -183 64 -183c39 0 62 53 62 122z" />
    <glyph glyph-name="r" unicode="r" horiz-adv-x="554" 
d="M397 270c21 8 33 29 33 51c0 40 -24 62 -67 62c-41 0 -79 -27 -79 -100v-174c0 -66 19 -79 71 -107v-2h-340v2c41 32 41 41 41 107v279c0 73 -2 79 -48 110v2h276v-158c25 89 66 168 155 168c72 0 115 -52 115 -117c0 -83 -54 -131 -120 -131c-16 0 -31 4 -37 8z" />
    <glyph glyph-name="s" unicode="s" horiz-adv-x="481" 
d="M213 494c-36 0 -62 -16 -62 -48c0 -44 37 -52 124 -83c127 -45 186 -91 186 -197c0 -104 -81 -176 -215 -176c-69 0 -118 19 -157 19c-28 0 -40 -11 -55 -20l-11 178h2c64 -108 135 -161 221 -161c44 0 73 17 73 57c0 46 -40 55 -108 79c-127 44 -188 96 -188 202
c0 97 80 166 190 166c63 0 105 -22 142 -22c25 0 41 8 60 23v-160h-2c-48 89 -134 143 -200 143z" />
    <glyph glyph-name="t" unicode="t" horiz-adv-x="431" 
d="M416 199l14 -6c-16 -97 -68 -203 -206 -203c-100 0 -178 56 -177 181l3 304h-45v14c113 24 211 84 259 186h11v-175h147l-5 -25h-142v-312c0 -43 18 -70 56 -70c43 0 72 39 85 106z" />
    <glyph glyph-name="u" unicode="u" horiz-adv-x="659" 
d="M379 196v192c0 73 -2 79 -48 110v2h276v-391c0 -66 0 -75 41 -107v-2h-269v126c-23 -87 -85 -136 -169 -136c-117 0 -161 87 -161 174v224c0 73 -2 79 -48 110v2h276v-349c0 -32 18 -57 48 -57c34 0 54 24 54 102z" />
    <glyph glyph-name="v" unicode="v" horiz-adv-x="565" 
d="M384 236l79 150c7 14 11 29 11 43c0 31 -18 57 -54 69v2h155v-2c-34 -30 -47 -49 -78 -106l-216 -402h-2l-216 402c-31 57 -40 74 -73 106v2h322v-2c-20 -14 -27 -25 -27 -46c0 -16 6 -34 14 -50z" />
    <glyph glyph-name="w" unicode="w" horiz-adv-x="810" 
d="M555 -10l-137 314l-161 -314h-2l-196 402c-26 53 -36 74 -69 106v2h301v-2c-12 -14 -18 -24 -18 -45c0 -20 6 -36 14 -53l76 -153l44 83l-27 62c-27 55 -36 73 -69 106v2h307v-2c-20 -14 -30 -27 -30 -48c0 -16 5 -32 12 -51l53 -142l62 138c5 11 7 23 7 34
c0 29 -18 56 -55 69v2h153v-2c-34 -31 -48 -47 -77 -106l-186 -402h-2z" />
    <glyph glyph-name="x" unicode="x" horiz-adv-x="604" 
d="M161 2v-2h-171v2c50 22 90 69 125 116l82 114l-95 151c-35 54 -55 81 -102 115v2h324v-2c-10 -9 -15 -18 -15 -34c0 -19 10 -41 32 -75l42 -67l40 68c11 19 18 38 18 55c0 25 -14 45 -39 53v2h168v-2c-51 -21 -93 -67 -123 -116l-51 -81l115 -184c35 -54 55 -81 103 -115
v-2h-324v2c9 9 15 18 15 34c0 19 -11 41 -33 75l-62 99l-69 -100c-13 -20 -19 -37 -19 -53c-1 -26 15 -45 39 -55z" />
    <glyph glyph-name="y" unicode="y" horiz-adv-x="563" 
d="M284 -80l11 25l-232 447c-30 58 -40 72 -73 106v2h324v-2c-20 -14 -27 -25 -27 -46c0 -16 5 -35 14 -53l94 -193l69 176c6 16 9 30 9 43c0 37 -24 61 -57 73v2h157v-2c-34 -30 -52 -48 -76 -108l-204 -501c-32 -79 -74 -115 -136 -115s-110 36 -110 101c0 61 43 96 96 96
c10 0 16 -1 24 -3c-14 -11 -22 -25 -22 -47c0 -33 26 -58 60 -58c37 0 62 18 79 57z" />
    <glyph glyph-name="z" unicode="z" horiz-adv-x="548" 
d="M278 480h-43c-87 0 -136 -62 -206 -164h-2l14 196c14 -8 43 -12 63 -12h423v-2l-264 -478h35c106 0 134 52 233 180h2l-29 -200h-494v2z" />
    <glyph glyph-name="braceleft" unicode="{" horiz-adv-x="395" 
d="M10 311v4c64 2 114 39 114 146c0 43 -15 85 -15 137c0 99 78 151 215 151c24 0 40 -2 56 -5v-2c-79 0 -95 -54 -95 -125c0 -66 19 -116 19 -162c0 -108 -156 -138 -217 -142c61 -4 217 -34 217 -142c0 -46 -19 -96 -19 -162c0 -71 16 -125 95 -125v-2
c-16 -3 -32 -5 -56 -5c-137 0 -215 52 -215 151c0 52 15 94 15 137c0 107 -50 144 -114 146z" />
    <glyph glyph-name="bar" unicode="|" horiz-adv-x="213" 
d="M90 -123v872h33v-872h-33z" />
    <glyph glyph-name="braceright" unicode="}" horiz-adv-x="395" 
d="M385 315v-4c-64 -2 -114 -39 -114 -146c0 -43 15 -85 15 -137c0 -99 -78 -151 -215 -151c-24 0 -40 2 -56 5v2c79 0 95 54 95 125c0 66 -19 116 -19 162c0 108 156 138 217 142c-61 4 -217 34 -217 142c0 46 19 96 19 162c0 71 -16 125 -95 125v2c16 3 32 5 56 5
c137 0 215 -52 215 -151c0 -52 -15 -94 -15 -137c0 -107 50 -144 114 -146z" />
    <glyph glyph-name="asciitilde" unicode="~" horiz-adv-x="507" 
d="M42 238h-2c0 115 56 198 140 198s117 -44 190 -44c43 0 76 15 95 55h2c0 -115 -56 -198 -140 -198s-117 44 -190 44c-43 0 -76 -15 -95 -55z" />
    <glyph glyph-name="uni00A0" unicode="&#xa0;" horiz-adv-x="200" 
 />
    <glyph glyph-name="exclamdown" unicode="&#xa1;" horiz-adv-x="328" 
d="M164 559c67 0 117 -53 117 -118s-50 -118 -117 -118s-117 53 -117 118s50 118 117 118zM306 -148h-284l140 434h4z" />
    <glyph glyph-name="cent" unicode="&#xa2;" horiz-adv-x="551" 
d="M237 299c0 -78 21 -134 57 -168l29 360c-59 -16 -86 -95 -86 -192zM295 -114h-21l8 104c-146 3 -262 98 -262 250c0 169 126 267 304 270l7 86h21l-7 -86c95 -3 176 -41 176 -127c0 -61 -43 -91 -85 -91c-45 0 -73 26 -83 58c6 -3 14 -4 18 -4c32 0 45 31 45 71
c0 42 -22 77 -70 77h-2l-31 -379c24 -15 53 -23 84 -23c45 0 96 19 127 70l7 -4c-32 -101 -121 -163 -228 -168z" />
    <glyph glyph-name="sterling" unicode="&#xa3;" horiz-adv-x="674" 
d="M505 -26c-98 0 -161 52 -226 98c-48 -52 -110 -82 -179 -82c-59 0 -100 35 -100 86c0 53 41 91 101 91c25 0 63 -7 106 -15c-2 71 -25 128 -46 184h-100v25h91c-14 40 -25 81 -25 128c0 148 142 221 316 221c102 0 194 -37 194 -132c0 -61 -48 -96 -102 -96
c-45 0 -82 20 -102 51c43 0 74 29 74 82c0 45 -19 77 -64 77c-33 0 -57 -27 -57 -66v-233c0 -11 0 -22 -1 -32h113v-25h-114c-8 -81 -30 -151 -63 -207c43 -8 84 -14 119 -14c97 0 133 38 133 94c0 13 -3 33 -14 51c66 -27 105 -75 105 -142c0 -101 -79 -144 -159 -144z
M92 17c56 0 104 38 113 101c-31 16 -65 26 -104 26c-49 0 -75 -28 -75 -68c0 -38 30 -59 66 -59z" />
    <glyph glyph-name="yen" unicode="&#xa5;" horiz-adv-x="707" 
d="M519 2v-2h-331v2c41 34 51 50 51 116v120h-162v25h162v34l-20 39h-142v25h129l-115 219c-29 56 -53 85 -91 118v2h365v-2c-28 -24 -37 -39 -37 -61c0 -16 5 -33 13 -48l117 -248l125 240c8 15 13 32 13 49c-1 25 -14 51 -51 68v2h162v-2c-40 -32 -62 -62 -91 -118
l-115 -219h128v-25h-141l-20 -39v-34h161v-25h-161v-120c0 -66 10 -82 51 -116z" />
    <glyph glyph-name="section" unicode="&#xa7;" horiz-adv-x="580" 
d="M181 302l170 -146c33 -28 72 -60 99 -98c5 11 7 22 7 35c0 35 -17 55 -58 90l-170 146c-33 28 -72 60 -99 98c-5 -11 -7 -22 -7 -35c0 -35 17 -55 58 -90zM283 -225c-105 0 -182 39 -182 101c0 46 31 73 75 73c37 0 65 -17 75 -29c-22 -4 -33 -26 -33 -58
c0 -48 28 -71 65 -71c42 0 65 29 65 63c0 55 -28 70 -106 138l-86 75c-81 70 -133 118 -133 199c0 78 55 143 100 173c-14 21 -24 49 -24 93c0 104 93 178 198 178s182 -39 182 -101c0 -46 -31 -73 -75 -73c-37 0 -65 17 -75 29c22 4 33 26 33 58c0 48 -28 71 -65 71
c-42 0 -65 -29 -65 -63c0 -55 28 -70 106 -138l86 -75c81 -70 133 -118 133 -199c0 -78 -55 -143 -100 -173c14 -21 24 -49 24 -93c0 -104 -93 -178 -198 -178z" />
    <glyph glyph-name="dieresis" unicode="&#xa8;" 
d="M135 539c-57 0 -101 47 -101 103c0 57 44 106 101 106c58 0 104 -49 104 -106c0 -56 -46 -103 -104 -103zM363 539c-57 0 -104 47 -104 103c0 57 47 106 104 106s103 -49 103 -106c0 -56 -46 -103 -103 -103z" />
    <glyph glyph-name="copyright" unicode="&#xa9;" horiz-adv-x="810" 
d="M765 350c0 -209 -161 -360 -360 -360s-360 151 -360 360s161 360 360 360s360 -151 360 -360zM745 350c0 197 -152 340 -340 340s-340 -143 -340 -340s152 -340 340 -340s340 143 340 340zM445 553c-57 0 -84 -76 -84 -170c0 -115 61 -169 125 -169c46 0 84 11 110 61
l3 -2c-23 -83 -87 -146 -181 -146c-130 0 -224 85 -224 221s102 225 229 225c64 0 96 -22 119 -22c15 0 29 8 42 22l4 -161h-4c-34 75 -80 141 -139 141z" />
    <glyph glyph-name="ordfeminine" unicode="&#xaa;" horiz-adv-x="441" 
d="M431 394v-4c-21 -20 -59 -33 -94 -33c-65 0 -96 24 -104 61c-1 3 -1 9 -1 10c-13 -45 -50 -69 -107 -69c-53 0 -103 27 -103 86c0 78 74 92 156 107l52 9v80c0 26 -8 53 -37 53c-22 0 -37 -21 -37 -47c0 -30 11 -43 33 -43c5 0 10 1 15 2c-18 -29 -50 -45 -90 -45
s-74 24 -74 61c0 57 65 88 158 88c123 0 184 -34 184 -121c0 -31 -1 -68 -1 -120c0 -49 1 -76 37 -76c3 0 8 0 13 1zM230 547l-19 -4c-32 -7 -42 -37 -42 -76c0 -27 8 -50 30 -50c25 0 31 26 31 52v78zM62 276v24h314v-24h-314z" />
    <glyph glyph-name="guillemotleft" unicode="&#xab;" horiz-adv-x="545" 
d="M20 242v4c84 41 197 123 273 215h4c-23 -90 -55 -167 -89 -217c34 -50 66 -127 89 -217h-4c-76 92 -189 174 -273 215zM238 242v4c84 41 197 123 273 215h4c-23 -90 -55 -167 -89 -217c34 -50 66 -127 89 -217h-4c-76 92 -189 174 -273 215z" />
    <glyph glyph-name="registered" unicode="&#xae;" horiz-adv-x="481" 
d="M436 514c0 -113 -87 -195 -195 -195c-109 0 -196 82 -196 195c0 114 87 196 196 196c108 0 195 -82 195 -196zM416 514c0 104 -77 177 -175 177s-176 -73 -176 -177c0 -103 78 -176 176 -176s175 73 175 176zM216 616v-97h8c28 0 48 12 48 47c0 33 -19 50 -48 50h-8z
M126 627h131c47 0 89 -17 89 -60c0 -39 -42 -55 -79 -55c34 -2 55 -17 63 -42l9 -26c8 -23 12 -28 23 -36v-4h-81c-7 8 -13 20 -17 35l-11 35c-6 20 -13 35 -32 35h-5v-65c0 -21 1 -28 16 -36v-4h-106v4c15 8 16 15 16 36v143c0 21 -1 28 -16 36v4z" />
    <glyph glyph-name="macron" unicode="&#xaf;" 
d="M424 595h-328v39h328v-39z" />
    <glyph glyph-name="degree" unicode="&#xb0;" horiz-adv-x="288" 
d="M253 600c0 -61 -48 -110 -109 -110s-109 49 -109 110s48 110 109 110s109 -49 109 -110zM223 600c0 44 -35 82 -79 82s-79 -38 -79 -82s35 -82 79 -82s79 38 79 82z" />
    <glyph glyph-name="plusminus" unicode="&#xb1;" horiz-adv-x="479" 
d="M435 359h-180v-136h-32v136h-179v32h179v135h32v-135h180v-32zM44 128v31h391v-31h-391z" />
    <glyph glyph-name="twosuperior" unicode="&#xb2;" horiz-adv-x="290" 
d="M127 689c-23 0 -38 -16 -38 -42c0 -31 17 -44 32 -44c7 0 12 2 18 8h4c-10 -32 -35 -44 -62 -44c-33 0 -58 22 -58 59c0 52 48 78 104 78c70 0 134 -20 134 -90c0 -66 -69 -103 -161 -124h84c45 0 58 6 77 32h4l-10 -112h-240v4c115 125 144 159 144 230
c0 25 -10 45 -32 45z" />
    <glyph glyph-name="threesuperior" unicode="&#xb3;" horiz-adv-x="296" 
d="M138 421c19 0 28 27 28 67c0 46 -10 72 -40 72v8c26 2 35 28 35 68c0 35 -6 53 -23 53c-15 0 -28 -14 -28 -43c0 -24 7 -42 21 -42c3 0 5 0 8 2l3 -2c-6 -9 -20 -20 -49 -20c-35 0 -58 22 -58 52c0 49 50 68 103 68c65 0 126 -23 126 -73c0 -41 -38 -61 -83 -64
c53 -4 93 -26 93 -78c0 -56 -61 -83 -136 -83c-63 0 -118 23 -118 75c0 37 28 57 65 57c32 0 47 -11 54 -21l-3 -2c-2 2 -6 3 -8 3c-16 0 -23 -19 -23 -46c0 -30 14 -51 33 -51z" />
    <glyph glyph-name="acute" unicode="&#xb4;" 
d="M155 749h213c-40 -91 -121 -163 -240 -213h-6c28 53 33 140 33 213z" />
    <glyph glyph-name="paragraph" unicode="&#xb6;" horiz-adv-x="515" 
d="M443 594v-644c0 -100 -63 -185 -168 -185c-74 0 -156 35 -156 117c0 50 40 80 78 80s62 -20 70 -47h-1c-7 5 -15 8 -25 8c-21 0 -40 -18 -40 -50c0 -46 30 -77 87 -77c21 0 41 6 58 15v441c-158 0 -295 87 -295 224s137 224 295 224h157v-2c-47 -26 -60 -38 -60 -104z
M375 677v-842c24 28 39 68 39 115v727h-39z" />
    <glyph glyph-name="periodcentered" unicode="&#xb7;" horiz-adv-x="314" 
d="M274 288c0 -65 -50 -118 -117 -118s-117 53 -117 118s50 118 117 118s117 -53 117 -118z" />
    <glyph glyph-name="cedilla" unicode="&#xb8;" 
d="M129 -132l7 6c13 -27 31 -49 65 -49c26 0 43 20 43 48c0 40 -28 54 -69 56l58 75h19l-37 -47c106 6 164 -27 164 -92c0 -58 -57 -89 -116 -89c-76 0 -124 48 -134 92z" />
    <glyph glyph-name="onesuperior" unicode="&#xb9;" horiz-adv-x="219" 
d="M53 664c0 18 -9 20 -43 31v5h154v-254c0 -18 9 -20 43 -31v-5h-197v5c34 11 43 13 43 31v218z" />
    <glyph glyph-name="ordmasculine" unicode="&#xba;" horiz-adv-x="440" 
d="M220 356c-105 0 -198 67 -198 177s93 177 198 177c106 0 198 -67 198 -177s-92 -177 -198 -177zM220 372c32 0 36 44 36 161s-4 161 -36 161c-31 0 -35 -44 -35 -161s4 -161 35 -161zM64 276v24h314v-24h-314z" />
    <glyph glyph-name="guillemotright" unicode="&#xbb;" horiz-adv-x="545" 
d="M307 246v-4c-84 -41 -197 -123 -273 -215h-4c23 90 55 167 89 217c-34 50 -66 127 -89 217h4c76 -92 189 -174 273 -215zM525 246v-4c-84 -41 -197 -123 -273 -215h-4c23 90 55 167 89 217c-34 50 -66 127 -89 217h4c76 -92 189 -174 273 -215z" />
    <glyph glyph-name="onequarter" unicode="&#xbc;" horiz-adv-x="441" 
d="M149 664c0 18 -9 20 -43 31v5h154v-254c0 -18 9 -20 43 -31v-5h-197v5c34 11 43 13 43 31v218zM20 358h365v-16h-365v16zM179 98v143l-94 -143h94zM179 51v30h-123v4l135 204h98v-191h14c28 0 27 4 42 23h4v-63h-4c-15 19 -14 23 -42 23h-14v-30c0 -27 5 -32 22 -47v-4
h-154v4c17 15 22 20 22 47z" />
    <glyph glyph-name="onehalf" unicode="&#xbd;" horiz-adv-x="405" 
d="M149 664c0 18 -9 20 -43 31v5h154v-254c0 -18 9 -20 43 -31v-5h-197v5c34 11 43 13 43 31v218zM20 358h365v-16h-365v16zM188 279c-23 0 -38 -16 -38 -42c0 -31 17 -44 32 -44c7 0 12 2 18 8h4c-10 -32 -35 -44 -62 -44c-33 0 -58 22 -58 59c0 52 48 78 104 78
c70 0 134 -20 134 -90c0 -66 -69 -103 -161 -124h84c45 0 58 6 77 32h4l-10 -112h-240v4c115 125 144 159 144 230c0 25 -10 45 -32 45z" />
    <glyph glyph-name="threequarters" unicode="&#xbe;" horiz-adv-x="441" 
d="M199 421c19 0 28 27 28 67c0 46 -10 72 -40 72v8c26 2 35 28 35 68c0 35 -6 53 -23 53c-15 0 -28 -14 -28 -43c0 -24 7 -42 21 -42c3 0 5 0 8 2l3 -2c-6 -9 -20 -20 -49 -20c-35 0 -58 22 -58 52c0 49 50 68 103 68c65 0 126 -23 126 -73c0 -41 -38 -61 -83 -64
c53 -4 93 -26 93 -78c0 -56 -61 -83 -136 -83c-63 0 -118 23 -118 75c0 37 28 57 65 57c32 0 47 -11 54 -21l-3 -2c-2 2 -6 3 -8 3c-16 0 -23 -19 -23 -46c0 -30 14 -51 33 -51zM20 358h365v-16h-365v16zM179 98v143l-94 -143h94zM179 51v30h-123v4l135 204h98v-191h14
c28 0 27 4 42 23h4v-63h-4c-15 19 -14 23 -42 23h-14v-30c0 -27 5 -32 22 -47v-4h-154v4c17 15 22 20 22 47z" />
    <glyph glyph-name="questiondown" unicode="&#xbf;" horiz-adv-x="589" 
d="M305 323c-67 0 -117 53 -117 118s50 118 117 118s117 -53 117 -118s-50 -118 -117 -118zM317 -141c58 0 103 40 103 94c0 49 -26 83 -73 83c-5 0 -14 -1 -21 -4l-1 2c13 42 54 76 116 76c65 0 123 -43 123 -115c0 -99 -110 -153 -247 -153c-177 0 -292 75 -292 204
c0 125 127 214 269 228v21h20v-192c-73 -30 -108 -72 -108 -142c0 -58 38 -102 111 -102z" />
    <glyph glyph-name="Agrave" unicode="&#xc0;" horiz-adv-x="770" 
d="M447 939c0 -73 5 -160 33 -213h-6c-119 50 -200 122 -240 213h213zM273 422l-94 -200h192zM183 2v-2h-183v2c36 26 64 54 93 114l288 594h5l303 -598c30 -60 48 -84 81 -110v-2h-373v2c29 19 40 35 40 58c0 20 -5 35 -14 55l-37 76h-221l-30 -64c-7 -16 -11 -31 -11 -46
c0 -32 18 -60 59 -79z" />
    <glyph glyph-name="Aacute" unicode="&#xc1;" horiz-adv-x="770" 
d="M311 939h213c-40 -91 -121 -163 -240 -213h-6c28 53 33 140 33 213zM273 422l-94 -200h192zM183 2v-2h-183v2c36 26 64 54 93 114l288 594h5l303 -598c30 -60 48 -84 81 -110v-2h-373v2c29 19 40 35 40 58c0 20 -5 35 -14 55l-37 76h-221l-30 -64c-7 -16 -11 -31 -11 -46
c0 -32 18 -60 59 -79z" />
    <glyph glyph-name="Acircumflex" unicode="&#xc2;" horiz-adv-x="770" 
d="M566 720c-75 16 -141 46 -193 79c-52 -33 -118 -63 -193 -79h-12c76 75 170 188 203 257h4c33 -69 127 -182 203 -257h-12zM273 422l-94 -200h192zM183 2v-2h-183v2c36 26 64 54 93 114l288 594h5l303 -598c30 -60 48 -84 81 -110v-2h-373v2c29 19 40 35 40 58
c0 20 -5 35 -14 55l-37 76h-221l-30 -64c-7 -16 -11 -31 -11 -46c0 -32 18 -60 59 -79z" />
    <glyph glyph-name="Atilde" unicode="&#xc3;" horiz-adv-x="770" 
d="M587 940c0 -115 -52 -191 -127 -191c-76 0 -107 44 -172 44c-39 0 -69 -15 -86 -55h-3c0 115 52 191 127 191c76 0 107 -44 172 -44c39 0 69 15 86 55h3zM273 422l-94 -200h192zM183 2v-2h-183v2c36 26 64 54 93 114l288 594h5l303 -598c30 -60 48 -84 81 -110v-2h-373v2
c29 19 40 35 40 58c0 20 -5 35 -14 55l-37 76h-221l-30 -64c-7 -16 -11 -31 -11 -46c0 -32 18 -60 59 -79z" />
    <glyph glyph-name="Adieresis" unicode="&#xc4;" horiz-adv-x="770" 
d="M258 732c-57 0 -101 47 -101 103c0 57 44 106 101 106c58 0 104 -49 104 -106c0 -56 -46 -103 -104 -103zM486 732c-57 0 -104 47 -104 103c0 57 47 106 104 106s103 -49 103 -106c0 -56 -46 -103 -103 -103zM273 422l-94 -200h192zM183 2v-2h-183v2c36 26 64 54 93 114
l288 594h5l303 -598c30 -60 48 -84 81 -110v-2h-373v2c29 19 40 35 40 58c0 20 -5 35 -14 55l-37 76h-221l-30 -64c-7 -16 -11 -31 -11 -46c0 -32 18 -60 59 -79z" />
    <glyph glyph-name="Aring" unicode="&#xc5;" horiz-adv-x="770" 
d="M373 951c62 0 115 -52 115 -114c0 -63 -53 -114 -115 -114s-115 51 -115 114c0 62 53 114 115 114zM373 757c43 0 81 36 81 80c0 43 -38 80 -81 80s-80 -37 -80 -80c0 -44 37 -80 80 -80zM273 422l-94 -200h192zM183 2v-2h-183v2c36 26 64 54 93 114l288 594h5l303 -598
c30 -60 48 -84 81 -110v-2h-373v2c29 19 40 35 40 58c0 20 -5 35 -14 55l-37 76h-221l-30 -64c-7 -16 -11 -31 -11 -46c0 -32 18 -60 59 -79z" />
    <glyph glyph-name="AE" unicode="&#xc6;" horiz-adv-x="1096" 
d="M491 670l-252 -388h252v388zM176 2v-2h-176v2c33 26 53 52 89 108l324 499c7 11 10 21 10 31c0 22 -19 40 -51 58v2h574c42 0 66 3 82 10l34 -206h-2c-61 103 -109 169 -242 169h-85v-293h64c81 0 118 23 148 116h2v-262h-2c-30 92 -67 116 -148 116h-64v-323h98
c144 0 191 91 251 188h2l-32 -215h-615v2c43 34 54 50 54 116v133h-272l-75 -115c-12 -18 -19 -39 -19 -60c0 -31 14 -60 51 -74z" />
    <glyph glyph-name="Ccedilla" unicode="&#xc7;" horiz-adv-x="687" 
d="M370 -224c-76 0 -124 48 -134 92l7 6c13 -27 31 -49 65 -49c26 0 43 20 43 48c0 40 -28 54 -69 56l48 62c-180 16 -309 148 -309 344c0 226 175 375 388 375c97 0 142 -28 176 -28c25 0 40 8 66 28l6 -247h-2c-54 131 -124 225 -217 225c-105 0 -162 -133 -162 -285
c0 -186 99 -289 226 -289c66 0 127 19 169 99l5 -3c-39 -136 -149 -220 -311 -220h-17l-26 -33c106 6 164 -27 164 -92c0 -58 -57 -89 -116 -89z" />
    <glyph glyph-name="Egrave" unicode="&#xc8;" horiz-adv-x="672" 
d="M420 939c0 -73 5 -160 33 -213h-6c-119 50 -200 122 -240 213h213zM13 700h509c42 0 66 3 82 10l34 -206h-2c-61 103 -109 169 -242 169h-85v-293h64c81 0 118 23 148 116h2v-262h-2c-30 92 -67 116 -148 116h-64v-323h98c144 0 191 91 251 188h2l-32 -215h-615v2
c43 34 54 50 54 116v464c0 66 -11 82 -54 116v2z" />
    <glyph glyph-name="Eacute" unicode="&#xc9;" horiz-adv-x="672" 
d="M284 939h213c-40 -91 -121 -163 -240 -213h-6c28 53 33 140 33 213zM13 700h509c42 0 66 3 82 10l34 -206h-2c-61 103 -109 169 -242 169h-85v-293h64c81 0 118 23 148 116h2v-262h-2c-30 92 -67 116 -148 116h-64v-323h98c144 0 191 91 251 188h2l-32 -215h-615v2
c43 34 54 50 54 116v464c0 66 -11 82 -54 116v2z" />
    <glyph glyph-name="Ecircumflex" unicode="&#xca;" horiz-adv-x="672" 
d="M539 720c-75 16 -141 46 -193 79c-52 -33 -118 -63 -193 -79h-12c76 75 170 188 203 257h4c33 -69 127 -182 203 -257h-12zM13 700h509c42 0 66 3 82 10l34 -206h-2c-61 103 -109 169 -242 169h-85v-293h64c81 0 118 23 148 116h2v-262h-2c-30 92 -67 116 -148 116h-64
v-323h98c144 0 191 91 251 188h2l-32 -215h-615v2c43 34 54 50 54 116v464c0 66 -11 82 -54 116v2z" />
    <glyph glyph-name="Edieresis" unicode="&#xcb;" horiz-adv-x="672" 
d="M231 732c-57 0 -101 47 -101 103c0 57 44 106 101 106c58 0 104 -49 104 -106c0 -56 -46 -103 -104 -103zM459 732c-57 0 -104 47 -104 103c0 57 47 106 104 106s103 -49 103 -106c0 -56 -46 -103 -103 -103zM13 700h509c42 0 66 3 82 10l34 -206h-2
c-61 103 -109 169 -242 169h-85v-293h64c81 0 118 23 148 116h2v-262h-2c-30 92 -67 116 -148 116h-64v-323h98c144 0 191 91 251 188h2l-32 -215h-615v2c43 34 54 50 54 116v464c0 66 -11 82 -54 116v2z" />
    <glyph glyph-name="Igrave" unicode="&#xcc;" horiz-adv-x="376" 
d="M262 939c0 -73 5 -160 33 -213h-6c-119 50 -200 122 -240 213h213zM309 118c0 -66 11 -82 54 -116v-2h-350v2c43 34 54 50 54 116v464c0 66 -11 82 -54 116v2h350v-2c-43 -34 -54 -50 -54 -116v-464z" />
    <glyph glyph-name="Iacute" unicode="&#xcd;" horiz-adv-x="376" 
d="M126 939h213c-40 -91 -121 -163 -240 -213h-6c28 53 33 140 33 213zM309 118c0 -66 11 -82 54 -116v-2h-350v2c43 34 54 50 54 116v464c0 66 -11 82 -54 116v2h350v-2c-43 -34 -54 -50 -54 -116v-464z" />
    <glyph glyph-name="Icircumflex" unicode="&#xce;" horiz-adv-x="376" 
d="M381 720c-75 16 -141 46 -193 79c-52 -33 -118 -63 -193 -79h-12c76 75 170 188 203 257h4c33 -69 127 -182 203 -257h-12zM309 118c0 -66 11 -82 54 -116v-2h-350v2c43 34 54 50 54 116v464c0 66 -11 82 -54 116v2h350v-2c-43 -34 -54 -50 -54 -116v-464z" />
    <glyph glyph-name="Idieresis" unicode="&#xcf;" horiz-adv-x="376" 
d="M73 732c-57 0 -101 47 -101 103c0 57 44 106 101 106c58 0 104 -49 104 -106c0 -56 -46 -103 -104 -103zM301 732c-57 0 -104 47 -104 103c0 57 47 106 104 106s103 -49 103 -106c0 -56 -46 -103 -103 -103zM309 118c0 -66 11 -82 54 -116v-2h-350v2c43 34 54 50 54 116
v464c0 66 -11 82 -54 116v2h350v-2c-43 -34 -54 -50 -54 -116v-464z" />
    <glyph glyph-name="Eth" unicode="&#xd0;" horiz-adv-x="797" 
d="M343 0h-330v2c43 34 54 50 54 116v231h-54v33h54v200c0 66 -11 82 -54 116v2h330c252 0 433 -110 433 -350s-181 -350 -433 -350zM309 25h25c136 0 185 130 185 325s-49 325 -185 325h-25v-293h91v-33h-91v-324z" />
    <glyph glyph-name="Ntilde" unicode="&#xd1;" horiz-adv-x="719" 
d="M566 940c0 -115 -52 -191 -127 -191c-76 0 -107 44 -172 44c-39 0 -69 -15 -86 -55h-3c0 115 52 191 127 191c76 0 107 -44 172 -44c39 0 69 15 86 55h3zM727 698c-54 -34 -74 -79 -74 -153v-545h-68l-484 591v-425c0 -85 22 -134 87 -164v-2h-195v2c54 34 74 79 74 153
v427c0 66 -11 82 -54 116v2h316l290 -348v182c0 85 -22 134 -87 164v2h195v-2z" />
    <glyph glyph-name="Ograve" unicode="&#xd2;" horiz-adv-x="778" 
d="M463 939c0 -73 5 -160 33 -213h-6c-119 50 -200 122 -240 213h213zM757 350c0 -210 -150 -360 -368 -360s-368 150 -368 360s150 360 368 360s368 -150 368 -360zM497 350c0 235 -16 342 -108 342s-108 -107 -108 -342s16 -342 108 -342s108 107 108 342z" />
    <glyph glyph-name="Oacute" unicode="&#xd3;" horiz-adv-x="778" 
d="M327 939h213c-40 -91 -121 -163 -240 -213h-6c28 53 33 140 33 213zM757 350c0 -210 -150 -360 -368 -360s-368 150 -368 360s150 360 368 360s368 -150 368 -360zM497 350c0 235 -16 342 -108 342s-108 -107 -108 -342s16 -342 108 -342s108 107 108 342z" />
    <glyph glyph-name="Ocircumflex" unicode="&#xd4;" horiz-adv-x="778" 
d="M582 720c-75 16 -141 46 -193 79c-52 -33 -118 -63 -193 -79h-12c76 75 170 188 203 257h4c33 -69 127 -182 203 -257h-12zM757 350c0 -210 -150 -360 -368 -360s-368 150 -368 360s150 360 368 360s368 -150 368 -360zM497 350c0 235 -16 342 -108 342
s-108 -107 -108 -342s16 -342 108 -342s108 107 108 342z" />
    <glyph glyph-name="Otilde" unicode="&#xd5;" horiz-adv-x="778" 
d="M593 940c0 -115 -52 -191 -127 -191c-76 0 -107 44 -172 44c-39 0 -69 -15 -86 -55h-3c0 115 52 191 127 191c76 0 107 -44 172 -44c39 0 69 15 86 55h3zM757 350c0 -210 -150 -360 -368 -360s-368 150 -368 360s150 360 368 360s368 -150 368 -360zM497 350
c0 235 -16 342 -108 342s-108 -107 -108 -342s16 -342 108 -342s108 107 108 342z" />
    <glyph glyph-name="Odieresis" unicode="&#xd6;" horiz-adv-x="778" 
d="M274 732c-57 0 -101 47 -101 103c0 57 44 106 101 106c58 0 104 -49 104 -106c0 -56 -46 -103 -104 -103zM502 732c-57 0 -104 47 -104 103c0 57 47 106 104 106s103 -49 103 -106c0 -56 -46 -103 -103 -103zM757 350c0 -210 -150 -360 -368 -360s-368 150 -368 360
s150 360 368 360s368 -150 368 -360zM497 350c0 235 -16 342 -108 342s-108 -107 -108 -342s16 -342 108 -342s108 107 108 342z" />
    <glyph glyph-name="multiply" unicode="&#xd7;" horiz-adv-x="398" 
d="M177 320l-133 134l23 22l132 -134l132 134l23 -22l-133 -134l133 -134l-23 -22l-132 134l-132 -134l-23 22z" />
    <glyph glyph-name="Oslash" unicode="&#xd8;" horiz-adv-x="778" 
d="M281 350c0 -33 0 -64 1 -91l212 225c-7 142 -33 208 -105 208c-92 0 -108 -107 -108 -342zM389 8c92 0 108 107 108 342c0 34 0 65 -1 94l-212 -225c7 -144 32 -211 105 -211zM389 -10c-97 0 -181 30 -244 82l-80 -85l-22 18l81 86c-65 63 -103 154 -103 259
c0 210 150 360 368 360c97 0 180 -29 243 -81l72 77l22 -18l-73 -77c66 -64 104 -155 104 -261c0 -210 -150 -360 -368 -360z" />
    <glyph glyph-name="Ugrave" unicode="&#xd9;" horiz-adv-x="725" 
d="M479 939c0 -73 5 -160 33 -213h-6c-119 50 -200 122 -240 213h213zM664 545v-272c0 -191 -108 -283 -287 -283c-177 0 -316 92 -316 284v308c0 66 -11 82 -54 116v2h350v-2c-43 -34 -54 -50 -54 -116v-309c0 -135 55 -212 159 -212c96 0 168 76 168 213v260
c0 85 -22 134 -87 164v2h195v-2c-54 -34 -74 -79 -74 -153z" />
    <glyph glyph-name="Uacute" unicode="&#xda;" horiz-adv-x="725" 
d="M343 939h213c-40 -91 -121 -163 -240 -213h-6c28 53 33 140 33 213zM664 545v-272c0 -191 -108 -283 -287 -283c-177 0 -316 92 -316 284v308c0 66 -11 82 -54 116v2h350v-2c-43 -34 -54 -50 -54 -116v-309c0 -135 55 -212 159 -212c96 0 168 76 168 213v260
c0 85 -22 134 -87 164v2h195v-2c-54 -34 -74 -79 -74 -153z" />
    <glyph glyph-name="Ucircumflex" unicode="&#xdb;" horiz-adv-x="725" 
d="M598 720c-75 16 -141 46 -193 79c-52 -33 -118 -63 -193 -79h-12c76 75 170 188 203 257h4c33 -69 127 -182 203 -257h-12zM664 545v-272c0 -191 -108 -283 -287 -283c-177 0 -316 92 -316 284v308c0 66 -11 82 -54 116v2h350v-2c-43 -34 -54 -50 -54 -116v-309
c0 -135 55 -212 159 -212c96 0 168 76 168 213v260c0 85 -22 134 -87 164v2h195v-2c-54 -34 -74 -79 -74 -153z" />
    <glyph glyph-name="Udieresis" unicode="&#xdc;" horiz-adv-x="725" 
d="M290 732c-57 0 -101 47 -101 103c0 57 44 106 101 106c58 0 104 -49 104 -106c0 -56 -46 -103 -104 -103zM518 732c-57 0 -104 47 -104 103c0 57 47 106 104 106s103 -49 103 -106c0 -56 -46 -103 -103 -103zM664 545v-272c0 -191 -108 -283 -287 -283
c-177 0 -316 92 -316 284v308c0 66 -11 82 -54 116v2h350v-2c-43 -34 -54 -50 -54 -116v-309c0 -135 55 -212 159 -212c96 0 168 76 168 213v260c0 85 -22 134 -87 164v2h195v-2c-54 -34 -74 -79 -74 -153z" />
    <glyph glyph-name="Yacute" unicode="&#xdd;" horiz-adv-x="737" 
d="M333 939h213c-40 -91 -121 -163 -240 -213h-6c28 53 33 140 33 213zM468 341l138 234c9 15 15 31 15 47c0 28 -15 55 -55 76v2h181v-2c-43 -33 -69 -64 -101 -118l-168 -283v-179c0 -66 11 -82 54 -116v-2h-337v2c43 34 54 50 54 116v179l-168 283c-32 54 -53 85 -91 118
v2h365v-2c-28 -24 -37 -39 -37 -61c0 -16 5 -31 14 -46z" />
    <glyph glyph-name="Thorn" unicode="&#xde;" horiz-adv-x="708" 
d="M309 582v-19h110c176 0 279 -76 279 -205s-103 -205 -277 -205h-112v-35c0 -66 17 -82 74 -116v-2h-370v2c43 34 54 50 54 116v464c0 66 -11 82 -54 116v2h350v-2c-43 -34 -54 -50 -54 -116zM309 180h18c94 0 144 74 144 178s-50 178 -144 178h-18v-356z" />
    <glyph glyph-name="germandbls" unicode="&#xdf;" horiz-adv-x="768" 
d="M284 584v-584h-269v2c41 32 41 41 41 107v366h-51v14l51 22v8c0 152 107 241 336 241c151 0 232 -56 232 -132c0 -66 -55 -101 -138 -124c-40 -11 -59 -23 -59 -46c0 -37 48 -46 164 -98c118 -53 160 -110 160 -194c0 -104 -81 -176 -215 -176c-69 0 -88 19 -127 19
c-28 0 -40 -11 -55 -20l-11 174h2c62 -118 136 -157 191 -157c40 0 73 17 73 57s-26 62 -94 86c-138 48 -179 103 -179 185c0 73 44 122 84 156c53 46 91 81 91 142c0 63 -43 112 -119 112c-73 0 -108 -61 -108 -160z" />
    <glyph glyph-name="agrave" unicode="&#xe0;" horiz-adv-x="591" 
d="M337 749c0 -73 5 -160 33 -213h-6c-119 50 -200 122 -240 213h213zM616 40v-2c-30 -29 -86 -48 -138 -48c-96 0 -142 35 -153 90c-1 4 -2 13 -2 14c-19 -66 -73 -101 -158 -101c-78 0 -151 40 -151 126c0 116 109 136 230 158l76 14v119c0 39 -11 82 -54 82
c-33 0 -55 -30 -55 -72c0 -46 17 -66 49 -66c7 0 14 1 22 3c-27 -44 -74 -66 -133 -66s-108 35 -108 90c0 83 95 129 232 129c182 0 271 -50 271 -178c0 -46 -1 -105 -1 -182c0 -71 1 -111 54 -111c5 0 12 0 19 1zM320 273l-28 -7c-46 -11 -61 -50 -61 -112
c0 -43 11 -79 43 -79c38 0 46 42 46 81v117z" />
    <glyph glyph-name="aacute" unicode="&#xe1;" horiz-adv-x="591" 
d="M233 749h213c-40 -91 -121 -163 -240 -213h-6c28 53 33 140 33 213zM616 40v-2c-30 -29 -86 -48 -138 -48c-96 0 -142 35 -153 90c-1 4 -2 13 -2 14c-19 -66 -73 -101 -158 -101c-78 0 -151 40 -151 126c0 116 109 136 230 158l76 14v119c0 39 -11 82 -54 82
c-33 0 -55 -30 -55 -72c0 -46 17 -66 49 -66c7 0 14 1 22 3c-27 -44 -74 -66 -133 -66s-108 35 -108 90c0 83 95 129 232 129c182 0 271 -50 271 -178c0 -46 -1 -105 -1 -182c0 -71 1 -111 54 -111c5 0 12 0 19 1zM320 273l-28 -7c-46 -11 -61 -50 -61 -112
c0 -43 11 -79 43 -79c38 0 46 42 46 81v117z" />
    <glyph glyph-name="acircumflex" unicode="&#xe2;" horiz-adv-x="591" 
d="M486 525c-75 16 -141 46 -193 79c-52 -33 -118 -63 -193 -79h-12c76 75 170 188 203 257h4c33 -69 127 -182 203 -257h-12zM616 40v-2c-30 -29 -86 -48 -138 -48c-96 0 -142 35 -153 90c-1 4 -2 13 -2 14c-19 -66 -73 -101 -158 -101c-78 0 -151 40 -151 126
c0 116 109 136 230 158l76 14v119c0 39 -11 82 -54 82c-33 0 -55 -30 -55 -72c0 -46 17 -66 49 -66c7 0 14 1 22 3c-27 -44 -74 -66 -133 -66s-108 35 -108 90c0 83 95 129 232 129c182 0 271 -50 271 -178c0 -46 -1 -105 -1 -182c0 -71 1 -111 54 -111c5 0 12 0 19 1z
M320 273l-28 -7c-46 -11 -61 -50 -61 -112c0 -43 11 -79 43 -79c38 0 46 42 46 81v117z" />
    <glyph glyph-name="atilde" unicode="&#xe3;" horiz-adv-x="591" 
d="M495 750c0 -115 -52 -191 -127 -191c-76 0 -107 44 -172 44c-39 0 -69 -15 -86 -55h-3c0 115 52 191 127 191c76 0 107 -44 172 -44c39 0 69 15 86 55h3zM616 40v-2c-30 -29 -86 -48 -138 -48c-96 0 -142 35 -153 90c-1 4 -2 13 -2 14c-19 -66 -73 -101 -158 -101
c-78 0 -151 40 -151 126c0 116 109 136 230 158l76 14v119c0 39 -11 82 -54 82c-33 0 -55 -30 -55 -72c0 -46 17 -66 49 -66c7 0 14 1 22 3c-27 -44 -74 -66 -133 -66s-108 35 -108 90c0 83 95 129 232 129c182 0 271 -50 271 -178c0 -46 -1 -105 -1 -182
c0 -71 1 -111 54 -111c5 0 12 0 19 1zM320 273l-28 -7c-46 -11 -61 -50 -61 -112c0 -43 11 -79 43 -79c38 0 46 42 46 81v117z" />
    <glyph glyph-name="adieresis" unicode="&#xe4;" horiz-adv-x="591" 
d="M178 539c-57 0 -101 47 -101 103c0 57 44 106 101 106c58 0 104 -49 104 -106c0 -56 -46 -103 -104 -103zM406 539c-57 0 -104 47 -104 103c0 57 47 106 104 106s103 -49 103 -106c0 -56 -46 -103 -103 -103zM616 40v-2c-30 -29 -86 -48 -138 -48c-96 0 -142 35 -153 90
c-1 4 -2 13 -2 14c-19 -66 -73 -101 -158 -101c-78 0 -151 40 -151 126c0 116 109 136 230 158l76 14v119c0 39 -11 82 -54 82c-33 0 -55 -30 -55 -72c0 -46 17 -66 49 -66c7 0 14 1 22 3c-27 -44 -74 -66 -133 -66s-108 35 -108 90c0 83 95 129 232 129
c182 0 271 -50 271 -178c0 -46 -1 -105 -1 -182c0 -71 1 -111 54 -111c5 0 12 0 19 1zM320 273l-28 -7c-46 -11 -61 -50 -61 -112c0 -43 11 -79 43 -79c38 0 46 42 46 81v117z" />
    <glyph glyph-name="aring" unicode="&#xe5;" horiz-adv-x="591" 
d="M293 761c62 0 115 -52 115 -114c0 -63 -53 -114 -115 -114s-115 51 -115 114c0 62 53 114 115 114zM293 567c43 0 81 36 81 80c0 43 -38 80 -81 80s-80 -37 -80 -80c0 -44 37 -80 80 -80zM616 40v-2c-30 -29 -86 -48 -138 -48c-96 0 -142 35 -153 90c-1 4 -2 13 -2 14
c-19 -66 -73 -101 -158 -101c-78 0 -151 40 -151 126c0 116 109 136 230 158l76 14v119c0 39 -11 82 -54 82c-33 0 -55 -30 -55 -72c0 -46 17 -66 49 -66c7 0 14 1 22 3c-27 -44 -74 -66 -133 -66s-108 35 -108 90c0 83 95 129 232 129c182 0 271 -50 271 -178
c0 -46 -1 -105 -1 -182c0 -71 1 -111 54 -111c5 0 12 0 19 1zM320 273l-28 -7c-46 -11 -61 -50 -61 -112c0 -43 11 -79 43 -79c38 0 46 42 46 81v117z" />
    <glyph glyph-name="ae" unicode="&#xe6;" horiz-adv-x="847" 
d="M828 158c-34 -106 -131 -168 -246 -168c-100 0 -187 40 -235 115c-31 -56 -89 -112 -182 -112c-78 0 -151 40 -151 126c0 116 109 136 230 158l76 14v119c0 39 -11 82 -54 82c-33 0 -55 -30 -55 -72c0 -46 17 -66 49 -66c7 0 14 1 22 3c-27 -44 -74 -66 -133 -66
s-108 35 -108 90c0 83 95 129 232 129c73 0 121 -17 150 -54c45 32 102 54 162 54c170 0 252 -107 252 -236h-300c0 -120 64 -182 152 -182c53 0 100 19 132 70zM537 294h88c0 118 -4 200 -40 200c-41 0 -47 -82 -48 -200zM320 273l-28 -7c-46 -11 -61 -50 -61 -112
c0 -43 11 -79 43 -79c38 0 46 42 46 81v117z" />
    <glyph glyph-name="ccedilla" unicode="&#xe7;" horiz-adv-x="526" 
d="M284 -224c-76 0 -124 48 -134 92l7 6c13 -27 31 -49 65 -49c26 0 43 20 43 48c0 40 -28 54 -69 56l49 63c-132 14 -233 107 -233 248c0 171 130 270 306 270c107 0 195 -41 195 -133c0 -67 -52 -99 -105 -99c-62 0 -96 32 -101 65c6 -3 14 -4 19 -4c41 0 54 37 54 78
c0 50 -22 77 -59 77c-58 0 -75 -86 -75 -195c0 -137 54 -207 148 -207c45 0 91 19 122 70l7 -4c-33 -106 -129 -168 -242 -168c-6 0 -12 0 -19 1l-26 -34c106 6 164 -27 164 -92c0 -58 -57 -89 -116 -89z" />
    <glyph glyph-name="egrave" unicode="&#xe8;" horiz-adv-x="552" 
d="M337 749c0 -73 5 -160 33 -213h-6c-119 50 -200 122 -240 213h213zM290 510c170 0 252 -107 252 -236h-300c0 -120 64 -182 152 -182c53 0 100 19 132 70l7 -4c-34 -106 -131 -168 -246 -168c-152 0 -275 94 -275 259c0 161 126 261 278 261zM242 294h88
c0 118 -4 200 -40 200c-41 0 -47 -82 -48 -200z" />
    <glyph glyph-name="eacute" unicode="&#xe9;" horiz-adv-x="552" 
d="M233 749h213c-40 -91 -121 -163 -240 -213h-6c28 53 33 140 33 213zM290 510c170 0 252 -107 252 -236h-300c0 -120 64 -182 152 -182c53 0 100 19 132 70l7 -4c-34 -106 -131 -168 -246 -168c-152 0 -275 94 -275 259c0 161 126 261 278 261zM242 294h88
c0 118 -4 200 -40 200c-41 0 -47 -82 -48 -200z" />
    <glyph glyph-name="ecircumflex" unicode="&#xea;" horiz-adv-x="552" 
d="M486 525c-75 16 -141 46 -193 79c-52 -33 -118 -63 -193 -79h-12c76 75 170 188 203 257h4c33 -69 127 -182 203 -257h-12zM290 510c170 0 252 -107 252 -236h-300c0 -120 64 -182 152 -182c53 0 100 19 132 70l7 -4c-34 -106 -131 -168 -246 -168
c-152 0 -275 94 -275 259c0 161 126 261 278 261zM242 294h88c0 118 -4 200 -40 200c-41 0 -47 -82 -48 -200z" />
    <glyph glyph-name="edieresis" unicode="&#xeb;" horiz-adv-x="552" 
d="M178 539c-57 0 -101 47 -101 103c0 57 44 106 101 106c58 0 104 -49 104 -106c0 -56 -46 -103 -104 -103zM406 539c-57 0 -104 47 -104 103c0 57 47 106 104 106s103 -49 103 -106c0 -56 -46 -103 -103 -103zM290 510c170 0 252 -107 252 -236h-300
c0 -120 64 -182 152 -182c53 0 100 19 132 70l7 -4c-34 -106 -131 -168 -246 -168c-152 0 -275 94 -275 259c0 161 126 261 278 261zM242 294h88c0 118 -4 200 -40 200c-41 0 -47 -82 -48 -200z" />
    <glyph glyph-name="igrave" unicode="&#xec;" horiz-adv-x="336" 
d="M210 749c0 -73 5 -160 33 -213h-6c-119 50 -200 122 -240 213h213zM284 500v-391c0 -66 0 -75 41 -107v-2h-310v2c41 32 41 41 41 107v279c0 73 -2 79 -48 110v2h276z" />
    <glyph glyph-name="iacute" unicode="&#xed;" horiz-adv-x="336" 
d="M106 749h213c-40 -91 -121 -163 -240 -213h-6c28 53 33 140 33 213zM284 500v-391c0 -66 0 -75 41 -107v-2h-310v2c41 32 41 41 41 107v279c0 73 -2 79 -48 110v2h276z" />
    <glyph glyph-name="icircumflex" unicode="&#xee;" horiz-adv-x="336" 
d="M359 525c-75 16 -141 46 -193 79c-52 -33 -118 -63 -193 -79h-12c76 75 170 188 203 257h4c33 -69 127 -182 203 -257h-12zM284 500v-391c0 -66 0 -75 41 -107v-2h-310v2c41 32 41 41 41 107v279c0 73 -2 79 -48 110v2h276z" />
    <glyph glyph-name="idieresis" unicode="&#xef;" horiz-adv-x="336" 
d="M51 539c-57 0 -101 47 -101 103c0 57 44 106 101 106c58 0 104 -49 104 -106c0 -56 -46 -103 -104 -103zM279 539c-57 0 -104 47 -104 103c0 57 47 106 104 106s103 -49 103 -106c0 -56 -46 -103 -103 -103zM284 500v-391c0 -66 0 -75 41 -107v-2h-310v2
c41 32 41 41 41 107v279c0 73 -2 79 -48 110v2h276z" />
    <glyph glyph-name="eth" unicode="&#xf0;" horiz-adv-x="606" 
d="M303 -10c-155 0 -291 99 -291 260s136 260 291 260c16 0 41 -5 49 -10c-7 45 -23 85 -46 118l-155 -50l-9 28l146 47c-44 54 -103 89 -154 104l1 12c86 -10 175 -37 251 -84l117 38l9 -28l-95 -31c104 -76 177 -194 177 -366c0 -199 -136 -298 -291 -298zM303 6
c46 0 52 72 52 244s-6 244 -52 244s-52 -72 -52 -244s6 -244 52 -244z" />
    <glyph glyph-name="ntilde" unicode="&#xf1;" horiz-adv-x="664" 
d="M541 750c0 -115 -52 -191 -127 -191c-76 0 -107 44 -172 44c-39 0 -69 -15 -86 -55h-3c0 115 52 191 127 191c76 0 107 -44 172 -44c39 0 69 15 86 55h3zM8 500h276v-125c23 87 88 135 172 135c117 0 160 -86 160 -173v-228c0 -66 0 -75 41 -107v-2h-310v2
c41 32 41 41 41 107v241c0 32 -17 56 -47 56c-34 0 -57 -23 -57 -101v-196c0 -66 0 -75 41 -107v-2h-310v2c41 32 41 41 41 107v279c0 73 -2 79 -48 110v2z" />
    <glyph glyph-name="ograve" unicode="&#xf2;" horiz-adv-x="606" 
d="M347 749c0 -73 5 -160 33 -213h-6c-119 50 -200 122 -240 213h213zM303 -10c-155 0 -291 99 -291 260s136 260 291 260s291 -99 291 -260s-136 -260 -291 -260zM303 6c46 0 52 72 52 244s-6 244 -52 244s-52 -72 -52 -244s6 -244 52 -244z" />
    <glyph glyph-name="oacute" unicode="&#xf3;" horiz-adv-x="606" 
d="M243 749h213c-40 -91 -121 -163 -240 -213h-6c28 53 33 140 33 213zM303 -10c-155 0 -291 99 -291 260s136 260 291 260s291 -99 291 -260s-136 -260 -291 -260zM303 6c46 0 52 72 52 244s-6 244 -52 244s-52 -72 -52 -244s6 -244 52 -244z" />
    <glyph glyph-name="ocircumflex" unicode="&#xf4;" horiz-adv-x="606" 
d="M496 525c-75 16 -141 46 -193 79c-52 -33 -118 -63 -193 -79h-12c76 75 170 188 203 257h4c33 -69 127 -182 203 -257h-12zM303 -10c-155 0 -291 99 -291 260s136 260 291 260s291 -99 291 -260s-136 -260 -291 -260zM303 6c46 0 52 72 52 244s-6 244 -52 244
s-52 -72 -52 -244s6 -244 52 -244z" />
    <glyph glyph-name="otilde" unicode="&#xf5;" horiz-adv-x="606" 
d="M507 750c0 -115 -52 -191 -127 -191c-76 0 -107 44 -172 44c-39 0 -69 -15 -86 -55h-3c0 115 52 191 127 191c76 0 107 -44 172 -44c39 0 69 15 86 55h3zM303 -10c-155 0 -291 99 -291 260s136 260 291 260s291 -99 291 -260s-136 -260 -291 -260zM303 6
c46 0 52 72 52 244s-6 244 -52 244s-52 -72 -52 -244s6 -244 52 -244z" />
    <glyph glyph-name="odieresis" unicode="&#xf6;" horiz-adv-x="606" 
d="M188 539c-57 0 -101 47 -101 103c0 57 44 106 101 106c58 0 104 -49 104 -106c0 -56 -46 -103 -104 -103zM416 539c-57 0 -104 47 -104 103c0 57 47 106 104 106s103 -49 103 -106c0 -56 -46 -103 -103 -103zM303 -10c-155 0 -291 99 -291 260s136 260 291 260
s291 -99 291 -260s-136 -260 -291 -260zM303 6c46 0 52 72 52 244s-6 244 -52 244s-52 -72 -52 -244s6 -244 52 -244z" />
    <glyph glyph-name="divide" unicode="&#xf7;" horiz-adv-x="479" 
d="M207 487c0 18 14 32 32 32s33 -14 33 -32s-15 -33 -33 -33s-32 15 -32 33zM44 306v32h391v-32h-391zM207 157c0 19 14 33 32 33s33 -14 33 -33c0 -17 -15 -32 -33 -32s-32 15 -32 32z" />
    <glyph glyph-name="oslash" unicode="&#xf8;" horiz-adv-x="606" 
d="M303 -10c-68 0 -132 19 -182 53l-52 -53l-21 20l50 51c-53 45 -86 109 -86 189c0 161 136 260 291 260c66 0 129 -18 179 -51l51 52l21 -20l-48 -50c54 -45 88 -110 88 -191c0 -161 -136 -260 -291 -260zM251 250v-30l103 106c-2 118 -13 168 -51 168
c-46 0 -52 -72 -52 -244zM303 6c46 0 52 72 52 244v35l-103 -106c2 -121 12 -173 51 -173z" />
    <glyph glyph-name="ugrave" unicode="&#xf9;" horiz-adv-x="659" 
d="M372 749c0 -73 5 -160 33 -213h-6c-119 50 -200 122 -240 213h213zM379 196v192c0 73 -2 79 -48 110v2h276v-391c0 -66 0 -75 41 -107v-2h-269v126c-23 -87 -85 -136 -169 -136c-117 0 -161 87 -161 174v224c0 73 -2 79 -48 110v2h276v-349c0 -32 18 -57 48 -57
c34 0 54 24 54 102z" />
    <glyph glyph-name="uacute" unicode="&#xfa;" horiz-adv-x="659" 
d="M268 749h213c-40 -91 -121 -163 -240 -213h-6c28 53 33 140 33 213zM379 196v192c0 73 -2 79 -48 110v2h276v-391c0 -66 0 -75 41 -107v-2h-269v126c-23 -87 -85 -136 -169 -136c-117 0 -161 87 -161 174v224c0 73 -2 79 -48 110v2h276v-349c0 -32 18 -57 48 -57
c34 0 54 24 54 102z" />
    <glyph glyph-name="ucircumflex" unicode="&#xfb;" horiz-adv-x="659" 
d="M521 525c-75 16 -141 46 -193 79c-52 -33 -118 -63 -193 -79h-12c76 75 170 188 203 257h4c33 -69 127 -182 203 -257h-12zM379 196v192c0 73 -2 79 -48 110v2h276v-391c0 -66 0 -75 41 -107v-2h-269v126c-23 -87 -85 -136 -169 -136c-117 0 -161 87 -161 174v224
c0 73 -2 79 -48 110v2h276v-349c0 -32 18 -57 48 -57c34 0 54 24 54 102z" />
    <glyph glyph-name="udieresis" unicode="&#xfc;" horiz-adv-x="659" 
d="M213 539c-57 0 -101 47 -101 103c0 57 44 106 101 106c58 0 104 -49 104 -106c0 -56 -46 -103 -104 -103zM441 539c-57 0 -104 47 -104 103c0 57 47 106 104 106s103 -49 103 -106c0 -56 -46 -103 -103 -103zM379 196v192c0 73 -2 79 -48 110v2h276v-391
c0 -66 0 -75 41 -107v-2h-269v126c-23 -87 -85 -136 -169 -136c-117 0 -161 87 -161 174v224c0 73 -2 79 -48 110v2h276v-349c0 -32 18 -57 48 -57c34 0 54 24 54 102z" />
    <glyph glyph-name="yacute" unicode="&#xfd;" horiz-adv-x="563" 
d="M247 749h213c-40 -91 -121 -163 -240 -213h-6c28 53 33 140 33 213zM284 -80l11 25l-232 447c-30 58 -40 72 -73 106v2h324v-2c-20 -14 -27 -25 -27 -46c0 -16 5 -35 14 -53l94 -193l69 176c6 16 9 30 9 43c0 37 -24 61 -57 73v2h157v-2c-34 -30 -52 -48 -76 -108
l-204 -501c-32 -79 -74 -115 -136 -115s-110 36 -110 101c0 61 43 96 96 96c10 0 16 -1 24 -3c-14 -11 -22 -25 -22 -47c0 -33 26 -58 60 -58c37 0 62 18 79 57z" />
    <glyph glyph-name="thorn" unicode="&#xfe;" horiz-adv-x="651" 
d="M336 424c-39 0 -62 -49 -62 -112v-136c0 -80 26 -133 66 -133c46 0 60 67 60 213c0 110 -19 168 -64 168zM-12 749h286v-367c21 74 75 128 160 128c113 0 205 -101 205 -253c0 -162 -100 -267 -224 -267c-76 0 -120 34 -141 94v-190c0 -66 0 -75 41 -107v-2h-310v2
c41 32 41 41 41 107v743c0 72 -10 83 -58 110v2z" />
    <glyph glyph-name="ydieresis" unicode="&#xff;" horiz-adv-x="563" 
d="M192 539c-57 0 -101 47 -101 103c0 57 44 106 101 106c58 0 104 -49 104 -106c0 -56 -46 -103 -104 -103zM420 539c-57 0 -104 47 -104 103c0 57 47 106 104 106s103 -49 103 -106c0 -56 -46 -103 -103 -103zM284 -80l11 25l-232 447c-30 58 -40 72 -73 106v2h324v-2
c-20 -14 -27 -25 -27 -46c0 -16 5 -35 14 -53l94 -193l69 176c6 16 9 30 9 43c0 37 -24 61 -57 73v2h157v-2c-34 -30 -52 -48 -76 -108l-204 -501c-32 -79 -74 -115 -136 -115s-110 36 -110 101c0 61 43 96 96 96c10 0 16 -1 24 -3c-14 -11 -22 -25 -22 -47
c0 -33 26 -58 60 -58c37 0 62 18 79 57z" />
    <glyph glyph-name="Amacron" unicode="&#x100;" horiz-adv-x="770" 
d="M537 785h-328v39h328v-39zM273 422l-94 -200h192zM183 2v-2h-183v2c36 26 64 54 93 114l288 594h5l303 -598c30 -60 48 -84 81 -110v-2h-373v2c29 19 40 35 40 58c0 20 -5 35 -14 55l-37 76h-221l-30 -64c-7 -16 -11 -31 -11 -46c0 -32 18 -60 59 -79z" />
    <glyph glyph-name="amacron" unicode="&#x101;" horiz-adv-x="591" 
d="M457 595h-328v39h328v-39zM616 40v-2c-30 -29 -86 -48 -138 -48c-96 0 -142 35 -153 90c-1 4 -2 13 -2 14c-19 -66 -73 -101 -158 -101c-78 0 -151 40 -151 126c0 116 109 136 230 158l76 14v119c0 39 -11 82 -54 82c-33 0 -55 -30 -55 -72c0 -46 17 -66 49 -66
c7 0 14 1 22 3c-27 -44 -74 -66 -133 -66s-108 35 -108 90c0 83 95 129 232 129c182 0 271 -50 271 -178c0 -46 -1 -105 -1 -182c0 -71 1 -111 54 -111c5 0 12 0 19 1zM320 273l-28 -7c-46 -11 -61 -50 -61 -112c0 -43 11 -79 43 -79c38 0 46 42 46 81v117z" />
    <glyph glyph-name="Abreve" unicode="&#x102;" horiz-adv-x="770" 
d="M546 945c0 -132 -69 -219 -173 -219s-173 87 -173 219h4c14 -60 104 -82 169 -82s155 22 169 82h4zM273 422l-94 -200h192zM183 2v-2h-183v2c36 26 64 54 93 114l288 594h5l303 -598c30 -60 48 -84 81 -110v-2h-373v2c29 19 40 35 40 58c0 20 -5 35 -14 55l-37 76h-221
l-30 -64c-7 -16 -11 -31 -11 -46c0 -32 18 -60 59 -79z" />
    <glyph glyph-name="abreve" unicode="&#x103;" horiz-adv-x="591" 
d="M466 768c0 -132 -69 -219 -173 -219s-173 87 -173 219h4c14 -60 104 -82 169 -82s155 22 169 82h4zM616 40v-2c-30 -29 -86 -48 -138 -48c-96 0 -142 35 -153 90c-1 4 -2 13 -2 14c-19 -66 -73 -101 -158 -101c-78 0 -151 40 -151 126c0 116 109 136 230 158l76 14v119
c0 39 -11 82 -54 82c-33 0 -55 -30 -55 -72c0 -46 17 -66 49 -66c7 0 14 1 22 3c-27 -44 -74 -66 -133 -66s-108 35 -108 90c0 83 95 129 232 129c182 0 271 -50 271 -178c0 -46 -1 -105 -1 -182c0 -71 1 -111 54 -111c5 0 12 0 19 1zM320 273l-28 -7
c-46 -11 -61 -50 -61 -112c0 -43 11 -79 43 -79c38 0 46 42 46 81v117z" />
    <glyph glyph-name="Aogonek" unicode="&#x104;" horiz-adv-x="770" 
d="M506 -124c-28 -75 -74 -119 -155 -119c-65 0 -116 39 -116 95c0 74 85 112 167 154c24 12 35 33 35 54c0 20 -5 35 -14 55l-37 76h-221l-30 -64c-7 -16 -11 -31 -11 -46c0 -32 18 -60 59 -79v-2h-183v2c36 26 64 54 93 114l288 594h5l303 -598c30 -60 48 -84 81 -110v-2
h-354c-48 -38 -60 -73 -60 -101c0 -45 28 -66 61 -66c35 0 57 9 86 46zM273 422l-94 -200h192z" />
    <glyph glyph-name="aogonek" unicode="&#x105;" horiz-adv-x="591" 
d="M459 -243c-65 0 -116 39 -116 95c0 70 77 106 159 139c-8 -1 -16 -1 -24 -1c-96 0 -142 35 -153 90c-1 4 -2 13 -2 14c-19 -66 -73 -101 -158 -101c-78 0 -151 40 -151 126c0 116 109 136 230 158l76 14v119c0 39 -11 82 -54 82c-33 0 -55 -30 -55 -72
c0 -46 17 -66 49 -66c7 0 14 1 22 3c-27 -44 -74 -66 -133 -66s-108 35 -108 90c0 83 95 129 232 129c182 0 271 -50 271 -178c0 -46 -1 -105 -1 -182c0 -71 1 -111 54 -111c5 0 12 0 19 1v-2c-56 -38 -152 -57 -152 -139c0 -45 28 -66 61 -66c35 0 57 9 86 46l3 -3
c-28 -75 -74 -119 -155 -119zM320 273l-28 -7c-46 -11 -61 -50 -61 -112c0 -43 11 -79 43 -79c38 0 46 42 46 81v117z" />
    <glyph glyph-name="Cacute" unicode="&#x106;" horiz-adv-x="687" 
d="M335 939h213c-40 -91 -121 -163 -240 -213h-6c28 53 33 140 33 213zM651 710l6 -247h-2c-54 131 -124 225 -217 225c-105 0 -162 -133 -162 -285c0 -186 99 -289 226 -289c66 0 127 19 169 99l5 -3c-39 -136 -149 -220 -311 -220c-198 0 -344 137 -344 345
c0 226 175 375 388 375c97 0 142 -28 176 -28c25 0 40 8 66 28z" />
    <glyph glyph-name="cacute" unicode="&#x107;" horiz-adv-x="526" 
d="M251 749h213c-40 -91 -121 -163 -240 -213h-6c28 53 33 140 33 213zM321 494c-58 0 -75 -86 -75 -195c0 -137 54 -207 148 -207c45 0 91 19 122 70l7 -4c-33 -106 -129 -168 -242 -168c-149 0 -269 96 -269 250c0 171 130 270 306 270c107 0 195 -41 195 -133
c0 -67 -52 -99 -105 -99c-62 0 -96 32 -101 65c6 -3 14 -4 19 -4c41 0 54 37 54 78c0 50 -22 77 -59 77z" />
    <glyph glyph-name="Ccircumflex" unicode="&#x108;" horiz-adv-x="687" 
d="M590 720c-75 16 -141 46 -193 79c-52 -33 -118 -63 -193 -79h-12c76 75 170 188 203 257h4c33 -69 127 -182 203 -257h-12zM651 710l6 -247h-2c-54 131 -124 225 -217 225c-105 0 -162 -133 -162 -285c0 -186 99 -289 226 -289c66 0 127 19 169 99l5 -3
c-39 -136 -149 -220 -311 -220c-198 0 -344 137 -344 345c0 226 175 375 388 375c97 0 142 -28 176 -28c25 0 40 8 66 28z" />
    <glyph glyph-name="ccircumflex" unicode="&#x109;" horiz-adv-x="526" 
d="M504 525c-75 16 -141 46 -193 79c-52 -33 -118 -63 -193 -79h-12c76 75 170 188 203 257h4c33 -69 127 -182 203 -257h-12zM321 494c-58 0 -75 -86 -75 -195c0 -137 54 -207 148 -207c45 0 91 19 122 70l7 -4c-33 -106 -129 -168 -242 -168c-149 0 -269 96 -269 250
c0 171 130 270 306 270c107 0 195 -41 195 -133c0 -67 -52 -99 -105 -99c-62 0 -96 32 -101 65c6 -3 14 -4 19 -4c41 0 54 37 54 78c0 50 -22 77 -59 77z" />
    <glyph glyph-name="Cdotaccent" unicode="&#x10a;" horiz-adv-x="687" 
d="M276 847c0 65 51 114 120 114s122 -49 122 -114c0 -64 -53 -114 -122 -114s-120 50 -120 114zM651 710l6 -247h-2c-54 131 -124 225 -217 225c-105 0 -162 -133 -162 -285c0 -186 99 -289 226 -289c66 0 127 19 169 99l5 -3c-39 -136 -149 -220 -311 -220
c-198 0 -344 137 -344 345c0 226 175 375 388 375c97 0 142 -28 176 -28c25 0 40 8 66 28z" />
    <glyph glyph-name="cdotaccent" unicode="&#x10b;" horiz-adv-x="526" 
d="M190 647c0 65 51 114 120 114s122 -49 122 -114c0 -64 -53 -114 -122 -114s-120 50 -120 114zM321 494c-58 0 -75 -86 -75 -195c0 -137 54 -207 148 -207c45 0 91 19 122 70l7 -4c-33 -106 -129 -168 -242 -168c-149 0 -269 96 -269 250c0 171 130 270 306 270
c107 0 195 -41 195 -133c0 -67 -52 -99 -105 -99c-62 0 -96 32 -101 65c6 -3 14 -4 19 -4c41 0 54 37 54 78c0 50 -22 77 -59 77z" />
    <glyph glyph-name="Ccaron" unicode="&#x10c;" horiz-adv-x="687" 
d="M204 982c75 -16 141 -46 193 -79c52 33 118 63 193 79h12c-76 -75 -170 -188 -203 -257h-4c-33 69 -127 182 -203 257h12zM651 710l6 -247h-2c-54 131 -124 225 -217 225c-105 0 -162 -133 -162 -285c0 -186 99 -289 226 -289c66 0 127 19 169 99l5 -3
c-39 -136 -149 -220 -311 -220c-198 0 -344 137 -344 345c0 226 175 375 388 375c97 0 142 -28 176 -28c25 0 40 8 66 28z" />
    <glyph glyph-name="ccaron" unicode="&#x10d;" horiz-adv-x="526" 
d="M118 782c75 -16 141 -46 193 -79c52 33 118 63 193 79h12c-76 -75 -170 -188 -203 -257h-4c-33 69 -127 182 -203 257h12zM321 494c-58 0 -75 -86 -75 -195c0 -137 54 -207 148 -207c45 0 91 19 122 70l7 -4c-33 -106 -129 -168 -242 -168c-149 0 -269 96 -269 250
c0 171 130 270 306 270c107 0 195 -41 195 -133c0 -67 -52 -99 -105 -99c-62 0 -96 32 -101 65c6 -3 14 -4 19 -4c41 0 54 37 54 78c0 50 -22 77 -59 77z" />
    <glyph glyph-name="Dcaron" unicode="&#x10e;" horiz-adv-x="797" 
d="M175 982c75 -16 141 -46 193 -79c52 33 118 63 193 79h12c-76 -75 -170 -188 -203 -257h-4c-33 69 -127 182 -203 257h12zM13 0v2c43 34 54 50 54 116v464c0 66 -11 82 -54 116v2h330c252 0 433 -110 433 -350s-181 -350 -433 -350h-330zM309 27h25
c136 0 185 128 185 323s-49 323 -185 323h-25v-646z" />
    <glyph glyph-name="dcaron" unicode="&#x10f;" horiz-adv-x="656" 
d="M841 749c-23 -91 -78 -172 -183 -234h-4c12 70 18 156 13 234h174zM315 76c39 0 62 49 62 112v136c0 80 -26 133 -66 133c-46 0 -60 -67 -60 -213c0 -110 19 -168 64 -168zM377 416v221c0 73 -12 85 -58 110v2h286v-640c0 -66 0 -75 41 -107v-2h-269v118
c-21 -74 -75 -128 -160 -128c-113 0 -205 101 -205 253c0 162 100 267 224 267c76 0 120 -34 141 -94z" />
    <glyph glyph-name="Dcroat" unicode="&#x110;" horiz-adv-x="797" 
d="M343 0h-330v2c43 34 54 50 54 116v231h-54v33h54v200c0 66 -11 82 -54 116v2h330c252 0 433 -110 433 -350s-181 -350 -433 -350zM309 27h25c136 0 185 128 185 323s-49 323 -185 323h-25v-291h91v-33h-91v-322z" />
    <glyph glyph-name="dcroat" unicode="&#x111;" horiz-adv-x="661" 
d="M315 76c39 0 62 49 62 112v136c0 80 -26 133 -66 133c-46 0 -60 -67 -60 -213c0 -110 19 -168 64 -168zM377 118c-21 -74 -75 -128 -160 -128c-113 0 -205 101 -205 253c0 162 100 267 224 267c76 0 120 -34 141 -94v171h-100v25h100v25c0 73 -12 85 -58 110v2h286v-137
h51v-25h-51v-478c0 -66 0 -75 41 -107v-2h-269v118z" />
    <glyph glyph-name="Emacron" unicode="&#x112;" horiz-adv-x="672" 
d="M510 785h-328v39h328v-39zM13 700h509c42 0 66 3 82 10l34 -206h-2c-61 103 -109 169 -242 169h-85v-293h64c81 0 118 23 148 116h2v-262h-2c-30 92 -67 116 -148 116h-64v-323h98c144 0 191 91 251 188h2l-32 -215h-615v2c43 34 54 50 54 116v464c0 66 -11 82 -54 116v2
z" />
    <glyph glyph-name="emacron" unicode="&#x113;" horiz-adv-x="552" 
d="M457 595h-328v39h328v-39zM290 510c170 0 252 -107 252 -236h-300c0 -120 64 -182 152 -182c53 0 100 19 132 70l7 -4c-34 -106 -131 -168 -246 -168c-152 0 -275 94 -275 259c0 161 126 261 278 261zM242 294h88c0 118 -4 200 -40 200c-41 0 -47 -82 -48 -200z" />
    <glyph glyph-name="Ebreve" unicode="&#x114;" horiz-adv-x="672" 
d="M519 945c0 -132 -69 -219 -173 -219s-173 87 -173 219h4c14 -60 104 -82 169 -82s155 22 169 82h4zM13 700h509c42 0 66 3 82 10l34 -206h-2c-61 103 -109 169 -242 169h-85v-293h64c81 0 118 23 148 116h2v-262h-2c-30 92 -67 116 -148 116h-64v-323h98
c144 0 191 91 251 188h2l-32 -215h-615v2c43 34 54 50 54 116v464c0 66 -11 82 -54 116v2z" />
    <glyph glyph-name="ebreve" unicode="&#x115;" horiz-adv-x="552" 
d="M466 768c0 -132 -69 -219 -173 -219s-173 87 -173 219h4c14 -60 104 -82 169 -82s155 22 169 82h4zM290 510c170 0 252 -107 252 -236h-300c0 -120 64 -182 152 -182c53 0 100 19 132 70l7 -4c-34 -106 -131 -168 -246 -168c-152 0 -275 94 -275 259
c0 161 126 261 278 261zM242 294h88c0 118 -4 200 -40 200c-41 0 -47 -82 -48 -200z" />
    <glyph glyph-name="Edotaccent" unicode="&#x116;" horiz-adv-x="672" 
d="M225 840c0 65 51 114 120 114s122 -49 122 -114c0 -64 -53 -114 -122 -114s-120 50 -120 114zM13 700h509c42 0 66 3 82 10l34 -206h-2c-61 103 -109 169 -242 169h-85v-293h64c81 0 118 23 148 116h2v-262h-2c-30 92 -67 116 -148 116h-64v-323h98c144 0 191 91 251 188
h2l-32 -215h-615v2c43 34 54 50 54 116v464c0 66 -11 82 -54 116v2z" />
    <glyph glyph-name="edotaccent" unicode="&#x117;" horiz-adv-x="552" 
d="M172 647c0 65 51 114 120 114s122 -49 122 -114c0 -64 -53 -114 -122 -114s-120 50 -120 114zM290 510c170 0 252 -107 252 -236h-300c0 -120 64 -182 152 -182c53 0 100 19 132 70l7 -4c-34 -106 -131 -168 -246 -168c-152 0 -275 94 -275 259c0 161 126 261 278 261z
M242 294h88c0 118 -4 200 -40 200c-41 0 -47 -82 -48 -200z" />
    <glyph glyph-name="Eogonek" unicode="&#x118;" horiz-adv-x="672" 
d="M601 -124c-28 -75 -74 -119 -155 -119c-65 0 -116 39 -116 95c0 69 76 108 155 148h-472v2c43 34 54 50 54 116v464c0 66 -11 82 -54 116v2h509c42 0 66 3 82 10l34 -206h-2c-61 103 -109 169 -242 169h-85v-293h64c81 0 118 23 148 116h2v-262h-2
c-30 92 -67 116 -148 116h-64v-323h98c144 0 191 91 251 188h2l-32 -215h-118c-48 -38 -59 -73 -59 -101c0 -45 28 -66 61 -66c35 0 57 9 86 46z" />
    <glyph glyph-name="eogonek" unicode="&#x119;" horiz-adv-x="552" 
d="M315 -243c-65 0 -116 39 -116 95c0 67 71 105 146 144c-18 -4 -38 -6 -58 -6c-152 0 -275 94 -275 259c0 161 126 261 278 261c170 0 252 -107 252 -236h-300c0 -120 64 -182 152 -182c53 0 100 19 132 70l7 -4c-23 -72 -68 -114 -137 -149c-57 -29 -76 -66 -76 -110
c0 -45 28 -66 61 -66c35 0 57 9 86 46l3 -3c-28 -75 -74 -119 -155 -119zM242 294h88c0 118 -4 200 -40 200c-41 0 -47 -82 -48 -200z" />
    <glyph glyph-name="Ecaron" unicode="&#x11a;" horiz-adv-x="672" 
d="M153 982c75 -16 141 -46 193 -79c52 33 118 63 193 79h12c-76 -75 -170 -188 -203 -257h-4c-33 69 -127 182 -203 257h12zM13 700h509c42 0 66 3 82 10l34 -206h-2c-61 103 -109 169 -242 169h-85v-293h64c81 0 118 23 148 116h2v-262h-2c-30 92 -67 116 -148 116h-64
v-323h98c144 0 191 91 251 188h2l-32 -215h-615v2c43 34 54 50 54 116v464c0 66 -11 82 -54 116v2z" />
    <glyph glyph-name="ecaron" unicode="&#x11b;" horiz-adv-x="552" 
d="M100 782c75 -16 141 -46 193 -79c52 33 118 63 193 79h12c-76 -75 -170 -188 -203 -257h-4c-33 69 -127 182 -203 257h12zM290 510c170 0 252 -107 252 -236h-300c0 -120 64 -182 152 -182c53 0 100 19 132 70l7 -4c-34 -106 -131 -168 -246 -168
c-152 0 -275 94 -275 259c0 161 126 261 278 261zM242 294h88c0 118 -4 200 -40 200c-41 0 -47 -82 -48 -200z" />
    <glyph glyph-name="Gcircumflex" unicode="&#x11c;" horiz-adv-x="783" 
d="M593 720c-75 16 -141 46 -193 79c-52 -33 -118 -63 -193 -79h-12c76 75 170 188 203 257h4c33 -69 127 -182 203 -257h-12zM445 689c-108 0 -166 -134 -166 -342c0 -186 37 -339 120 -339c62 0 93 48 93 128v75c0 66 -11 82 -54 116v2h340v-2c-43 -34 -54 -50 -54 -116
v-221h-2l-90 86c-58 -53 -148 -86 -233 -86c-225 0 -378 137 -378 357s183 363 396 363c101 0 152 -28 186 -28c25 0 40 8 66 28l6 -247h-2c-59 129 -135 226 -228 226z" />
    <glyph glyph-name="gcircumflex" unicode="&#x11d;" horiz-adv-x="604" 
d="M73 525h-12c76 75 170 188 203 257h4c33 -69 127 -182 202 -256v-1h-11c-75 16 -141 46 -193 79c-52 -33 -118 -63 -193 -79zM280 494c-25 0 -31 -43 -31 -149s6 -148 31 -148s31 42 31 148s-6 149 -31 149zM595 -22c0 -146 -167 -203 -336 -203c-124 0 -257 17 -257 93
c0 33 37 62 118 62c-63 17 -104 64 -104 131c0 72 54 124 121 145c-67 27 -103 77 -103 139c0 98 89 165 246 165c64 0 118 -11 158 -32c9 16 19 33 32 47h1l-1 1c18 19 40 34 73 34c58 0 94 -33 94 -84c0 -64 -52 -86 -96 -86v2c5 10 8 22 8 34c0 31 -17 60 -57 60
c-18 0 -30 -5 -42 -15c49 -29 76 -72 76 -126c0 -98 -89 -164 -246 -164c-50 0 -91 6 -127 18c-24 -9 -36 -19 -36 -37c0 -17 11 -30 32 -30h248c115 0 198 -51 198 -154zM259 -208c95 0 185 24 185 82c0 35 -27 50 -75 50h-196c-40 0 -70 -16 -70 -55c0 -57 73 -77 156 -77
z" />
    <glyph glyph-name="Gbreve" unicode="&#x11e;" horiz-adv-x="783" 
d="M573 951c0 -132 -69 -219 -173 -219s-173 87 -173 219h4c14 -60 104 -82 169 -82s155 22 169 82h4zM445 689c-108 0 -166 -134 -166 -342c0 -186 37 -339 120 -339c62 0 93 48 93 128v75c0 66 -11 82 -54 116v2h340v-2c-43 -34 -54 -50 -54 -116v-221h-2l-90 86
c-58 -53 -148 -86 -233 -86c-225 0 -378 137 -378 357s183 363 396 363c101 0 152 -28 186 -28c25 0 40 8 66 28l6 -247h-2c-59 129 -135 226 -228 226z" />
    <glyph glyph-name="gbreve" unicode="&#x11f;" horiz-adv-x="604" 
d="M455 768c0 -132 -69 -219 -173 -219s-173 87 -173 219h4c14 -60 104 -82 169 -82s155 22 169 82h4zM280 494c-25 0 -31 -43 -31 -149s6 -148 31 -148s31 42 31 148s-6 149 -31 149zM595 -22c0 -146 -167 -203 -336 -203c-124 0 -257 17 -257 93c0 33 37 62 118 62
c-63 17 -104 64 -104 131c0 72 54 124 121 145c-67 27 -103 77 -103 139c0 98 89 165 246 165c64 0 118 -11 158 -32c22 37 48 82 105 82c58 0 94 -33 94 -84c0 -64 -52 -86 -96 -86v2c5 10 8 22 8 34c0 31 -17 60 -57 60c-18 0 -30 -5 -42 -15c49 -29 76 -72 76 -126
c0 -98 -89 -164 -246 -164c-50 0 -91 6 -127 18c-24 -9 -36 -19 -36 -37c0 -17 11 -30 32 -30h248c115 0 198 -51 198 -154zM259 -208c95 0 185 24 185 82c0 35 -27 50 -75 50h-196c-40 0 -70 -16 -70 -55c0 -57 73 -77 156 -77z" />
    <glyph glyph-name="Gdotaccent" unicode="&#x120;" horiz-adv-x="783" 
d="M279 847c0 65 51 114 120 114s122 -49 122 -114c0 -64 -53 -114 -122 -114s-120 50 -120 114zM445 689c-108 0 -166 -134 -166 -342c0 -186 37 -339 120 -339c62 0 93 48 93 128v75c0 66 -11 82 -54 116v2h340v-2c-43 -34 -54 -50 -54 -116v-221h-2l-90 86
c-58 -53 -148 -86 -233 -86c-225 0 -378 137 -378 357s183 363 396 363c101 0 152 -28 186 -28c25 0 40 8 66 28l6 -247h-2c-59 129 -135 226 -228 226z" />
    <glyph glyph-name="gdotaccent" unicode="&#x121;" horiz-adv-x="604" 
d="M161 647c0 65 51 114 120 114s122 -49 122 -114c0 -64 -53 -114 -122 -114s-120 50 -120 114zM280 494c-25 0 -31 -43 -31 -149s6 -148 31 -148s31 42 31 148s-6 149 -31 149zM595 -22c0 -146 -167 -203 -336 -203c-124 0 -257 17 -257 93c0 33 37 62 118 62
c-63 17 -104 64 -104 131c0 72 54 124 121 145c-67 27 -103 77 -103 139c0 98 89 165 246 165c64 0 118 -11 158 -32c22 37 48 82 105 82c58 0 94 -33 94 -84c0 -64 -52 -86 -96 -86v2c5 10 8 22 8 34c0 31 -17 60 -57 60c-18 0 -30 -5 -42 -15c49 -29 76 -72 76 -126
c0 -98 -89 -164 -246 -164c-50 0 -91 6 -127 18c-24 -9 -36 -19 -36 -37c0 -17 11 -30 32 -30h248c115 0 198 -51 198 -154zM259 -208c95 0 185 24 185 82c0 35 -27 50 -75 50h-196c-40 0 -70 -16 -70 -55c0 -57 73 -77 156 -77z" />
    <glyph glyph-name="uni0122" unicode="&#x122;" horiz-adv-x="783" 
d="M445 689c-108 0 -166 -134 -166 -342c0 -186 37 -339 120 -339c62 0 93 48 93 128v75c0 66 -11 82 -54 116v2h340v-2c-43 -34 -54 -50 -54 -116v-221h-2l-90 86c-58 -53 -148 -86 -233 -86c-225 0 -378 137 -378 357s183 363 396 363c101 0 152 -28 186 -28
c25 0 40 8 66 28l6 -247h-2c-59 129 -135 226 -228 226zM509 -134c0 -108 -91 -152 -202 -152v17c76 4 129 26 137 70c-11 -11 -35 -20 -64 -20c-51 0 -89 44 -89 97c0 55 47 97 104 97c68 0 114 -46 114 -109z" />
    <glyph glyph-name="uni0123" unicode="&#x123;" horiz-adv-x="604" 
d="M173 642c0 108 91 152 202 152v-17c-76 -4 -129 -26 -137 -70c11 11 35 20 64 20c51 0 89 -44 89 -97c0 -55 -47 -97 -104 -97c-68 0 -114 46 -114 109zM280 494c-25 0 -31 -43 -31 -149s6 -148 31 -148s31 42 31 148s-6 149 -31 149zM595 -22
c0 -146 -167 -203 -336 -203c-124 0 -257 17 -257 93c0 33 37 62 118 62c-63 17 -104 64 -104 131c0 72 54 124 121 145c-67 27 -103 77 -103 139c0 98 89 165 246 165c64 0 118 -11 158 -32c22 37 48 82 105 82c58 0 94 -33 94 -84c0 -64 -52 -86 -96 -86v2c5 10 8 22 8 34
c0 31 -17 60 -57 60c-18 0 -30 -5 -42 -15c49 -29 76 -72 76 -126c0 -98 -89 -164 -246 -164c-50 0 -91 6 -127 18c-24 -9 -36 -19 -36 -37c0 -17 11 -30 32 -30h248c115 0 198 -51 198 -154zM259 -208c95 0 185 24 185 82c0 35 -27 50 -75 50h-196c-40 0 -70 -16 -70 -55
c0 -57 73 -77 156 -77z" />
    <glyph glyph-name="Hcircumflex" unicode="&#x124;" horiz-adv-x="843" 
d="M614 720c-75 16 -141 46 -193 79c-52 -33 -118 -63 -193 -79h-12c76 75 170 188 203 257h4c33 -69 127 -182 203 -257h-12zM67 118v464c0 66 -11 82 -54 116v2h350v-2c-43 -34 -54 -50 -54 -116v-200h225v200c0 66 -11 82 -54 116v2h350v-2c-43 -34 -54 -50 -54 -116
v-464c0 -66 11 -82 54 -116v-2h-350v2c43 34 54 50 54 116v231h-225v-231c0 -66 11 -82 54 -116v-2h-350v2c43 34 54 50 54 116z" />
    <glyph glyph-name="hcircumflex" unicode="&#x125;" horiz-adv-x="660" 
d="M526 770c-75 16 -141 46 -193 79c-52 -33 -118 -63 -193 -79h-12c76 75 170 188 203 257h4c33 -69 127 -182 203 -257h-12zM-6 749h286v-374c23 87 88 135 172 135c117 0 160 -86 160 -173v-228c0 -66 0 -75 41 -107v-2h-310v2c41 32 41 41 41 107v241
c0 32 -17 56 -47 56c-34 0 -57 -23 -57 -101v-196c0 -66 0 -75 41 -107v-2h-310v2c41 32 41 41 41 107v528c0 73 -12 85 -58 110v2z" />
    <glyph glyph-name="Hbar" unicode="&#x126;" horiz-adv-x="843" 
d="M534 342v117h-225v-117h225zM363 0h-350v2c43 34 54 50 54 116v341h-54v33h54v90c0 66 -11 82 -54 116v2h350v-2c-43 -34 -54 -50 -54 -116v-90h225v90c0 66 -11 82 -54 116v2h350v-2c-43 -34 -54 -50 -54 -116v-90h54v-33h-54v-341c0 -66 11 -82 54 -116v-2h-350v2
c43 34 54 50 54 116v191h-225v-191c0 -66 11 -82 54 -116v-2z" />
    <glyph glyph-name="hbar" unicode="&#x127;" horiz-adv-x="660" 
d="M321 2v-2h-310v2c41 32 41 41 41 107v479h-51v25h51v24c0 73 -12 85 -58 110v2h286v-136h100v-25h-100v-213c23 87 88 135 172 135c117 0 160 -86 160 -173v-228c0 -66 0 -75 41 -107v-2h-310v2c41 32 41 41 41 107v241c0 32 -17 56 -47 56c-34 0 -57 -23 -57 -101v-196
c0 -66 0 -75 41 -107z" />
    <glyph glyph-name="Itilde" unicode="&#x128;" horiz-adv-x="376" 
d="M382 940c0 -115 -52 -191 -127 -191c-76 0 -107 44 -172 44c-39 0 -69 -15 -86 -55h-3c0 115 52 191 127 191c76 0 107 -44 172 -44c39 0 69 15 86 55h3zM309 118c0 -66 11 -82 54 -116v-2h-350v2c43 34 54 50 54 116v464c0 66 -11 82 -54 116v2h350v-2
c-43 -34 -54 -50 -54 -116v-464z" />
    <glyph glyph-name="itilde" unicode="&#x129;" horiz-adv-x="336" 
d="M360 750c0 -115 -52 -191 -127 -191c-76 0 -107 44 -172 44c-39 0 -69 -15 -86 -55h-3c0 115 52 191 127 191c76 0 107 -44 172 -44c39 0 69 15 86 55h3zM284 500v-391c0 -66 0 -75 41 -107v-2h-310v2c41 32 41 41 41 107v279c0 73 -2 79 -48 110v2h276z" />
    <glyph glyph-name="Imacron" unicode="&#x12a;" horiz-adv-x="376" 
d="M352 785h-328v39h328v-39zM309 118c0 -66 11 -82 54 -116v-2h-350v2c43 34 54 50 54 116v464c0 66 -11 82 -54 116v2h350v-2c-43 -34 -54 -50 -54 -116v-464z" />
    <glyph glyph-name="imacron" unicode="&#x12b;" horiz-adv-x="336" 
d="M320 595h-308v39h308v-39zM284 500v-391c0 -66 0 -75 41 -107v-2h-310v2c41 32 41 41 41 107v279c0 73 -2 79 -48 110v2h276z" />
    <glyph glyph-name="Ibreve" unicode="&#x12c;" horiz-adv-x="376" 
d="M361 945c0 -132 -69 -219 -173 -219s-173 87 -173 219h4c14 -60 104 -82 169 -82s155 22 169 82h4zM309 118c0 -66 11 -82 54 -116v-2h-350v2c43 34 54 50 54 116v464c0 66 -11 82 -54 116v2h350v-2c-43 -34 -54 -50 -54 -116v-464z" />
    <glyph glyph-name="ibreve" unicode="&#x12d;" horiz-adv-x="336" 
d="M322 768c0 -142 -62 -219 -157 -219c-94 0 -156 77 -156 219h3c13 -60 94 -82 153 -82s141 22 153 82h4zM284 500v-391c0 -66 0 -75 41 -107v-2h-310v2c41 32 41 41 41 107v279c0 73 -2 79 -48 110v2h276z" />
    <glyph glyph-name="Iogonek" unicode="&#x12e;" horiz-adv-x="376" 
d="M323 -124c-28 -75 -74 -119 -155 -119c-65 0 -116 39 -116 95c0 69 76 108 155 148h-194v2c43 34 54 50 54 116v464c0 66 -11 82 -54 116v2h350v-2c-43 -34 -54 -50 -54 -116v-464c0 -66 11 -82 54 -116v-2h-131c-48 -38 -59 -73 -59 -101c0 -45 28 -66 61 -66
c35 0 57 9 86 46z" />
    <glyph glyph-name="iogonek" unicode="&#x12f;" horiz-adv-x="336" 
d="M50 647c0 65 51 114 120 114s122 -49 122 -114c0 -64 -53 -114 -122 -114s-120 50 -120 114zM301 -124c-28 -75 -74 -119 -155 -119c-65 0 -116 39 -116 95c0 69 76 108 155 148h-170v2c41 32 41 41 41 107v279c0 73 -2 79 -48 110v2h276v-391c0 -66 0 -75 41 -107v-2
h-115c-48 -38 -59 -73 -59 -101c0 -45 28 -66 61 -66c35 0 57 9 86 46z" />
    <glyph glyph-name="Idotaccent" unicode="&#x130;" horiz-adv-x="376" 
d="M67 840c0 65 51 114 120 114s122 -49 122 -114c0 -64 -53 -114 -122 -114s-120 50 -120 114zM309 118c0 -66 11 -82 54 -116v-2h-350v2c43 34 54 50 54 116v464c0 66 -11 82 -54 116v2h350v-2c-43 -34 -54 -50 -54 -116v-464z" />
    <glyph glyph-name="dotlessi" unicode="&#x131;" horiz-adv-x="336" 
d="M284 500v-391c0 -66 0 -75 41 -107v-2h-310v2c41 32 41 41 41 107v279c0 73 -2 79 -48 110v2h276z" />
    <glyph glyph-name="Jcircumflex" unicode="&#x134;" horiz-adv-x="648" 
d="M654 720c-75 16 -141 46 -193 79c-52 -33 -118 -63 -193 -79h-12c76 75 170 188 203 257h4c33 -69 127 -182 203 -257h-12zM349 141v441c0 66 -11 82 -54 116v2h349v-2c-43 -34 -54 -50 -54 -116v-345c0 -189 -156 -247 -322 -247c-127 0 -274 54 -274 181
c0 83 67 129 147 129c52 0 97 -20 120 -52c-54 3 -81 -50 -81 -112c0 -70 27 -127 88 -127c56 0 81 47 81 132z" />
    <glyph glyph-name="jcircumflex" unicode="&#x135;" horiz-adv-x="324" 
d="M351 525c-75 16 -141 46 -193 79c-52 -33 -118 -63 -193 -79h-12c76 75 170 188 203 257h4c33 -69 127 -182 203 -257h-12zM280 -8c0 -149 -121 -217 -270 -217c-98 0 -183 31 -183 109c0 56 53 90 110 90c36 0 68 -10 84 -24c-36 -8 -59 -37 -59 -89
c0 -40 13 -70 48 -70c31 0 42 29 42 64v533c-1 73 -2 79 -48 110v2h276v-508z" />
    <glyph glyph-name="uni0136" unicode="&#x136;" horiz-adv-x="810" 
d="M363 0h-350v2c43 34 54 50 54 116v464c0 66 -11 82 -54 116v2h350v-2c-43 -34 -54 -50 -54 -116v-253l287 265c16 15 24 32 24 48c0 22 -15 43 -42 56v2h211v-2c-64 -27 -115 -68 -163 -113l-93 -87l195 -388c26 -51 52 -81 94 -108v-2h-367v2c19 10 26 19 26 37
c0 19 -8 42 -28 83l-105 210l-39 -36v-178c0 -66 11 -82 54 -116v-2zM496 -134c0 -108 -91 -152 -202 -152v17c76 4 129 26 137 70c-11 -11 -35 -20 -64 -20c-51 0 -89 44 -89 97c0 55 47 97 104 97c68 0 114 -46 114 -109z" />
    <glyph glyph-name="uni0137" unicode="&#x137;" horiz-adv-x="668" 
d="M280 279h13c26 0 41 3 66 25l92 83c29 26 41 50 40 68c0 21 -14 37 -34 43v2h204v-2c-72 -23 -105 -46 -148 -81l-32 -26l104 -250c20 -49 54 -108 97 -139v-2h-295c8 12 8 40 -5 70l-60 163c-8 20 -15 28 -33 28h-9v-152c0 -66 0 -75 41 -107v-2h-310v2
c41 32 41 41 41 107v528c0 73 -12 85 -58 110v2h286v-470zM447 -134c0 -108 -91 -152 -202 -152v17c76 4 129 26 137 70c-11 -11 -35 -20 -64 -20c-51 0 -89 44 -89 97c0 55 47 97 104 97c68 0 114 -46 114 -109z" />
    <glyph glyph-name="kgreenlandic" unicode="&#x138;" horiz-adv-x="682" 
d="M294 279h13c26 0 41 3 66 25l92 83c29 26 41 50 40 68c0 21 -14 37 -34 43v2h204v-2c-72 -23 -105 -46 -148 -81l-32 -26l104 -250c20 -49 54 -108 97 -139v-2h-295c8 12 8 40 -5 70l-60 163c-8 20 -15 28 -33 28h-9v-152c0 -66 0 -75 41 -107v-2h-310v2
c41 32 41 41 41 107v279c0 73 -12 85 -58 110v2h286v-221z" />
    <glyph glyph-name="Lacute" unicode="&#x139;" horiz-adv-x="663" 
d="M183 939h213c-40 -91 -121 -163 -240 -213h-6c28 53 33 140 33 213zM13 700h350v-2c-43 -34 -54 -50 -54 -116v-555h88c144 0 176 74 258 218h2l-39 -245h-605v2c43 34 54 50 54 116v464c0 66 -11 82 -54 116v2z" />
    <glyph glyph-name="lacute" unicode="&#x13a;" horiz-adv-x="331" 
d="M95 986h213c-40 -91 -121 -163 -240 -213h-6c28 53 33 140 33 213zM280 749v-640c0 -66 0 -75 41 -107v-2h-310v2c41 32 41 41 41 107v528c0 73 -12 85 -58 110v2h286z" />
    <glyph glyph-name="uni013B" unicode="&#x13b;" horiz-adv-x="663" 
d="M13 700h350v-2c-43 -34 -54 -50 -54 -116v-555h88c144 0 176 74 258 218h2l-39 -245h-605v2c43 34 54 50 54 116v464c0 66 -11 82 -54 116v2zM444 -134c0 -108 -91 -152 -202 -152v17c76 4 129 26 137 70c-11 -11 -35 -20 -64 -20c-51 0 -89 44 -89 97c0 55 47 97 104 97
c68 0 114 -46 114 -109z" />
    <glyph glyph-name="uni013C" unicode="&#x13c;" horiz-adv-x="331" 
d="M280 749v-640c0 -66 0 -75 41 -107v-2h-310v2c41 32 41 41 41 107v528c0 73 -12 85 -58 110v2h286zM266 -134c0 -108 -91 -152 -202 -152v17c76 4 129 26 137 70c-11 -11 -35 -20 -64 -20c-51 0 -89 44 -89 97c0 55 47 97 104 97c68 0 114 -46 114 -109z" />
    <glyph glyph-name="Lcaron" unicode="&#x13d;" horiz-adv-x="663" 
d="M629 700c-23 -91 -78 -172 -183 -234h-4c12 70 18 156 13 234h174zM13 700h350v-2c-43 -34 -54 -50 -54 -116v-555h88c144 0 176 74 258 218h2l-39 -245h-605v2c43 34 54 50 54 116v464c0 66 -11 82 -54 116v2z" />
    <glyph glyph-name="lcaron" unicode="&#x13e;" horiz-adv-x="331" 
d="M518 749c-23 -91 -78 -172 -183 -234h-4c12 70 18 156 13 234h174zM280 749v-640c0 -66 0 -75 41 -107v-2h-310v2c41 32 41 41 41 107v528c0 73 -12 85 -58 110v2h286z" />
    <glyph glyph-name="Ldot" unicode="&#x13f;" horiz-adv-x="663" 
d="M13 700h350v-2c-43 -34 -54 -50 -54 -116v-555h88c144 0 176 74 258 218h2l-39 -245h-605v2c43 34 54 50 54 116v464c0 66 -11 82 -54 116v2zM425 402c0 65 51 114 120 114s122 -49 122 -114c0 -64 -53 -114 -122 -114s-120 50 -120 114z" />
    <glyph glyph-name="ldot" unicode="&#x140;" horiz-adv-x="558" 
d="M280 749v-640c0 -66 0 -75 41 -107v-2h-310v2c41 32 41 41 41 107v528c0 73 -12 85 -58 110v2h286zM321 374c0 65 51 114 120 114s122 -49 122 -114c0 -64 -53 -114 -122 -114s-120 50 -120 114z" />
    <glyph glyph-name="Lslash" unicode="&#x141;" horiz-adv-x="663" 
d="M618 0h-605v2c43 34 54 50 54 116v171l-54 -21v34l54 21v259c0 66 -11 82 -54 116v2h350v-2c-43 -34 -54 -50 -54 -116v-178l141 55v-34l-141 -55v-343h88c144 0 176 74 258 218h2z" />
    <glyph glyph-name="lslash" unicode="&#x142;" horiz-adv-x="342" 
d="M327 0h-310v2c41 32 41 41 41 107v264l-56 -21v33l56 21v231c0 73 -12 85 -58 110v2h286v-265l56 21v-33l-56 -21v-342c0 -66 0 -75 41 -107v-2z" />
    <glyph glyph-name="Nacute" unicode="&#x143;" horiz-adv-x="719" 
d="M310 939h213c-40 -91 -121 -163 -240 -213h-6c28 53 33 140 33 213zM727 698c-54 -34 -74 -79 -74 -153v-545h-68l-484 591v-425c0 -85 22 -134 87 -164v-2h-195v2c54 34 74 79 74 153v427c0 66 -11 82 -54 116v2h316l290 -348v182c0 85 -22 134 -87 164v2h195v-2z" />
    <glyph glyph-name="nacute" unicode="&#x144;" horiz-adv-x="664" 
d="M287 749h213c-40 -91 -121 -163 -240 -213h-6c28 53 33 140 33 213zM8 500h276v-125c23 87 88 135 172 135c117 0 160 -86 160 -173v-228c0 -66 0 -75 41 -107v-2h-310v2c41 32 41 41 41 107v241c0 32 -17 56 -47 56c-34 0 -57 -23 -57 -101v-196c0 -66 0 -75 41 -107v-2
h-310v2c41 32 41 41 41 107v279c0 73 -2 79 -48 110v2z" />
    <glyph glyph-name="uni0145" unicode="&#x145;" horiz-adv-x="719" 
d="M727 698c-54 -34 -74 -79 -74 -153v-545h-68l-484 591v-425c0 -85 22 -134 87 -164v-2h-195v2c54 34 74 79 74 153v427c0 66 -11 82 -54 116v2h316l290 -348v182c0 85 -22 134 -87 164v2h195v-2zM461 -134c0 -108 -91 -152 -202 -152v17c76 4 129 26 137 70
c-11 -11 -35 -20 -64 -20c-51 0 -89 44 -89 97c0 55 47 97 104 97c68 0 114 -46 114 -109z" />
    <glyph glyph-name="uni0146" unicode="&#x146;" horiz-adv-x="664" 
d="M8 500h276v-125c23 87 88 135 172 135c117 0 160 -86 160 -173v-228c0 -66 0 -75 41 -107v-2h-310v2c41 32 41 41 41 107v241c0 32 -17 56 -47 56c-34 0 -57 -23 -57 -101v-196c0 -66 0 -75 41 -107v-2h-310v2c41 32 41 41 41 107v279c0 73 -2 79 -48 110v2zM446 -134
c0 -108 -91 -152 -202 -152v17c76 4 129 26 137 70c-11 -11 -35 -20 -64 -20c-51 0 -89 44 -89 97c0 55 47 97 104 97c68 0 114 -46 114 -109z" />
    <glyph glyph-name="Ncaron" unicode="&#x147;" horiz-adv-x="719" 
d="M179 982c75 -16 141 -46 193 -79c52 33 118 63 193 79h12c-76 -75 -170 -188 -203 -257h-4c-33 69 -127 182 -203 257h12zM727 698c-54 -34 -74 -79 -74 -153v-545h-68l-484 591v-425c0 -85 22 -134 87 -164v-2h-195v2c54 34 74 79 74 153v427c0 66 -11 82 -54 116v2h316
l290 -348v182c0 85 -22 134 -87 164v2h195v-2z" />
    <glyph glyph-name="ncaron" unicode="&#x148;" horiz-adv-x="664" 
d="M154 782c75 -16 141 -46 193 -79c52 33 118 63 193 79h12c-76 -75 -170 -188 -203 -257h-4c-33 69 -127 182 -203 257h12zM8 500h276v-125c23 87 88 135 172 135c117 0 160 -86 160 -173v-228c0 -66 0 -75 41 -107v-2h-310v2c41 32 41 41 41 107v241c0 32 -17 56 -47 56
c-34 0 -57 -23 -57 -101v-196c0 -66 0 -75 41 -107v-2h-310v2c41 32 41 41 41 107v279c0 73 -2 79 -48 110v2z" />
    <glyph glyph-name="Eng" unicode="&#x14a;" horiz-adv-x="719" 
d="M619 -54v14l-518 631v-425c0 -85 22 -134 87 -164v-2h-195v2c54 34 74 79 74 153v427c0 66 -11 82 -54 116v2h316l290 -348v182c0 85 -22 134 -87 164v2h195v-2c-54 -34 -74 -79 -74 -153v-596c0 -116 -53 -174 -143 -174c-95 0 -162 41 -162 119c0 56 53 90 110 90
c36 0 68 -10 84 -24c-36 -8 -58 -36 -58 -86c0 -38 20 -65 56 -65c47 0 79 45 79 137z" />
    <glyph glyph-name="eng" unicode="&#x14b;" horiz-adv-x="660" 
d="M346 -225c-98 0 -183 31 -183 109c0 56 53 90 110 90c36 0 68 -10 84 -24c-36 -8 -59 -37 -59 -89c0 -40 13 -70 48 -70c31 0 42 29 42 64v495c0 32 -17 56 -47 56c-34 0 -57 -23 -57 -101v-196c0 -66 0 -75 41 -107v-2h-310v2c41 32 41 41 41 107v279
c0 73 -2 79 -48 110v2h276v-125c23 87 88 135 172 135c117 0 160 -86 160 -173v-345c0 -149 -121 -217 -270 -217z" />
    <glyph glyph-name="Omacron" unicode="&#x14c;" horiz-adv-x="778" 
d="M553 785h-328v39h328v-39zM757 350c0 -210 -150 -360 -368 -360s-368 150 -368 360s150 360 368 360s368 -150 368 -360zM497 350c0 235 -16 342 -108 342s-108 -107 -108 -342s16 -342 108 -342s108 107 108 342z" />
    <glyph glyph-name="omacron" unicode="&#x14d;" horiz-adv-x="606" 
d="M467 595h-328v39h328v-39zM303 -10c-155 0 -291 99 -291 260s136 260 291 260s291 -99 291 -260s-136 -260 -291 -260zM303 6c46 0 52 72 52 244s-6 244 -52 244s-52 -72 -52 -244s6 -244 52 -244z" />
    <glyph glyph-name="Obreve" unicode="&#x14e;" horiz-adv-x="778" 
d="M562 945c0 -132 -69 -219 -173 -219s-173 87 -173 219h4c14 -60 104 -82 169 -82s155 22 169 82h4zM757 350c0 -210 -150 -360 -368 -360s-368 150 -368 360s150 360 368 360s368 -150 368 -360zM497 350c0 235 -16 342 -108 342s-108 -107 -108 -342s16 -342 108 -342
s108 107 108 342z" />
    <glyph glyph-name="obreve" unicode="&#x14f;" horiz-adv-x="606" 
d="M476 768c0 -132 -69 -219 -173 -219s-173 87 -173 219h4c14 -60 104 -82 169 -82s155 22 169 82h4zM303 -10c-155 0 -291 99 -291 260s136 260 291 260s291 -99 291 -260s-136 -260 -291 -260zM303 6c46 0 52 72 52 244s-6 244 -52 244s-52 -72 -52 -244s6 -244 52 -244z
" />
    <glyph glyph-name="Ohungarumlaut" unicode="&#x150;" horiz-adv-x="778" 
d="M286 939h193c-40 -91 -101 -163 -220 -213h-6c28 53 33 140 33 213zM504 939h193c-40 -91 -101 -163 -220 -213h-6c28 53 33 140 33 213zM757 350c0 -210 -150 -360 -368 -360s-368 150 -368 360s150 360 368 360s368 -150 368 -360zM497 350c0 235 -16 342 -108 342
s-108 -107 -108 -342s16 -342 108 -342s108 107 108 342z" />
    <glyph glyph-name="ohungarumlaut" unicode="&#x151;" horiz-adv-x="606" 
d="M184 749h193c-40 -91 -101 -163 -220 -213h-6c28 53 33 140 33 213zM402 749h193c-40 -91 -101 -163 -220 -213h-6c28 53 33 140 33 213zM303 -10c-155 0 -291 99 -291 260s136 260 291 260s291 -99 291 -260s-136 -260 -291 -260zM303 6c46 0 52 72 52 244
s-6 244 -52 244s-52 -72 -52 -244s6 -244 52 -244z" />
    <glyph glyph-name="OE" unicode="&#x152;" horiz-adv-x="1085" 
d="M480 25v650h-25c-136 0 -185 -130 -185 -325s49 -325 185 -325h25zM1073 215l-32 -215h-595c-252 0 -433 110 -433 350s181 350 433 350h489c42 0 66 3 82 10l34 -206h-2c-61 103 -109 169 -242 169h-85v-293h64c81 0 118 23 148 116h2v-262h-2c-30 92 -67 116 -148 116
h-64v-323h98c144 0 191 91 251 188h2z" />
    <glyph glyph-name="oe" unicode="&#x153;" horiz-adv-x="886" 
d="M867 158c-34 -106 -131 -168 -246 -168c-59 0 -113 19 -157 50c-46 -31 -102 -50 -161 -50c-155 0 -291 99 -291 260s136 260 291 260c60 0 116 -20 163 -52c45 32 99 52 158 52c170 0 252 -107 252 -236h-300c0 -120 64 -182 152 -182c53 0 100 19 132 70zM355 250
c0 172 -6 244 -52 244s-52 -72 -52 -244s6 -244 52 -244s52 72 52 244zM576 294h88c0 118 -4 200 -40 200c-41 0 -47 -82 -48 -200z" />
    <glyph glyph-name="Racute" unicode="&#x154;" horiz-adv-x="796" 
d="M331 939h213c-40 -91 -121 -163 -240 -213h-6c28 53 33 140 33 213zM309 673v-324h39c86 0 128 70 128 162s-42 162 -128 162h-39zM728 513c0 -113 -108 -180 -230 -180v-3c109 -5 168 -39 198 -130l25 -75c21 -62 37 -90 93 -123v-2h-298c-25 32 -37 65 -48 108l-36 139
c-12 47 -34 75 -100 75h-23v-204c0 -66 11 -82 54 -116v-2h-350v2c43 34 54 50 54 116v464c0 66 -11 82 -54 116v2h453c154 0 262 -52 262 -187z" />
    <glyph glyph-name="racute" unicode="&#x155;" horiz-adv-x="554" 
d="M245 749h213c-40 -91 -121 -163 -240 -213h-6c28 53 33 140 33 213zM397 270c21 8 33 29 33 51c0 40 -24 62 -67 62c-41 0 -79 -27 -79 -100v-174c0 -66 19 -79 71 -107v-2h-340v2c41 32 41 41 41 107v279c0 73 -2 79 -48 110v2h276v-158c25 89 66 168 155 168
c72 0 115 -52 115 -117c0 -83 -54 -131 -120 -131c-16 0 -31 4 -37 8z" />
    <glyph glyph-name="uni0156" unicode="&#x156;" horiz-adv-x="796" 
d="M502 -134c0 -108 -91 -152 -202 -152v17c76 4 129 26 137 70c-11 -11 -35 -20 -64 -20c-51 0 -89 44 -89 97c0 55 47 97 104 97c68 0 114 -46 114 -109zM309 673v-324h39c86 0 128 70 128 162s-42 162 -128 162h-39zM728 513c0 -113 -108 -180 -230 -180v-3
c109 -5 168 -39 198 -130l25 -75c21 -62 37 -90 93 -123v-2h-298c-25 32 -37 65 -48 108l-36 139c-12 47 -34 75 -100 75h-23v-204c0 -66 11 -82 54 -116v-2h-350v2c43 34 54 50 54 116v464c0 66 -11 82 -54 116v2h453c154 0 262 -52 262 -187z" />
    <glyph glyph-name="uni0157" unicode="&#x157;" horiz-adv-x="554" 
d="M397 270c21 8 33 29 33 51c0 40 -24 62 -67 62c-41 0 -79 -27 -79 -100v-174c0 -66 19 -79 71 -107v-2h-340v2c41 32 41 41 41 107v279c0 73 -2 79 -48 110v2h276v-158c25 89 66 168 155 168c72 0 115 -52 115 -117c0 -83 -54 -131 -120 -131c-16 0 -31 4 -37 8z
M278 -134c0 -108 -91 -152 -202 -152v17c76 4 129 26 137 70c-11 -11 -35 -20 -64 -20c-51 0 -89 44 -89 97c0 55 47 97 104 97c68 0 114 -46 114 -109z" />
    <glyph glyph-name="Rcaron" unicode="&#x158;" horiz-adv-x="796" 
d="M200 982c75 -16 141 -46 193 -79c52 33 118 63 193 79h12c-76 -75 -170 -188 -203 -257h-4c-33 69 -127 182 -203 257h12zM309 673v-324h39c86 0 128 70 128 162s-42 162 -128 162h-39zM728 513c0 -113 -108 -180 -230 -180v-3c109 -5 168 -39 198 -130l25 -75
c21 -62 37 -90 93 -123v-2h-298c-25 32 -37 65 -48 108l-36 139c-12 47 -34 75 -100 75h-23v-204c0 -66 11 -82 54 -116v-2h-350v2c43 34 54 50 54 116v464c0 66 -11 82 -54 116v2h453c154 0 262 -52 262 -187z" />
    <glyph glyph-name="rcaron" unicode="&#x159;" horiz-adv-x="554" 
d="M112 782c75 -16 141 -46 193 -79c52 33 118 63 193 79h12c-76 -75 -170 -188 -203 -257h-4c-33 69 -127 182 -203 257h12zM397 270c21 8 33 29 33 51c0 40 -24 62 -67 62c-41 0 -79 -27 -79 -100v-174c0 -66 19 -79 71 -107v-2h-340v2c41 32 41 41 41 107v279
c0 73 -2 79 -48 110v2h276v-158c25 89 66 168 155 168c72 0 115 -52 115 -117c0 -83 -54 -131 -120 -131c-16 0 -31 4 -37 8z" />
    <glyph glyph-name="Sacute" unicode="&#x15a;" horiz-adv-x="599" 
d="M240 939h213c-40 -91 -121 -163 -240 -213h-6c28 53 33 140 33 213zM300 692c-63 0 -107 -37 -107 -93c0 -76 70 -102 151 -129c109 -37 238 -77 238 -250c0 -143 -128 -230 -285 -230c-82 0 -140 25 -184 25c-27 0 -50 -9 -74 -25l-21 238h2c72 -129 178 -220 276 -220
c79 0 123 37 123 103c0 94 -102 116 -203 152c-97 34 -193 82 -193 223c0 137 106 224 277 224c73 0 125 -25 170 -25c21 0 43 13 60 25l4 -201h-2c-70 111 -130 183 -232 183z" />
    <glyph glyph-name="sacute" unicode="&#x15b;" horiz-adv-x="481" 
d="M182 749h213c-40 -91 -121 -163 -240 -213h-6c28 53 33 140 33 213zM213 494c-36 0 -62 -16 -62 -48c0 -44 37 -52 124 -83c127 -45 186 -91 186 -197c0 -104 -81 -176 -215 -176c-69 0 -118 19 -157 19c-28 0 -40 -11 -55 -20l-11 178h2c64 -108 135 -161 221 -161
c44 0 73 17 73 57c0 46 -40 55 -108 79c-127 44 -188 96 -188 202c0 97 80 166 190 166c63 0 105 -22 142 -22c25 0 41 8 60 23v-160h-2c-48 89 -134 143 -200 143z" />
    <glyph glyph-name="Scircumflex" unicode="&#x15c;" horiz-adv-x="599" 
d="M495 720c-75 16 -141 46 -193 79c-52 -33 -118 -63 -193 -79h-12c76 75 170 188 203 257h4c33 -69 127 -182 203 -257h-12zM300 692c-63 0 -107 -37 -107 -93c0 -76 70 -102 151 -129c109 -37 238 -77 238 -250c0 -143 -128 -230 -285 -230c-82 0 -140 25 -184 25
c-27 0 -50 -9 -74 -25l-21 238h2c72 -129 178 -220 276 -220c79 0 123 37 123 103c0 94 -102 116 -203 152c-97 34 -193 82 -193 223c0 137 106 224 277 224c73 0 125 -25 170 -25c21 0 43 13 60 25l4 -201h-2c-70 111 -130 183 -232 183z" />
    <glyph glyph-name="scircumflex" unicode="&#x15d;" horiz-adv-x="481" 
d="M435 525c-75 16 -141 46 -193 79c-52 -33 -118 -63 -193 -79h-12c76 75 170 188 203 257h4c33 -69 127 -182 203 -257h-12zM213 494c-36 0 -62 -16 -62 -48c0 -44 37 -52 124 -83c127 -45 186 -91 186 -197c0 -104 -81 -176 -215 -176c-69 0 -118 19 -157 19
c-28 0 -40 -11 -55 -20l-11 178h2c64 -108 135 -161 221 -161c44 0 73 17 73 57c0 46 -40 55 -108 79c-127 44 -188 96 -188 202c0 97 80 166 190 166c63 0 105 -22 142 -22c25 0 41 8 60 23v-160h-2c-48 89 -134 143 -200 143z" />
    <glyph glyph-name="uni015E" unicode="&#x15e;" horiz-adv-x="599" 
d="M275 -224c-76 0 -124 48 -134 92l7 6c13 -27 31 -49 65 -49c26 0 43 20 43 48c0 40 -28 54 -69 56l50 65c-51 7 -91 21 -124 21c-27 0 -50 -9 -74 -25l-21 238h2c72 -129 178 -220 276 -220c79 0 123 37 123 103c0 94 -102 116 -203 152c-97 34 -193 82 -193 223
c0 137 106 224 277 224c73 0 125 -25 170 -25c21 0 43 13 60 25l4 -201h-2c-70 111 -130 183 -232 183c-63 0 -107 -37 -107 -93c0 -76 70 -102 151 -129c109 -37 238 -77 238 -250c0 -143 -128 -230 -285 -230c-15 0 -29 1 -42 2l-28 -35c106 6 164 -27 164 -92
c0 -58 -57 -89 -116 -89z" />
    <glyph glyph-name="uni015F" unicode="&#x15f;" horiz-adv-x="481" 
d="M215 -224c-76 0 -124 48 -134 92l7 6c13 -27 31 -49 65 -49c26 0 43 20 43 48c0 40 -28 54 -69 56l52 67c-36 5 -65 13 -90 13c-28 0 -40 -11 -55 -20l-11 178h2c64 -108 135 -161 221 -161c44 0 73 17 73 57c0 46 -40 55 -108 79c-127 44 -188 96 -188 202
c0 97 80 166 190 166c63 0 105 -22 142 -22c25 0 41 8 60 23v-160h-2c-48 89 -134 143 -200 143c-36 0 -62 -16 -62 -48c0 -44 37 -52 124 -83c127 -45 186 -91 186 -197c0 -104 -81 -176 -215 -176c-18 0 -35 1 -50 3l-29 -36c106 6 164 -27 164 -92
c0 -58 -57 -89 -116 -89z" />
    <glyph glyph-name="Scaron" unicode="&#x160;" horiz-adv-x="599" 
d="M109 982c75 -16 141 -46 193 -79c52 33 118 63 193 79h12c-76 -75 -170 -188 -203 -257h-4c-33 69 -127 182 -203 257h12zM300 692c-63 0 -107 -37 -107 -93c0 -76 70 -102 151 -129c109 -37 238 -77 238 -250c0 -143 -128 -230 -285 -230c-82 0 -140 25 -184 25
c-27 0 -50 -9 -74 -25l-21 238h2c72 -129 178 -220 276 -220c79 0 123 37 123 103c0 94 -102 116 -203 152c-97 34 -193 82 -193 223c0 137 106 224 277 224c73 0 125 -25 170 -25c21 0 43 13 60 25l4 -201h-2c-70 111 -130 183 -232 183z" />
    <glyph glyph-name="scaron" unicode="&#x161;" horiz-adv-x="481" 
d="M49 782c75 -16 141 -46 193 -79c52 33 118 63 193 79h12c-76 -75 -170 -188 -203 -257h-4c-33 69 -127 182 -203 257h12zM213 494c-36 0 -62 -16 -62 -48c0 -44 37 -52 124 -83c127 -45 186 -91 186 -197c0 -104 -81 -176 -215 -176c-69 0 -118 19 -157 19
c-28 0 -40 -11 -55 -20l-11 178h2c64 -108 135 -161 221 -161c44 0 73 17 73 57c0 46 -40 55 -108 79c-127 44 -188 96 -188 202c0 97 80 166 190 166c63 0 105 -22 142 -22c25 0 41 8 60 23v-160h-2c-48 89 -134 143 -200 143z" />
    <glyph glyph-name="uni0162" unicode="&#x162;" horiz-adv-x="790" 
d="M423 -224c-76 0 -124 48 -134 92l7 6c13 -27 31 -49 65 -49c26 0 43 20 43 48c0 40 -28 54 -69 56l55 71h-170v2c43 34 54 50 54 116v555h-21c-104 0 -145 -70 -242 -219h-2l34 256c16 -7 40 -10 82 -10h540c42 0 66 3 82 10l34 -256h-2c-97 149 -138 219 -242 219h-21
v-555c0 -66 11 -82 54 -116v-2h-161l-34 -43c106 6 164 -27 164 -92c0 -58 -57 -89 -116 -89z" />
    <glyph glyph-name="uni0163" unicode="&#x163;" horiz-adv-x="431" 
d="M253 -223c-76 0 -124 48 -134 92l7 6c13 -27 31 -49 65 -49c26 0 43 20 43 48c0 40 -28 54 -69 56l47 60c-94 5 -166 61 -165 181l3 304h-45v14c113 24 211 84 259 186h11v-175h147l-5 -25h-142v-312c0 -43 18 -70 56 -70c43 0 72 39 85 106l14 -6
c-16 -97 -68 -203 -200 -203l-25 -32c106 6 164 -27 164 -92c0 -58 -57 -89 -116 -89z" />
    <glyph glyph-name="Tcaron" unicode="&#x164;" horiz-adv-x="790" 
d="M202 982c75 -16 141 -46 193 -79c52 33 118 63 193 79h12c-76 -75 -170 -188 -203 -257h-4c-33 69 -127 182 -203 257h12zM125 700h540c42 0 66 3 82 10l34 -256h-2c-97 149 -138 219 -242 219h-21v-555c0 -66 11 -82 54 -116v-2h-350v2c43 34 54 50 54 116v555h-21
c-104 0 -145 -70 -242 -219h-2l34 256c16 -7 40 -10 82 -10z" />
    <glyph glyph-name="tcaron" unicode="&#x165;" horiz-adv-x="431" 
d="M501 769c-23 -91 -78 -172 -183 -234h-4c12 70 18 156 13 234h174zM416 199l14 -6c-16 -97 -68 -203 -206 -203c-100 0 -178 56 -177 181l3 304h-45v14c113 24 211 84 259 186h11v-175h147l-5 -25h-142v-312c0 -43 18 -70 56 -70c43 0 72 39 85 106z" />
    <glyph glyph-name="Tbar" unicode="&#x166;" horiz-adv-x="790" 
d="M570 2v-2h-350v2c43 34 54 50 54 116v231h-103v33h103v291h-21c-104 0 -145 -70 -242 -219h-2l34 256c16 -7 40 -10 82 -10h540c42 0 66 3 82 10l34 -256h-2c-97 149 -138 219 -242 219h-21v-291h103v-33h-103v-231c0 -66 11 -82 54 -116z" />
    <glyph glyph-name="tbar" unicode="&#x167;" horiz-adv-x="436" 
d="M443 193c-16 -97 -68 -203 -206 -203c-100 0 -178 56 -177 181l2 164h-45v25h45l1 115h-45v14c113 24 211 84 259 186h11v-175h147l-5 -25h-142v-115h138v-25h-138v-172c0 -43 18 -70 56 -70c43 0 72 39 85 106z" />
    <glyph glyph-name="Utilde" unicode="&#x168;" horiz-adv-x="725" 
d="M599 940c0 -115 -52 -191 -127 -191c-76 0 -107 44 -172 44c-39 0 -69 -15 -86 -55h-3c0 115 52 191 127 191c76 0 107 -44 172 -44c39 0 69 15 86 55h3zM664 545v-272c0 -191 -108 -283 -287 -283c-177 0 -316 92 -316 284v308c0 66 -11 82 -54 116v2h350v-2
c-43 -34 -54 -50 -54 -116v-309c0 -135 55 -212 159 -212c96 0 168 76 168 213v260c0 85 -22 134 -87 164v2h195v-2c-54 -34 -74 -79 -74 -153z" />
    <glyph glyph-name="utilde" unicode="&#x169;" horiz-adv-x="659" 
d="M522 750c0 -115 -52 -191 -127 -191c-76 0 -107 44 -172 44c-39 0 -69 -15 -86 -55h-3c0 115 52 191 127 191c76 0 107 -44 172 -44c39 0 69 15 86 55h3zM379 196v192c0 73 -2 79 -48 110v2h276v-391c0 -66 0 -75 41 -107v-2h-269v126c-23 -87 -85 -136 -169 -136
c-117 0 -161 87 -161 174v224c0 73 -2 79 -48 110v2h276v-349c0 -32 18 -57 48 -57c34 0 54 24 54 102z" />
    <glyph glyph-name="Umacron" unicode="&#x16a;" horiz-adv-x="725" 
d="M569 785h-328v39h328v-39zM664 545v-272c0 -191 -108 -283 -287 -283c-177 0 -316 92 -316 284v308c0 66 -11 82 -54 116v2h350v-2c-43 -34 -54 -50 -54 -116v-309c0 -135 55 -212 159 -212c96 0 168 76 168 213v260c0 85 -22 134 -87 164v2h195v-2
c-54 -34 -74 -79 -74 -153z" />
    <glyph glyph-name="umacron" unicode="&#x16b;" horiz-adv-x="659" 
d="M492 595h-328v39h328v-39zM379 196v192c0 73 -2 79 -48 110v2h276v-391c0 -66 0 -75 41 -107v-2h-269v126c-23 -87 -85 -136 -169 -136c-117 0 -161 87 -161 174v224c0 73 -2 79 -48 110v2h276v-349c0 -32 18 -57 48 -57c34 0 54 24 54 102z" />
    <glyph glyph-name="Ubreve" unicode="&#x16c;" horiz-adv-x="725" 
d="M578 945c0 -132 -69 -219 -173 -219s-173 87 -173 219h4c14 -60 104 -82 169 -82s155 22 169 82h4zM664 545v-272c0 -191 -108 -283 -287 -283c-177 0 -316 92 -316 284v308c0 66 -11 82 -54 116v2h350v-2c-43 -34 -54 -50 -54 -116v-309c0 -135 55 -212 159 -212
c96 0 168 76 168 213v260c0 85 -22 134 -87 164v2h195v-2c-54 -34 -74 -79 -74 -153z" />
    <glyph glyph-name="ubreve" unicode="&#x16d;" horiz-adv-x="659" 
d="M501 768c0 -132 -69 -219 -173 -219s-173 87 -173 219h4c14 -60 104 -82 169 -82s155 22 169 82h4zM379 196v192c0 73 -2 79 -48 110v2h276v-391c0 -66 0 -75 41 -107v-2h-269v126c-23 -87 -85 -136 -169 -136c-117 0 -161 87 -161 174v224c0 73 -2 79 -48 110v2h276
v-349c0 -32 18 -57 48 -57c34 0 54 24 54 102z" />
    <glyph glyph-name="Uring" unicode="&#x16e;" horiz-adv-x="725" 
d="M405 951c62 0 115 -52 115 -114c0 -63 -53 -114 -115 -114s-115 51 -115 114c0 62 53 114 115 114zM405 757c43 0 81 36 81 80c0 43 -38 80 -81 80s-80 -37 -80 -80c0 -44 37 -80 80 -80zM664 545v-272c0 -191 -108 -283 -287 -283c-177 0 -316 92 -316 284v308
c0 66 -11 82 -54 116v2h350v-2c-43 -34 -54 -50 -54 -116v-309c0 -135 55 -212 159 -212c96 0 168 76 168 213v260c0 85 -22 134 -87 164v2h195v-2c-54 -34 -74 -79 -74 -153z" />
    <glyph glyph-name="uring" unicode="&#x16f;" horiz-adv-x="659" 
d="M328 761c62 0 115 -52 115 -114c0 -63 -53 -114 -115 -114s-115 51 -115 114c0 62 53 114 115 114zM328 567c43 0 81 36 81 80c0 43 -38 80 -81 80s-80 -37 -80 -80c0 -44 37 -80 80 -80zM379 196v192c0 73 -2 79 -48 110v2h276v-391c0 -66 0 -75 41 -107v-2h-269v126
c-23 -87 -85 -136 -169 -136c-117 0 -161 87 -161 174v224c0 73 -2 79 -48 110v2h276v-349c0 -32 18 -57 48 -57c34 0 54 24 54 102z" />
    <glyph glyph-name="Uhungarumlaut" unicode="&#x170;" horiz-adv-x="725" 
d="M302 939h193c-40 -91 -101 -163 -220 -213h-6c28 53 33 140 33 213zM520 939h193c-40 -91 -101 -163 -220 -213h-6c28 53 33 140 33 213zM664 545v-272c0 -191 -108 -283 -287 -283c-177 0 -316 92 -316 284v308c0 66 -11 82 -54 116v2h350v-2c-43 -34 -54 -50 -54 -116
v-309c0 -135 55 -212 159 -212c96 0 168 76 168 213v260c0 85 -22 134 -87 164v2h195v-2c-54 -34 -74 -79 -74 -153z" />
    <glyph glyph-name="uhungarumlaut" unicode="&#x171;" horiz-adv-x="659" 
d="M209 749h193c-40 -91 -101 -163 -220 -213h-6c28 53 33 140 33 213zM427 749h193c-40 -91 -101 -163 -220 -213h-6c28 53 33 140 33 213zM379 196v192c0 73 -2 79 -48 110v2h276v-391c0 -66 0 -75 41 -107v-2h-269v126c-23 -87 -85 -136 -169 -136
c-117 0 -161 87 -161 174v224c0 73 -2 79 -48 110v2h276v-349c0 -32 18 -57 48 -57c34 0 54 24 54 102z" />
    <glyph glyph-name="Uogonek" unicode="&#x172;" horiz-adv-x="725" 
d="M422 -243c-65 0 -116 39 -116 95c0 67 72 106 148 145c-24 -5 -50 -7 -77 -7c-177 0 -316 92 -316 284v308c0 66 -11 82 -54 116v2h350v-2c-43 -34 -54 -50 -54 -116v-309c0 -135 55 -212 159 -212c96 0 168 76 168 213v260c0 85 -22 134 -87 164v2h195v-2
c-54 -34 -74 -79 -74 -152v-273c0 -144 -53 -213 -163 -266c-63 -30 -74 -79 -74 -108c0 -45 28 -66 61 -66c35 0 57 9 86 46l3 -3c-28 -75 -74 -119 -155 -119z" />
    <glyph glyph-name="uogonek" unicode="&#x173;" horiz-adv-x="659" 
d="M493 -124c-28 -75 -74 -119 -155 -119c-65 0 -116 39 -116 95c0 70 77 108 157 149v125c-23 -87 -85 -136 -169 -136c-117 0 -161 87 -161 174v224c0 73 -2 79 -48 110v2h276v-349c0 -32 18 -57 48 -57c34 0 54 24 54 102v192c0 73 -2 79 -48 110v2h276v-391
c0 -66 0 -75 41 -107v-2h-245c-48 -38 -60 -73 -60 -101c0 -45 28 -66 61 -66c35 0 57 9 86 46z" />
    <glyph glyph-name="Wcircumflex" unicode="&#x174;" horiz-adv-x="1011" 
d="M710 720c-75 16 -141 46 -193 79c-52 -33 -118 -63 -193 -79h-12c76 75 170 188 203 257h4c33 -69 127 -182 203 -257h-12zM686 -10l-181 450l-183 -450h-6l-253 598c-25 60 -45 84 -73 110v2h351v-2c-27 -18 -38 -35 -38 -61c0 -17 3 -32 11 -52l112 -270l64 161
l-45 112c-25 60 -45 84 -73 110v2h346v-2c-27 -18 -38 -35 -38 -61c0 -17 4 -32 11 -52l100 -277l104 268c5 14 8 27 8 39c-1 33 -20 61 -60 83v2h178v-2c-33 -27 -64 -60 -89 -120l-240 -588h-6z" />
    <glyph glyph-name="wcircumflex" unicode="&#x175;" horiz-adv-x="810" 
d="M602 525c-75 16 -141 46 -193 79c-52 -33 -118 -63 -193 -79h-12c76 75 170 188 203 257h4c33 -69 127 -182 203 -257h-12zM555 -10l-137 314l-161 -314h-2l-196 402c-26 53 -36 74 -69 106v2h301v-2c-12 -14 -18 -24 -18 -45c0 -20 6 -36 14 -53l76 -153l44 83l-27 62
c-27 55 -36 73 -69 106v2h307v-2c-20 -14 -30 -27 -30 -48c0 -16 5 -32 12 -51l53 -142l62 138c5 11 7 23 7 34c0 29 -18 56 -55 69v2h153v-2c-34 -31 -48 -47 -77 -106l-186 -402h-2z" />
    <glyph glyph-name="Ycircumflex" unicode="&#x176;" horiz-adv-x="737" 
d="M588 720c-75 16 -141 46 -193 79c-52 -33 -118 -63 -193 -79h-12c76 75 170 188 203 257h4c33 -69 127 -182 203 -257h-12zM468 341l138 234c9 15 15 31 15 47c0 28 -15 55 -55 76v2h181v-2c-43 -33 -69 -64 -101 -118l-168 -283v-179c0 -66 11 -82 54 -116v-2h-337v2
c43 34 54 50 54 116v179l-168 283c-32 54 -53 85 -91 118v2h365v-2c-28 -24 -37 -39 -37 -61c0 -16 5 -31 14 -46z" />
    <glyph glyph-name="ycircumflex" unicode="&#x177;" horiz-adv-x="563" 
d="M500 525c-75 16 -141 46 -193 79c-52 -33 -118 -63 -193 -79h-12c76 75 170 188 203 257h4c33 -69 127 -182 203 -257h-12zM284 -80l11 25l-232 447c-30 58 -40 72 -73 106v2h324v-2c-20 -14 -27 -25 -27 -46c0 -16 5 -35 14 -53l94 -193l69 176c6 16 9 30 9 43
c0 37 -24 61 -57 73v2h157v-2c-34 -30 -52 -48 -76 -108l-204 -501c-32 -79 -74 -115 -136 -115s-110 36 -110 101c0 61 43 96 96 96c10 0 16 -1 24 -3c-14 -11 -22 -25 -22 -47c0 -33 26 -58 60 -58c37 0 62 18 79 57z" />
    <glyph glyph-name="Ydieresis" unicode="&#x178;" horiz-adv-x="737" 
d="M280 732c-57 0 -101 47 -101 103c0 57 44 106 101 106c58 0 104 -49 104 -106c0 -56 -46 -103 -104 -103zM508 732c-57 0 -104 47 -104 103c0 57 47 106 104 106s103 -49 103 -106c0 -56 -46 -103 -103 -103zM468 341l138 234c9 15 15 31 15 47c0 28 -15 55 -55 76v2h181
v-2c-43 -33 -69 -64 -101 -118l-168 -283v-179c0 -66 11 -82 54 -116v-2h-337v2c43 34 54 50 54 116v179l-168 283c-32 54 -53 85 -91 118v2h365v-2c-28 -24 -37 -39 -37 -61c0 -16 5 -31 14 -46z" />
    <glyph glyph-name="Zacute" unicode="&#x179;" horiz-adv-x="716" 
d="M310 939h213c-40 -91 -121 -163 -240 -213h-6c28 53 33 140 33 213zM672 0h-659v2l406 671h-138c-121 0 -164 -78 -242 -199h-2l34 236c16 -7 40 -10 82 -10h543v-2l-393 -671h128c133 0 176 67 270 218h2z" />
    <glyph glyph-name="zacute" unicode="&#x17a;" horiz-adv-x="548" 
d="M222 749h213c-40 -91 -121 -163 -240 -213h-6c28 53 33 140 33 213zM278 480h-43c-87 0 -136 -62 -206 -164h-2l14 196c14 -8 43 -12 63 -12h423v-2l-264 -478h35c106 0 134 52 233 180h2l-29 -200h-494v2z" />
    <glyph glyph-name="Zdotaccent" unicode="&#x17b;" horiz-adv-x="716" 
d="M251 840c0 65 51 114 120 114s122 -49 122 -114c0 -64 -53 -114 -122 -114s-120 50 -120 114zM672 0h-659v2l406 671h-138c-121 0 -164 -78 -242 -199h-2l34 236c16 -7 40 -10 82 -10h543v-2l-393 -671h128c133 0 176 67 270 218h2z" />
    <glyph glyph-name="zdotaccent" unicode="&#x17c;" horiz-adv-x="548" 
d="M161 647c0 65 51 114 120 114s122 -49 122 -114c0 -64 -53 -114 -122 -114s-120 50 -120 114zM278 480h-43c-87 0 -136 -62 -206 -164h-2l14 196c14 -8 43 -12 63 -12h423v-2l-264 -478h35c106 0 134 52 233 180h2l-29 -200h-494v2z" />
    <glyph glyph-name="Zcaron" unicode="&#x17d;" horiz-adv-x="716" 
d="M179 982c75 -16 141 -46 193 -79c52 33 118 63 193 79h12c-76 -75 -170 -188 -203 -257h-4c-33 69 -127 182 -203 257h12zM672 0h-659v2l406 671h-138c-121 0 -164 -78 -242 -199h-2l34 236c16 -7 40 -10 82 -10h543v-2l-393 -671h128c133 0 176 67 270 218h2z" />
    <glyph glyph-name="zcaron" unicode="&#x17e;" horiz-adv-x="548" 
d="M89 782c75 -16 141 -46 193 -79c52 33 118 63 193 79h12c-76 -75 -170 -188 -203 -257h-4c-33 69 -127 182 -203 257h12zM278 480h-43c-87 0 -136 -62 -206 -164h-2l14 196c14 -8 43 -12 63 -12h423v-2l-264 -478h35c106 0 134 52 233 180h2l-29 -200h-494v2z" />
    <glyph glyph-name="uni0192" unicode="&#x192;" horiz-adv-x="645" 
d="M22 -218c-100 0 -178 32 -178 110c0 56 48 90 98 90c33 0 62 -10 76 -24c-33 -8 -53 -35 -53 -87c0 -40 20 -73 57 -73c29 0 48 27 55 72l76 466h-80l4 25h80l17 106c23 139 110 243 291 243c100 0 179 -32 179 -114c0 -59 -50 -94 -103 -94c-34 0 -64 10 -79 25
c34 8 53 39 53 93c0 42 -13 74 -50 74c-29 0 -47 -24 -55 -72l-42 -261h101l-4 -25h-101l-43 -264c-30 -185 -118 -290 -299 -290z" />
    <glyph glyph-name="AEacute" unicode="&#x1fc;" horiz-adv-x="1096" 
d="M642 939h213c-40 -91 -121 -163 -240 -213h-6c28 53 33 140 33 213zM491 670l-252 -388h252v388zM176 2v-2h-176v2c33 26 53 52 89 108l324 499c7 11 10 21 10 31c0 22 -19 40 -51 58v2h574c42 0 66 3 82 10l34 -206h-2c-61 103 -109 169 -242 169h-85v-293h64
c81 0 118 23 148 116h2v-262h-2c-30 92 -67 116 -148 116h-64v-323h98c144 0 191 91 251 188h2l-32 -215h-615v2c43 34 54 50 54 116v133h-272l-75 -115c-12 -18 -19 -39 -19 -60c0 -31 14 -60 51 -74z" />
    <glyph glyph-name="aeacute" unicode="&#x1fd;" horiz-adv-x="847" 
d="M387 749h213c-40 -91 -121 -163 -240 -213h-6c28 53 33 140 33 213zM828 158c-34 -106 -131 -168 -246 -168c-100 0 -187 40 -235 115c-31 -56 -89 -112 -182 -112c-78 0 -151 40 -151 126c0 116 109 136 230 158l76 14v119c0 39 -11 82 -54 82c-33 0 -55 -30 -55 -72
c0 -46 17 -66 49 -66c7 0 14 1 22 3c-27 -44 -74 -66 -133 -66s-108 35 -108 90c0 83 95 129 232 129c73 0 121 -17 150 -54c45 32 102 54 162 54c170 0 252 -107 252 -236h-300c0 -120 64 -182 152 -182c53 0 100 19 132 70zM537 294h88c0 118 -4 200 -40 200
c-41 0 -47 -82 -48 -200zM320 273l-28 -7c-46 -11 -61 -50 -61 -112c0 -43 11 -79 43 -79c38 0 46 42 46 81v117z" />
    <glyph glyph-name="Oslashacute" unicode="&#x1fe;" horiz-adv-x="778" 
d="M327 939h213c-40 -91 -121 -163 -240 -213h-6c28 53 33 140 33 213zM281 350c0 -33 0 -64 1 -91l212 225c-7 142 -33 208 -105 208c-92 0 -108 -107 -108 -342zM389 8c92 0 108 107 108 342c0 34 0 65 -1 94l-212 -225c7 -144 32 -211 105 -211zM389 -10
c-97 0 -181 30 -244 82l-80 -85l-22 18l81 86c-65 63 -103 154 -103 259c0 210 150 360 368 360c97 0 180 -29 243 -81l72 77l22 -18l-73 -77c66 -64 104 -155 104 -261c0 -210 -150 -360 -368 -360z" />
    <glyph glyph-name="oslashacute" unicode="&#x1ff;" horiz-adv-x="606" 
d="M243 749h213c-40 -91 -121 -163 -240 -213h-6c28 53 33 140 33 213zM303 -10c-68 0 -132 19 -182 53l-52 -53l-21 20l50 51c-53 45 -86 109 -86 189c0 161 136 260 291 260c66 0 129 -18 179 -51l51 52l21 -20l-48 -50c54 -45 88 -110 88 -191
c0 -161 -136 -260 -291 -260zM251 250v-30l103 106c-2 118 -13 168 -51 168c-46 0 -52 -72 -52 -244zM303 6c46 0 52 72 52 244v35l-103 -106c2 -121 12 -173 51 -173z" />
    <glyph glyph-name="uni0218" unicode="&#x218;" horiz-adv-x="599" 
d="M300 692c-63 0 -107 -37 -107 -93c0 -76 70 -102 151 -129c109 -37 238 -77 238 -250c0 -143 -128 -230 -285 -230c-82 0 -140 25 -184 25c-27 0 -50 -9 -74 -25l-21 238h2c72 -129 178 -220 276 -220c79 0 123 37 123 103c0 94 -102 116 -203 152
c-97 34 -193 82 -193 223c0 137 106 224 277 224c73 0 125 -25 170 -25c21 0 43 13 60 25l4 -201h-2c-70 111 -130 183 -232 183zM411 -134c0 -108 -91 -152 -202 -152v17c76 4 129 26 137 70c-11 -11 -35 -20 -64 -20c-51 0 -89 44 -89 97c0 55 47 97 104 97
c68 0 114 -46 114 -109z" />
    <glyph glyph-name="uni0219" unicode="&#x219;" horiz-adv-x="481" 
d="M213 494c-36 0 -62 -16 -62 -48c0 -44 37 -52 124 -83c127 -45 186 -91 186 -197c0 -104 -81 -176 -215 -176c-69 0 -118 19 -157 19c-28 0 -40 -11 -55 -20l-11 178h2c64 -108 135 -161 221 -161c44 0 73 17 73 57c0 46 -40 55 -108 79c-127 44 -188 96 -188 202
c0 97 80 166 190 166c63 0 105 -22 142 -22c25 0 41 8 60 23v-160h-2c-48 89 -134 143 -200 143zM351 -134c0 -108 -91 -152 -202 -152v17c76 4 129 26 137 70c-11 -11 -35 -20 -64 -20c-51 0 -89 44 -89 97c0 55 47 97 104 97c68 0 114 -46 114 -109z" />
    <glyph glyph-name="uni021A" unicode="&#x21a;" horiz-adv-x="790" 
d="M125 700h540c42 0 66 3 82 10l34 -256h-2c-97 149 -138 219 -242 219h-21v-555c0 -66 11 -82 54 -116v-2h-350v2c43 34 54 50 54 116v555h-21c-104 0 -145 -70 -242 -219h-2l34 256c16 -7 40 -10 82 -10zM504 -134c0 -108 -91 -152 -202 -152v17c76 4 129 26 137 70
c-11 -11 -35 -20 -64 -20c-51 0 -89 44 -89 97c0 55 47 97 104 97c68 0 114 -46 114 -109z" />
    <glyph glyph-name="uni021B" unicode="&#x21b;" horiz-adv-x="431" 
d="M416 199l14 -6c-16 -97 -68 -203 -206 -203c-100 0 -178 56 -177 181l3 304h-45v14c113 24 211 84 259 186h11v-175h147l-5 -25h-142v-312c0 -43 18 -70 56 -70c43 0 72 39 85 106zM326 -134c0 -108 -91 -152 -202 -152v17c76 4 129 26 137 70c-11 -11 -35 -20 -64 -20
c-51 0 -89 44 -89 97c0 55 47 97 104 97c68 0 114 -46 114 -109z" />
    <glyph glyph-name="uni0237" unicode="&#x237;" horiz-adv-x="324" 
d="M280 -8c0 -149 -121 -217 -270 -217c-98 0 -183 31 -183 109c0 56 53 90 110 90c36 0 68 -10 84 -24c-36 -8 -59 -37 -59 -89c0 -40 13 -70 48 -70c31 0 42 29 42 64v533c-1 73 -2 79 -48 110v2h276v-508z" />
    <glyph glyph-name="uni02BB" unicode="&#x2bb;" 
d="M141 642c0 108 91 152 202 152v-17c-76 -4 -129 -26 -137 -70c11 11 35 20 64 20c51 0 89 -44 89 -97c0 -55 -47 -97 -104 -97c-68 0 -114 46 -114 109z" />
    <glyph glyph-name="circumflex" unicode="&#x2c6;" 
d="M443 525c-75 16 -141 46 -193 79c-52 -33 -118 -63 -193 -79h-12c76 75 170 188 203 257h4c33 -69 127 -182 203 -257h-12z" />
    <glyph glyph-name="caron" unicode="&#x2c7;" 
d="M57 782c75 -16 141 -46 193 -79c52 33 118 63 193 79h12c-76 -75 -170 -188 -203 -257h-4c-33 69 -127 182 -203 257h12z" />
    <glyph glyph-name="breve" unicode="&#x2d8;" 
d="M423 768c0 -132 -69 -219 -173 -219s-173 87 -173 219h4c14 -60 104 -82 169 -82s155 22 169 82h4z" />
    <glyph glyph-name="dotaccent" unicode="&#x2d9;" 
d="M129 647c0 65 51 114 120 114s122 -49 122 -114c0 -64 -53 -114 -122 -114s-120 50 -120 114z" />
    <glyph glyph-name="ring" unicode="&#x2da;" horiz-adv-x="501" 
d="M250 761c62 0 115 -52 115 -114c0 -63 -53 -114 -115 -114s-115 51 -115 114c0 62 53 114 115 114zM250 567c43 0 81 36 81 80c0 43 -38 80 -81 80s-80 -37 -80 -80c0 -44 37 -80 80 -80z" />
    <glyph glyph-name="ogonek" unicode="&#x2db;" 
d="M139 -148c0 79 99 118 188 165l6 -7c-59 -42 -73 -81 -73 -111c0 -45 28 -66 61 -66c35 0 57 9 86 46l3 -3c-28 -75 -74 -119 -155 -119c-65 0 -116 39 -116 95z" />
    <glyph glyph-name="tilde" unicode="&#x2dc;" 
d="M444 750c0 -115 -52 -191 -127 -191c-76 0 -107 44 -172 44c-39 0 -69 -15 -86 -55h-3c0 115 52 191 127 191c76 0 107 -44 172 -44c39 0 69 15 86 55h3z" />
    <glyph glyph-name="hungarumlaut" unicode="&#x2dd;" 
d="M61 749h193c-40 -91 -101 -163 -220 -213h-6c28 53 33 140 33 213zM279 749h193c-40 -91 -101 -163 -220 -213h-6c28 53 33 140 33 213z" />
    <glyph glyph-name="afii10023" unicode="&#x401;" horiz-adv-x="672" 
d="M13 0v2c43 34 54 50 54 116v464c0 66 -11 82 -54 116v2h509c42 0 66 3 82 10l34 -206h-2c-61 103 -109 169 -242 169h-85v-293h64c81 0 118 23 148 116h2v-262h-2c-30 92 -67 116 -148 116h-64v-323h98c144 0 191 91 251 188h2l-32 -215h-615zM231 732
c-57 0 -101 47 -101 103c0 57 44 106 101 106c58 0 104 -49 104 -106c0 -56 -46 -103 -104 -103zM459 732c-57 0 -104 47 -104 103c0 57 47 106 104 106s103 -49 103 -106c0 -56 -46 -103 -103 -103z" />
    <glyph glyph-name="afii10051" unicode="&#x402;" horiz-adv-x="1058" 
d="M220 0v2c43 34 54 50 54 116v555h-5c-104 0 -145 -70 -242 -219h-2l34 256c16 -7 40 -10 82 -10h540c42 0 66 3 82 10l34 -256h-2c-97 149 -138 219 -242 219h-37v-387c32 73 124 131 229 131c210 0 303 -93 303 -212c0 -125 -92 -215 -311 -215c-96 0 -165 40 -165 114
c0 51 47 103 107 103c44 0 73 -19 89 -55c-8 2 -19 8 -34 8c-33 0 -48 -42 -48 -78c0 -49 23 -73 57 -73c61 0 78 62 78 160c0 121 -50 174 -138 174c-60 0 -167 -32 -167 -152v-73c0 -66 11 -82 54 -116v-2h-350z" />
    <glyph glyph-name="afii10052" unicode="&#x403;" horiz-adv-x="630" 
d="M13 0v2c43 34 54 50 54 116v464c0 66 -11 82 -54 116v2h492c42 0 66 3 82 10l34 -256h-2c-97 149 -138 219 -242 219h-68v-555c0 -66 17 -82 74 -116v-2h-370zM273 939h213c-40 -91 -121 -163 -240 -213h-6c28 53 33 140 33 213z" />
    <glyph glyph-name="afii10053" unicode="&#x404;" horiz-adv-x="687" 
d="M276 379h245v-30h-242c17 -152 109 -235 223 -235c66 0 127 19 169 99l5 -3c-39 -136 -149 -220 -311 -220c-198 0 -344 137 -344 345c0 226 184 375 397 375c127 0 258 -32 258 -156c0 -77 -57 -123 -123 -123c-58 0 -111 36 -122 103h2c5 -5 12 -9 23 -9
c30 0 51 33 51 83c0 57 -31 84 -79 84c-105 0 -152 -137 -152 -289v-24z" />
    <glyph glyph-name="afii10054" unicode="&#x405;" horiz-adv-x="599" 
d="M39 -10l-21 238h2c72 -129 178 -220 276 -220c79 0 123 37 123 103c0 94 -102 116 -203 152c-97 34 -193 82 -193 223c0 137 106 224 277 224c73 0 125 -25 170 -25c21 0 43 13 60 25l4 -201h-2c-70 111 -130 183 -232 183c-63 0 -107 -37 -107 -93
c0 -76 70 -102 151 -129c109 -37 238 -77 238 -250c0 -143 -128 -230 -285 -230c-82 0 -140 25 -184 25c-27 0 -50 -9 -74 -25z" />
    <glyph glyph-name="afii10055" unicode="&#x406;" horiz-adv-x="376" 
d="M13 0v2c43 34 54 50 54 116v464c0 66 -11 82 -54 116v2h350v-2c-43 -34 -54 -50 -54 -116v-464c0 -66 11 -82 54 -116v-2h-350z" />
    <glyph glyph-name="afii10056" unicode="&#x407;" horiz-adv-x="376" 
d="M13 0v2c43 34 54 50 54 116v464c0 66 -11 82 -54 116v2h350v-2c-43 -34 -54 -50 -54 -116v-464c0 -66 11 -82 54 -116v-2h-350zM73 734c-57 0 -101 47 -101 103c0 57 44 106 101 106c58 0 104 -49 104 -106c0 -56 -46 -103 -104 -103zM301 734c-57 0 -104 47 -104 103
c0 57 47 106 104 106s103 -49 103 -106c0 -56 -46 -103 -103 -103z" />
    <glyph glyph-name="afii10057" unicode="&#x408;" horiz-adv-x="648" 
d="M349 141v441c0 66 -11 82 -54 116v2h349v-2c-43 -34 -54 -50 -54 -116v-345c0 -189 -156 -247 -322 -247c-127 0 -274 54 -274 181c0 83 67 129 147 129c52 0 97 -20 120 -52c-54 3 -81 -50 -81 -112c0 -70 27 -127 88 -127c56 0 81 47 81 132z" />
    <glyph glyph-name="afii10058" unicode="&#x409;" horiz-adv-x="1132" 
d="M427 0v2c43 34 54 50 54 116v555h-128c-12 -211 -43 -406 -75 -500c-41 -121 -73 -183 -175 -183c-72 0 -115 52 -115 117c0 83 54 131 120 131c16 0 31 -4 37 -8c-21 -8 -33 -29 -33 -51c0 -40 24 -62 54 -62c28 0 61 17 85 85c40 112 62 315 62 370
c0 54 -19 106 -67 126v2h531v-2c-43 -34 -54 -50 -54 -116v-199h122c174 0 277 -71 277 -192c0 -120 -103 -191 -279 -191h-416zM723 27h28c94 0 144 67 144 164c0 98 -50 165 -144 165h-28v-329z" />
    <glyph glyph-name="afii10059" unicode="&#x40a;" horiz-adv-x="1185" 
d="M13 0v2c43 34 54 50 54 116v464c0 66 -11 82 -54 116v2h350v-2c-43 -34 -54 -50 -54 -116v-200h225v200c0 66 -11 82 -54 116v2h350v-2c-43 -34 -54 -50 -54 -116v-200h122c174 0 277 -70 277 -191c0 -120 -103 -191 -279 -191h-416v2c43 34 54 50 54 116v231h-225v-231
c0 -66 11 -82 54 -116v-2h-350zM776 27h28c94 0 144 67 144 164c0 98 -50 164 -144 164h-28v-328z" />
    <glyph glyph-name="afii10060" unicode="&#x40b;" horiz-adv-x="1023" 
d="M220 0v2c43 34 54 50 54 116v555h-5c-104 0 -145 -70 -242 -219h-2l34 256c16 -7 40 -10 82 -10h540c42 0 66 3 82 10l34 -256h-2c-97 149 -138 219 -242 219h-37v-301c58 19 146 40 230 40c138 0 207 -60 207 -194v-90c0 -66 10 -106 64 -126v-2h-343v2
c34 20 40 60 40 126v98c0 103 -33 141 -96 141c-31 0 -70 -8 -102 -19v-230c0 -66 11 -82 54 -116v-2h-350z" />
    <glyph glyph-name="afii10061" unicode="&#x40c;" horiz-adv-x="796" 
d="M13 0v2c43 34 54 50 54 116v464c0 66 -11 82 -54 116v2h350v-2c-43 -34 -54 -50 -54 -116v-213h10c41 0 100 19 151 156c44 120 84 185 186 185c72 0 115 -52 115 -117c0 -83 -54 -131 -120 -131c-16 0 -31 4 -37 8c21 8 33 29 33 51c0 40 -24 62 -54 62
c-28 0 -70 -7 -101 -85c-31 -76 -62 -111 -95 -129h35c109 0 233 -30 264 -149l25 -95c17 -63 37 -90 93 -123v-2h-298c-25 32 -38 65 -48 108l-36 159c-11 47 -34 75 -100 75h-23v-224c0 -66 11 -82 54 -116v-2h-350zM373 939h213c-40 -91 -121 -163 -240 -213h-6
c28 53 33 140 33 213z" />
    <glyph glyph-name="afii10062" unicode="&#x40e;" horiz-adv-x="749" 
d="M347 167l2 3l-262 410c-34 53 -60 91 -97 118v2h371v-2c-28 -24 -37 -39 -37 -61c0 -16 6 -31 14 -46l139 -221l131 203c24 38 26 93 -35 125v2h186v-2c-41 -25 -74 -60 -102 -104l-291 -457c-57 -90 -98 -146 -168 -146c-86 0 -133 52 -133 115c0 87 65 134 121 134
c26 0 55 -10 65 -20c-31 -4 -47 -34 -47 -63c0 -34 24 -54 56 -54c25 0 55 15 87 64zM423 739c-81 0 -131 47 -131 115c0 66 51 110 114 110c16 0 30 -4 36 -7c-20 -8 -32 -27 -32 -47c0 -36 23 -56 64 -56c39 0 125 30 169 109h12c-24 -81 -98 -224 -232 -224z" />
    <glyph glyph-name="afii10145" unicode="&#x40f;" horiz-adv-x="843" 
d="M13 0v2c43 34 54 50 54 116v464c0 66 -11 82 -54 116v2h350v-2c-43 -34 -54 -50 -54 -116v-555h225v555c0 66 -11 82 -54 116v2h350v-2c-43 -34 -54 -50 -54 -116v-464c0 -66 11 -82 54 -116v-2h-393c0 -64 63 -80 63 -151c0 -35 -32 -64 -81 -64c-48 0 -80 29 -80 64
c0 70 61 88 62 151h-388z" />
    <glyph glyph-name="afii10017" unicode="&#x410;" horiz-adv-x="770" 
d="M179 222h192l-98 200zM0 0v2c36 26 64 54 93 114l288 594h5l303 -598c30 -60 48 -84 81 -110v-2h-373v2c29 19 40 35 40 58c0 20 -5 35 -14 55l-37 76h-221l-30 -64c-7 -16 -11 -31 -11 -46c0 -32 18 -60 59 -79v-2h-183z" />
    <glyph glyph-name="afii10018" unicode="&#x411;" horiz-adv-x="734" 
d="M309 27h38c94 0 144 67 144 164c0 98 -50 165 -144 165h-38v-329zM13 0v2c43 34 54 50 54 116v464c0 66 -11 82 -54 116v2h532c42 0 66 3 82 10l30 -230h-2c-64 94 -134 193 -253 193h-93v-290h132c174 0 277 -71 277 -192c0 -120 -103 -191 -279 -191h-426z" />
    <glyph glyph-name="afii10019" unicode="&#x412;" horiz-adv-x="739" 
d="M309 373h14c80 0 131 57 131 150c0 94 -51 150 -131 150h-14v-300zM309 27h28c103 0 156 60 156 161c0 100 -53 160 -156 160h-28v-321zM679 527c0 -100 -87 -155 -187 -160v-3c112 -6 231 -52 231 -176c0 -137 -123 -188 -287 -188h-423v2c43 34 54 50 54 116v464
c0 66 -11 82 -54 116v2h413c151 0 253 -49 253 -173z" />
    <glyph glyph-name="afii10020" unicode="&#x413;" horiz-adv-x="630" 
d="M13 0v2c43 34 54 50 54 116v464c0 66 -11 82 -54 116v2h492c42 0 66 3 82 10l34 -256h-2c-97 149 -138 219 -242 219h-68v-555c0 -66 17 -82 74 -116v-2h-370z" />
    <glyph glyph-name="afii10021" unicode="&#x414;" horiz-adv-x="760" 
d="M-12 -209l11 235c78 12 130 61 180 216c46 142 79 313 79 367c0 36 -17 71 -55 89v2h521v-2c-43 -34 -54 -50 -54 -116v-467c0 -94 33 -95 76 -89l11 -235h-2c-76 136 -141 209 -279 209h-227c-121 0 -181 -63 -259 -209h-2zM117 27h311v646h-127
c-10 -116 -43 -270 -81 -400c-50 -171 -80 -212 -103 -246z" />
    <glyph glyph-name="afii10022" unicode="&#x415;" horiz-adv-x="672" 
d="M13 0v2c43 34 54 50 54 116v464c0 66 -11 82 -54 116v2h509c42 0 66 3 82 10l34 -206h-2c-61 103 -109 169 -242 169h-85v-293h64c81 0 118 23 148 116h2v-262h-2c-30 92 -67 116 -148 116h-64v-323h98c144 0 191 91 251 188h2l-32 -215h-615z" />
    <glyph glyph-name="afii10024" unicode="&#x416;" horiz-adv-x="1196" 
d="M-18 0v2c56 33 76 60 93 123l25 95c31 119 155 149 264 149h29c-31 18 -58 53 -89 129c-31 78 -73 85 -101 85c-30 0 -54 -22 -54 -62c0 -22 12 -43 33 -51c-6 -4 -21 -8 -37 -8c-66 0 -120 48 -120 131c0 65 43 117 115 117c102 0 144 -64 184 -185
c60 -146 112 -156 152 -156h1v213c0 66 -11 82 -54 116v2h350v-2c-43 -34 -54 -50 -54 -116v-213h1c40 0 92 10 152 156c40 121 82 185 184 185c72 0 115 -52 115 -117c0 -83 -54 -131 -120 -131c-16 0 -31 4 -37 8c21 8 33 29 33 51c0 40 -24 62 -54 62
c-28 0 -70 -7 -101 -85c-31 -76 -59 -111 -89 -129h29c109 0 233 -30 264 -149l25 -95c17 -63 37 -90 93 -123v-2h-298c-25 32 -38 65 -48 108l-36 159c-11 47 -34 75 -100 75h-13v-224c0 -66 11 -82 54 -116v-2h-350v2c43 34 54 50 54 116v224h-13c-66 0 -89 -28 -100 -75
l-36 -159c-10 -43 -23 -76 -48 -108h-298z" />
    <glyph glyph-name="afii10025" unicode="&#x417;" horiz-adv-x="631" 
d="M611 192c0 -136 -155 -202 -322 -202c-139 0 -272 51 -272 162c0 78 59 121 140 121c67 0 102 -23 115 -48h-2c-5 2 -10 3 -15 3c-37 1 -57 -38 -57 -101c0 -80 42 -118 91 -118c53 0 94 76 94 180c0 114 -40 168 -122 168h-58v25h57c87 0 108 67 108 163
c0 85 -24 143 -75 143c-102 0 -162 -95 -232 -206h-2l4 228c17 -12 39 -28 60 -28c45 0 97 28 170 28c159 0 292 -52 292 -169c0 -94 -91 -153 -203 -162v-3c129 -9 229 -63 229 -184z" />
    <glyph glyph-name="afii10026" unicode="&#x418;" horiz-adv-x="843" 
d="M13 0v2c43 34 54 50 54 116v464c0 66 -11 82 -54 116v2h350v-2c-43 -34 -54 -50 -54 -116v-452l241 570h280v-2c-43 -34 -54 -50 -54 -116v-464c0 -66 11 -82 54 -116v-2h-350v2c43 34 54 50 54 116v450l-241 -568h-280z" />
    <glyph glyph-name="afii10027" unicode="&#x419;" horiz-adv-x="843" 
d="M13 0v2c43 34 54 50 54 116v464c0 66 -11 82 -54 116v2h350v-2c-43 -34 -54 -50 -54 -116v-452l241 570h280v-2c-43 -34 -54 -50 -54 -116v-464c0 -66 11 -82 54 -116v-2h-350v2c43 34 54 50 54 116v450l-241 -568h-280zM463 739c-81 0 -131 47 -131 115
c0 66 51 110 114 110c16 0 30 -4 36 -7c-20 -8 -32 -27 -32 -47c0 -36 23 -56 64 -56c39 0 125 30 169 109h12c-24 -81 -98 -224 -232 -224z" />
    <glyph glyph-name="afii10028" unicode="&#x41a;" horiz-adv-x="796" 
d="M13 0v2c43 34 54 50 54 116v464c0 66 -11 82 -54 116v2h350v-2c-43 -34 -54 -50 -54 -116v-213h10c41 0 100 19 151 156c44 120 84 185 186 185c72 0 115 -52 115 -117c0 -83 -54 -131 -120 -131c-16 0 -31 4 -37 8c21 8 33 29 33 51c0 40 -24 62 -54 62
c-28 0 -70 -7 -101 -85c-31 -76 -62 -111 -95 -129h35c109 0 233 -30 264 -149l25 -95c17 -63 37 -90 93 -123v-2h-298c-25 32 -38 65 -48 108l-36 159c-11 47 -34 75 -100 75h-23v-224c0 -66 11 -82 54 -116v-2h-350z" />
    <glyph glyph-name="afii10029" unicode="&#x41b;" horiz-adv-x="790" 
d="M427 0v2c43 34 54 50 54 116v555h-128c-12 -211 -43 -406 -75 -500c-41 -121 -73 -183 -175 -183c-72 0 -115 52 -115 117c0 83 54 131 120 131c16 0 31 -4 37 -8c-21 -8 -33 -29 -33 -51c0 -40 24 -62 54 -62c28 0 61 17 85 85c40 112 62 315 62 370
c0 54 -19 106 -67 126v2h531v-2c-43 -34 -54 -50 -54 -116v-464c0 -66 11 -82 54 -116v-2h-350z" />
    <glyph glyph-name="afii10030" unicode="&#x41c;" horiz-adv-x="913" 
d="M-7 0v2c54 34 74 79 74 153v427c0 66 -11 82 -54 116v2h304l150 -370l152 370h281v-2c-43 -34 -54 -50 -54 -116v-464c0 -66 11 -82 54 -116v-2h-350v2c43 34 54 50 54 116v472l-245 -601h-4l-254 602v-425c0 -85 22 -134 87 -164v-2h-195z" />
    <glyph glyph-name="afii10031" unicode="&#x41d;" horiz-adv-x="843" 
d="M13 0v2c43 34 54 50 54 116v464c0 66 -11 82 -54 116v2h350v-2c-43 -34 -54 -50 -54 -116v-200h225v200c0 66 -11 82 -54 116v2h350v-2c-43 -34 -54 -50 -54 -116v-464c0 -66 11 -82 54 -116v-2h-350v2c43 34 54 50 54 116v231h-225v-231c0 -66 11 -82 54 -116v-2h-350z
" />
    <glyph glyph-name="afii10032" unicode="&#x41e;" horiz-adv-x="778" 
d="M21 350c0 210 150 360 368 360s368 -150 368 -360s-150 -360 -368 -360s-368 150 -368 360zM389 8c92 0 108 107 108 342s-16 342 -108 342s-108 -107 -108 -342s16 -342 108 -342z" />
    <glyph glyph-name="afii10033" unicode="&#x41f;" horiz-adv-x="843" 
d="M13 0v2c43 34 54 50 54 116v464c0 66 -11 82 -54 116v2h817v-2c-43 -34 -54 -50 -54 -116v-464c0 -66 11 -82 54 -116v-2h-350v2c43 34 54 50 54 116v555h-225v-555c0 -66 11 -82 54 -116v-2h-350z" />
    <glyph glyph-name="afii10034" unicode="&#x420;" horiz-adv-x="708" 
d="M13 0v2c43 34 54 50 54 116v464c0 66 -11 82 -54 116v2h406c176 0 279 -76 279 -205s-103 -205 -277 -205h-112v-172c0 -66 17 -82 74 -116v-2h-370zM309 317h18c94 0 144 74 144 178s-50 178 -144 178h-18v-356z" />
    <glyph glyph-name="afii10035" unicode="&#x421;" horiz-adv-x="687" 
d="M671 213l5 -3c-39 -136 -149 -220 -311 -220c-198 0 -344 137 -344 345c0 226 175 375 388 375c97 0 142 -28 176 -28c25 0 40 8 66 28l6 -247h-2c-54 131 -124 225 -217 225c-105 0 -162 -133 -162 -285c0 -186 99 -289 226 -289c66 0 127 19 169 99z" />
    <glyph glyph-name="afii10036" unicode="&#x422;" horiz-adv-x="790" 
d="M220 0v2c43 34 54 50 54 116v555h-21c-104 0 -145 -70 -242 -219h-2l34 256c16 -7 40 -10 82 -10h540c42 0 66 3 82 10l34 -256h-2c-97 149 -138 219 -242 219h-21v-555c0 -66 11 -82 54 -116v-2h-350z" />
    <glyph glyph-name="afii10037" unicode="&#x423;" horiz-adv-x="749" 
d="M347 167l2 3l-262 410c-34 53 -60 91 -97 118v2h371v-2c-28 -24 -37 -39 -37 -61c0 -16 6 -31 14 -46l139 -221l131 203c24 38 26 93 -35 125v2h186v-2c-41 -25 -74 -60 -102 -104l-291 -457c-57 -90 -98 -146 -168 -146c-86 0 -133 52 -133 115c0 87 65 134 121 134
c26 0 55 -10 65 -20c-31 -4 -47 -34 -47 -63c0 -34 24 -54 56 -54c25 0 55 15 87 64z" />
    <glyph glyph-name="afii10038" unicode="&#x424;" horiz-adv-x="1060" 
d="M355 -10v2c37 29 50 45 53 93c-225 4 -387 79 -387 262c0 186 165 259 388 263c-2 51 -15 67 -54 98v2h350v-2c-39 -31 -52 -47 -54 -98c223 -4 388 -77 388 -263c0 -183 -162 -258 -388 -262c3 -48 16 -64 54 -93v-2h-350zM651 582v-469c116 18 151 80 151 234
c0 158 -35 218 -151 235zM409 113v469c-117 -17 -151 -77 -151 -235c0 -154 35 -216 151 -234z" />
    <glyph glyph-name="afii10039" unicode="&#x425;" horiz-adv-x="767" 
d="M-5 0v2c49 29 77 57 118 109l163 209l-167 269c-38 62 -61 82 -100 109v2h366v-2c-16 -17 -24 -30 -24 -50c0 -17 9 -34 22 -54l86 -138l97 125c14 18 23 37 23 56c-1 22 -13 44 -43 61v2h184v-2c-51 -29 -80 -57 -121 -109l-124 -159l197 -319c38 -62 61 -82 100 -109
v-2h-366v2c16 17 24 30 24 50c0 17 -9 34 -22 54l-116 187l-134 -172c-12 -16 -19 -34 -19 -52c0 -25 13 -49 43 -67v-2h-187z" />
    <glyph glyph-name="afii10040" unicode="&#x426;" horiz-adv-x="866" 
d="M13 0v2c43 34 54 50 54 116v464c0 66 -11 82 -54 116v2h350v-2c-43 -34 -54 -50 -54 -116v-555h225v555c0 66 -11 82 -54 116v2h350v-2c-43 -34 -54 -50 -54 -116v-467c0 -94 33 -95 76 -89l11 -235h-2c-78 146 -138 209 -259 209h-589z" />
    <glyph glyph-name="afii10041" unicode="&#x427;" horiz-adv-x="797" 
d="M414 0v2c57 34 74 50 74 116v195c-58 -17 -139 -35 -215 -35c-138 0 -207 60 -207 194v100c0 66 -10 106 -64 126v2h343v-2c-34 -20 -40 -60 -40 -126v-108c0 -103 33 -141 96 -141c26 0 58 5 87 14v245c0 66 -11 82 -54 116v2h350v-2c-43 -34 -54 -50 -54 -116v-464
c0 -66 11 -82 54 -116v-2h-370z" />
    <glyph glyph-name="afii10042" unicode="&#x428;" horiz-adv-x="1190" 
d="M13 0v2c43 34 54 50 54 116v464c0 66 -11 82 -54 116v2h350v-2c-43 -34 -54 -50 -54 -116v-555h165v555c0 66 -11 82 -54 116v2h350v-2c-43 -34 -54 -50 -54 -116v-555h165v555c0 66 -11 82 -54 116v2h350v-2c-43 -34 -54 -50 -54 -116v-464c0 -66 11 -82 54 -116v-2
h-1164z" />
    <glyph glyph-name="afii10043" unicode="&#x429;" horiz-adv-x="1213" 
d="M13 0v2c43 34 54 50 54 116v464c0 66 -11 82 -54 116v2h350v-2c-43 -34 -54 -50 -54 -116v-555h165v555c0 66 -11 82 -54 116v2h350v-2c-43 -34 -54 -50 -54 -116v-555h165v555c0 66 -11 82 -54 116v2h350v-2c-43 -34 -54 -50 -54 -116v-467c0 -94 33 -95 76 -89l11 -235
h-2c-78 146 -138 209 -259 209h-936z" />
    <glyph glyph-name="afii10044" unicode="&#x42a;" horiz-adv-x="909" 
d="M204 0v2c43 34 54 50 54 116v555h-5c-104 0 -145 -70 -242 -219h-2l34 256c16 -7 40 -10 82 -10h429v-2c-43 -34 -54 -50 -54 -116v-199h122c174 0 277 -71 277 -192c0 -120 -103 -191 -279 -191h-416zM500 27h28c94 0 144 67 144 164c0 98 -50 165 -144 165h-28v-329z
" />
    <glyph glyph-name="afii10045" unicode="&#x42b;" horiz-adv-x="1093" 
d="M730 0v2c43 34 54 50 54 116v464c0 66 -11 82 -54 116v2h350v-2c-43 -34 -54 -50 -54 -116v-464c0 -66 11 -82 54 -116v-2h-350zM309 27h18c94 0 144 67 144 164c0 98 -50 165 -144 165h-18v-329zM13 0v2c43 34 54 50 54 116v464c0 66 -11 82 -54 116v2h350v-2
c-43 -34 -54 -50 -54 -116v-199h112c174 0 277 -71 277 -192c0 -120 -103 -191 -279 -191h-406z" />
    <glyph glyph-name="afii10046" unicode="&#x42c;" horiz-adv-x="718" 
d="M309 27h28c94 0 144 67 144 164c0 98 -50 165 -144 165h-28v-329zM13 0v2c43 34 54 50 54 116v464c0 66 -11 82 -54 116v2h350v-2c-43 -34 -54 -50 -54 -116v-199h122c174 0 277 -71 277 -192c0 -120 -103 -191 -279 -191h-416z" />
    <glyph glyph-name="afii10047" unicode="&#x42d;" horiz-adv-x="667" 
d="M265 166h-2c-5 5 -12 9 -23 9c-30 0 -51 -33 -51 -83c0 -57 31 -84 79 -84c107 0 120 123 121 341h-217v30h217v24c0 198 -42 285 -126 285c-81 0 -163 -94 -217 -205h-2l6 227c26 -20 41 -28 66 -28c34 0 63 28 152 28c221 0 378 -149 378 -375
c0 -208 -164 -345 -378 -345c-127 0 -248 32 -248 156c0 77 57 123 123 123c58 0 111 -36 122 -103z" />
    <glyph glyph-name="afii10048" unicode="&#x42e;" horiz-adv-x="1158" 
d="M13 0v2c43 34 54 50 54 116v464c0 66 -11 82 -54 116v2h350v-2c-43 -34 -54 -50 -54 -116v-200h93c14 193 160 328 367 328c218 0 368 -150 368 -360s-150 -360 -368 -360s-368 149 -368 359h-92v-231c0 -66 11 -82 54 -116v-2h-350zM769 8c92 0 108 107 108 342
s-16 342 -108 342s-108 -107 -108 -342s16 -342 108 -342z" />
    <glyph glyph-name="afii10049" unicode="&#x42f;" horiz-adv-x="796" 
d="M448 349h39v324h-39c-86 0 -128 -70 -128 -162s42 -162 128 -162zM-18 0v2c56 33 72 61 93 123l25 75c30 91 89 122 198 127v3c-122 0 -230 67 -230 180c0 135 108 190 262 190h453v-2c-43 -34 -54 -50 -54 -116v-464c0 -66 11 -82 54 -116v-2h-350v2c43 34 54 50 54 116
v204h-23c-66 0 -88 -28 -100 -75l-36 -139c-11 -43 -23 -76 -48 -108h-298z" />
    <glyph glyph-name="afii10065" unicode="&#x430;" horiz-adv-x="591" 
d="M244 277l76 14v119c0 39 -11 82 -54 82c-33 0 -55 -30 -55 -72c0 -46 17 -66 49 -66c7 0 14 1 22 3c-27 -44 -74 -66 -133 -66s-108 35 -108 90c0 83 95 129 232 129c182 0 271 -50 271 -178c0 -46 -1 -105 -1 -182c0 -71 1 -111 54 -111c5 0 12 0 19 1v-2
c-30 -29 -86 -48 -138 -48c-96 0 -142 35 -153 90c-1 4 -2 13 -2 14c-19 -66 -73 -101 -158 -101c-78 0 -151 40 -151 126c0 116 109 136 230 158zM320 156v117l-28 -7c-46 -11 -61 -50 -61 -112c0 -43 11 -79 43 -79c38 0 46 42 46 81z" />
    <glyph glyph-name="afii10066" unicode="&#x431;" horiz-adv-x="611" 
d="M67 369h6c51 68 141 106 240 106c152 0 286 -92 286 -243c0 -150 -134 -242 -286 -242s-287 76 -287 291c0 162 35 388 249 410c148 15 291 0 300 58h12c-10 -192 -59 -217 -190 -223l-101 -5c-198 -9 -231 -51 -229 -152zM313 7c46 0 51 65 51 225c0 161 -5 226 -51 226
c-45 0 -51 -65 -51 -226c0 -160 6 -225 51 -225z" />
    <glyph glyph-name="afii10067" unicode="&#x432;" horiz-adv-x="621" 
d="M279 271h14c52 0 70 39 70 102c0 64 -18 102 -70 102h-14v-204zM279 25h17c60 0 81 41 81 111s-21 110 -81 110h-17v-221zM15 0v2c41 32 41 41 41 107v279c0 69 0 78 -41 110v2h372c113 0 189 -35 189 -124c0 -71 -65 -109 -140 -113v-3c84 -4 173 -37 173 -126
c0 -98 -92 -134 -215 -134h-379z" />
    <glyph glyph-name="afii10068" unicode="&#x433;" horiz-adv-x="515" 
d="M15 0v2c41 32 41 41 41 107v279c0 69 0 78 -41 110v2h414c20 0 49 4 63 12l14 -196h-2c-70 102 -119 164 -206 164h-14v-371c0 -66 17 -80 61 -107v-2h-330z" />
    <glyph glyph-name="afii10069" unicode="&#x434;" horiz-adv-x="598" 
d="M-15 -199l10 224c90 2 139 123 166 213c17 59 22 154 22 181c0 38 -21 66 -48 78v3h426v-2c-41 -32 -41 -41 -41 -107v-281c0 -89 32 -90 73 -85l10 -224h-2c-75 139 -132 199 -248 199h-118c-116 0 -173 -60 -248 -199h-2zM95 25h197v450h-74c-2 -73 -8 -158 -31 -240
c-24 -86 -50 -153 -92 -210z" />
    <glyph glyph-name="afii10070" unicode="&#x435;" horiz-adv-x="552" 
d="M526 162l7 -4c-34 -106 -131 -168 -246 -168c-152 0 -275 94 -275 259c0 161 126 261 278 261c170 0 252 -107 252 -236h-300c0 -120 64 -182 152 -182c53 0 100 19 132 70zM242 294h88c0 118 -4 200 -40 200c-41 0 -47 -82 -48 -200z" />
    <glyph glyph-name="afii10072" unicode="&#x436;" horiz-adv-x="980" 
d="M-5 0v2c40 24 54 42 66 87l18 68c22 85 67 111 219 111h22c-15 14 -30 37 -46 76c-20 47 -40 59 -64 59c-26 0 -46 -19 -46 -46c0 -25 12 -42 29 -48c-4 -3 -17 -7 -32 -7c-55 0 -109 41 -109 108c0 56 39 100 100 100c86 0 109 -52 142 -145c28 -78 55 -95 82 -97v120
c0 69 0 78 -41 110v2h310v-2c-41 -32 -41 -41 -41 -107v-123c26 2 54 19 82 97c33 93 56 145 142 145c61 0 100 -44 100 -100c0 -67 -54 -108 -109 -108c-15 0 -28 4 -32 7c17 6 29 23 29 48c0 27 -20 46 -46 46c-24 0 -44 -12 -64 -59c-17 -39 -31 -62 -47 -76h23
c152 0 197 -26 219 -111l18 -68c12 -45 26 -63 66 -87v-2h-253c-18 23 -27 46 -34 77l-26 114c-8 33 -14 53 -61 53h-7v-135c0 -66 0 -75 41 -107v-2h-310v2c41 32 41 41 41 107v135h-7c-47 0 -53 -20 -61 -53l-26 -114c-7 -31 -16 -54 -34 -77h-253z" />
    <glyph glyph-name="afii10073" unicode="&#x437;" horiz-adv-x="539" 
d="M163 252v24h41c63 0 78 36 78 86c0 59 -47 82 -82 82c-30 0 -102 -6 -155 -71l-9 6c49 87 124 131 238 131c154 0 221 -59 221 -116c0 -66 -49 -109 -144 -120v-3c91 -10 168 -48 168 -123c0 -110 -102 -158 -291 -158c-135 0 -218 35 -218 115c0 62 49 103 104 103
c63 0 112 -28 117 -58c-6 2 -14 3 -19 3c-42 0 -52 -32 -52 -70c0 -46 22 -76 65 -76c39 0 68 52 68 127c0 82 -29 118 -107 118h-23z" />
    <glyph glyph-name="afii10074" unicode="&#x438;" horiz-adv-x="672" 
d="M15 0v2c41 32 41 41 41 107v279c0 69 0 78 -41 110v2h307v-2c-41 -32 -41 -41 -41 -107v-262l122 371h254v-2c-41 -32 -41 -41 -41 -107v-282c0 -66 0 -75 41 -107v-2h-307v2c41 32 41 41 41 107v265l-123 -374h-253z" />
    <glyph glyph-name="afii10075" unicode="&#x439;" horiz-adv-x="672" 
d="M15 0v2c41 32 41 41 41 107v279c0 69 0 78 -41 110v2h307v-2c-41 -32 -41 -41 -41 -107v-262l122 371h254v-2c-41 -32 -41 -41 -41 -107v-282c0 -66 0 -75 41 -107v-2h-307v2c41 32 41 41 41 107v265l-123 -374h-253zM319 549c-81 0 -131 47 -131 115
c0 66 51 110 114 110c16 0 30 -4 36 -7c-20 -8 -32 -27 -32 -47c0 -36 23 -56 64 -56c39 0 125 30 169 109h12c-24 -81 -98 -224 -232 -224z" />
    <glyph glyph-name="afii10076" unicode="&#x43a;" horiz-adv-x="660" 
d="M15 0v2c41 32 41 41 41 107v279c0 69 0 78 -41 110v2h310v-2c-41 -32 -41 -41 -41 -107v-123c28 2 64 18 92 97c33 93 56 145 142 145c61 0 100 -44 100 -100c0 -67 -54 -108 -109 -108c-15 0 -28 4 -32 7c17 6 29 23 29 48c0 27 -20 46 -46 46c-24 0 -44 -12 -64 -59
c-17 -39 -34 -62 -52 -76h18c152 0 197 -26 219 -111l18 -68c12 -45 26 -63 66 -87v-2h-253c-18 23 -27 46 -34 77l-26 114c-8 33 -14 53 -61 53h-7v-135c0 -66 0 -75 41 -107v-2h-310z" />
    <glyph glyph-name="afii10077" unicode="&#x43b;" horiz-adv-x="644" 
d="M319 0v2c41 32 41 41 41 107v366h-81c-8 -152 -26 -283 -49 -351c-29 -86 -57 -131 -130 -131c-59 0 -100 41 -100 95c0 70 49 108 103 108c13 0 24 -3 30 -6c-17 -6 -27 -24 -27 -43c0 -32 19 -49 44 -49c23 0 41 4 56 47c28 81 39 224 39 263s-17 75 -52 90v2h436v-2
c-41 -32 -41 -41 -41 -107v-282c0 -66 0 -75 41 -107v-2h-310z" />
    <glyph glyph-name="afii10078" unicode="&#x43c;" horiz-adv-x="726" 
d="M-5 0v2c39 25 58 67 58 128v278c0 55 -10 65 -41 90v2h254l90 -222l91 222h264v-2c-41 -32 -41 -41 -41 -107v-282c0 -66 0 -75 41 -107v-2h-310v2c41 32 41 41 41 107v312l-175 -429h-4l-182 430v-292c0 -61 20 -106 67 -128v-2h-153z" />
    <glyph glyph-name="afii10079" unicode="&#x43d;" horiz-adv-x="672" 
d="M15 0v2c41 32 41 41 41 107v279c0 69 0 78 -41 110v2h310v-2c-41 -32 -41 -41 -41 -107v-120h104v120c0 66 0 75 -41 107v2h310v-2c-41 -32 -41 -41 -41 -107v-282c0 -66 0 -75 41 -107v-2h-310v2c41 32 41 41 41 107v137h-104v-137c0 -66 0 -75 41 -107v-2h-310z" />
    <glyph glyph-name="afii10080" unicode="&#x43e;" horiz-adv-x="606" 
d="M12 250c0 161 136 260 291 260s291 -99 291 -260s-136 -260 -291 -260s-291 99 -291 260zM303 7c46 0 52 71 52 243s-6 243 -52 243s-52 -71 -52 -243s6 -243 52 -243z" />
    <glyph glyph-name="afii10081" unicode="&#x43f;" horiz-adv-x="672" 
d="M15 0v2c41 32 41 41 41 107v279c0 69 0 78 -41 110v2h642v-2c-41 -32 -41 -41 -41 -107v-282c0 -66 0 -75 41 -107v-2h-310v2c41 32 41 41 41 107v366h-104v-366c0 -66 0 -75 41 -107v-2h-310z" />
    <glyph glyph-name="afii10082" unicode="&#x440;" horiz-adv-x="655" 
d="M278 312v-136c0 -80 26 -133 66 -133c46 0 60 67 60 213c0 110 -19 168 -64 168c-39 0 -62 -49 -62 -112zM9 -215v2c41 32 41 41 41 107v494c0 73 -2 79 -48 110v2h276v-118c21 74 75 128 160 128c113 0 205 -101 205 -253c0 -162 -100 -267 -224 -267
c-76 0 -120 34 -141 94v-190c0 -66 0 -75 41 -107v-2h-310z" />
    <glyph glyph-name="afii10083" unicode="&#x441;" horiz-adv-x="526" 
d="M516 162l7 -4c-33 -106 -129 -168 -242 -168c-149 0 -269 96 -269 250c0 171 130 270 306 270c107 0 195 -41 195 -133c0 -67 -52 -99 -105 -99c-62 0 -96 32 -101 65c6 -3 14 -4 19 -4c41 0 54 37 54 78c0 50 -22 77 -59 77c-58 0 -75 -86 -75 -195
c0 -137 54 -207 148 -207c45 0 91 19 122 70z" />
    <glyph glyph-name="afii10084" unicode="&#x442;" horiz-adv-x="590" 
d="M140 0v2c41 32 41 41 41 107v369c-62 -12 -108 -71 -170 -162h-2l14 196c14 -8 43 -12 63 -12h418c20 0 49 4 63 12l14 -196h-2c-63 91 -109 150 -170 162v-369c0 -66 0 -75 41 -107v-2h-310z" />
    <glyph glyph-name="afii10085" unicode="&#x443;" horiz-adv-x="563" 
d="M284 -80l11 25l-232 447c-30 58 -40 72 -73 106v2h324v-2c-20 -14 -27 -25 -27 -46c0 -16 5 -35 14 -53l94 -193l69 176c6 16 9 30 9 43c0 37 -24 61 -57 73v2h157v-2c-34 -30 -52 -48 -76 -108l-204 -501c-32 -79 -74 -115 -136 -115s-110 36 -110 101c0 61 43 96 96 96
c10 0 16 -1 24 -3c-14 -11 -22 -25 -22 -47c0 -33 26 -58 60 -58c37 0 62 18 79 57z" />
    <glyph glyph-name="afii10086" unicode="&#x444;" horiz-adv-x="922" 
d="M306 -225v2c41 32 41 41 41 107v163c-24 -36 -62 -57 -111 -57c-124 0 -224 105 -224 267c0 152 92 253 205 253c64 0 105 -42 130 -95v222c0 73 -12 85 -58 110v2h286v-334c25 53 66 95 130 95c113 0 205 -101 205 -253c0 -162 -100 -267 -224 -267
c-50 0 -87 21 -111 57v-163c0 -66 0 -75 41 -107v-2h-310zM575 388v-315c7 -19 18 -30 36 -30c46 0 60 67 60 213c0 110 -19 168 -61 168c-17 0 -28 -14 -35 -36zM347 73v315c-8 22 -19 36 -35 36c-42 0 -61 -58 -61 -168c0 -146 14 -213 60 -213c18 0 29 11 36 30z" />
    <glyph glyph-name="afii10087" unicode="&#x445;" horiz-adv-x="604" 
d="M-10 0v2c50 22 90 69 125 116l82 114l-95 151c-35 54 -55 81 -102 115v2h324v-2c-10 -9 -15 -18 -15 -34c0 -19 10 -41 32 -75l42 -67l40 68c11 19 18 38 18 55c0 25 -14 45 -39 53v2h168v-2c-51 -21 -93 -67 -123 -116l-51 -81l115 -184c34 -55 55 -81 103 -115v-2h-324
v2c9 9 15 18 15 34c0 19 -11 41 -33 75l-62 99l-69 -100c-11 -16 -19 -34 -19 -55c0 -25 16 -43 39 -53v-2h-171z" />
    <glyph glyph-name="afii10088" unicode="&#x446;" horiz-adv-x="694" 
d="M15 0v2c41 32 41 41 41 110v279c0 66 0 75 -41 107v2h310v-2c-41 -32 -41 -41 -41 -107v-366h104v366c0 66 0 75 -41 107v2h310v-2c-41 -32 -41 -41 -41 -107v-281c0 -89 32 -90 73 -85l10 -224h-2c-75 139 -132 199 -248 199h-434z" />
    <glyph glyph-name="afii10089" unicode="&#x447;" horiz-adv-x="667" 
d="M322 0v2c43 26 61 41 61 107v119c-47 -14 -124 -29 -184 -29c-99 0 -148 42 -148 138v69c0 50 -3 62 -41 92v2h310v-2c-37 -28 -41 -42 -41 -89v-93c0 -73 23 -73 54 -73c7 0 29 3 50 10v138c0 66 0 75 -41 107v2h310v-2c-41 -32 -41 -41 -41 -107v-282
c0 -66 0 -75 41 -107v-2h-330z" />
    <glyph glyph-name="afii10090" unicode="&#x448;" horiz-adv-x="984" 
d="M15 0v2c41 32 41 41 41 110v279c0 66 0 75 -41 107v2h310v-2c-41 -32 -41 -41 -41 -107v-366h94v366c0 66 0 75 -41 107v2h310v-2c-41 -32 -41 -41 -41 -107v-366h94v366c0 66 0 75 -41 107v2h310v-2c-41 -32 -41 -41 -41 -107v-282c0 -66 0 -75 41 -107v-2h-954z" />
    <glyph glyph-name="afii10091" unicode="&#x449;" horiz-adv-x="1006" 
d="M15 0v2c41 32 41 41 41 110v279c0 66 0 75 -41 107v2h310v-2c-41 -32 -41 -41 -41 -107v-366h94v366c0 66 0 75 -41 107v2h310v-2c-41 -32 -41 -41 -41 -107v-366h94v366c0 66 0 75 -41 107v2h310v-2c-41 -32 -41 -41 -41 -107v-281c0 -89 32 -90 73 -85l10 -224h-2
c-75 139 -132 199 -248 199h-746z" />
    <glyph glyph-name="afii10092" unicode="&#x44a;" horiz-adv-x="758" 
d="M419 25h10c64 0 87 47 87 114c0 68 -23 115 -87 115h-10v-229zM150 0v2c41 32 41 41 41 107v369c-72 -12 -118 -71 -180 -162h-2l14 196c14 -8 43 -12 63 -12h374v-2c-41 -32 -41 -41 -41 -107v-112h139c116 0 186 -52 186 -141c0 -86 -70 -138 -188 -138h-406z" />
    <glyph glyph-name="afii10093" unicode="&#x44b;" horiz-adv-x="954" 
d="M627 0v2c41 32 41 41 41 107v282c0 66 0 75 -41 107v2h310v-2c-41 -32 -41 -41 -41 -107v-282c0 -66 0 -75 41 -107v-2h-310zM15 0v2c41 32 41 41 41 107v279c0 69 0 78 -41 110v2h310v-2c-41 -32 -41 -41 -41 -107v-112h139c116 0 186 -52 186 -141
c0 -86 -70 -138 -188 -138h-406zM284 25h10c64 0 87 47 87 114c0 68 -23 115 -87 115h-10v-229z" />
    <glyph glyph-name="afii10094" unicode="&#x44c;" horiz-adv-x="623" 
d="M15 0v2c41 32 41 41 41 107v279c0 69 0 78 -41 110v2h310v-2c-41 -32 -41 -41 -41 -107v-112h139c116 0 186 -52 186 -141c0 -86 -70 -138 -188 -138h-406zM284 25h10c64 0 87 47 87 114c0 68 -23 115 -87 115h-10v-229z" />
    <glyph glyph-name="afii10095" unicode="&#x44d;" horiz-adv-x="526" 
d="M122 246v25h153c-13 94 -57 148 -133 148c-45 0 -89 -18 -120 -69l-7 4c35 99 122 156 225 156c141 0 274 -96 274 -250c0 -171 -129 -270 -305 -270c-132 0 -211 45 -211 130c0 62 53 88 108 88c63 0 112 -30 117 -60c-6 2 -14 3 -19 3c-42 0 -56 -30 -56 -68
c0 -46 21 -77 64 -77c45 0 68 51 68 195c0 16 -1 30 -2 45h-156z" />
    <glyph glyph-name="afii10096" unicode="&#x44e;" horiz-adv-x="941" 
d="M15 0v2c41 32 41 41 41 107v279c0 69 0 78 -41 110v2h310v-2c-41 -32 -41 -41 -41 -107v-120h64c11 148 142 239 290 239c155 0 291 -99 291 -260s-136 -260 -291 -260c-154 0 -289 97 -291 256h-63v-137c0 -66 0 -75 41 -107v-2h-310zM638 6c46 0 52 72 52 244
s-6 244 -52 244s-52 -72 -52 -244s6 -244 52 -244z" />
    <glyph glyph-name="afii10097" unicode="&#x44f;" horiz-adv-x="657" 
d="M358 249h18v226h-18c-61 0 -80 -49 -80 -113s19 -113 80 -113zM-10 0v2c40 24 51 43 66 87l18 54c22 65 59 86 137 90v3c-87 0 -155 48 -155 128c0 97 78 136 188 136h401v-2c-41 -32 -41 -41 -41 -107v-282c0 -66 0 -75 41 -107v-2h-310v2c41 32 41 41 41 107v115h-4
c-47 0 -63 -19 -71 -48l-26 -99c-8 -31 -16 -54 -34 -77h-251z" />
    <glyph glyph-name="afii10071" unicode="&#x451;" horiz-adv-x="552" 
d="M526 162l7 -4c-34 -106 -131 -168 -246 -168c-152 0 -275 94 -275 259c0 161 126 261 278 261c170 0 252 -107 252 -236h-300c0 -120 64 -182 152 -182c53 0 100 19 132 70zM242 294h88c0 118 -4 200 -40 200c-41 0 -47 -82 -48 -200zM173 539c-57 0 -101 47 -101 103
c0 57 44 106 101 106c58 0 104 -49 104 -106c0 -56 -46 -103 -104 -103zM401 539c-57 0 -104 47 -104 103c0 57 47 106 104 106s103 -49 103 -106c0 -56 -46 -103 -103 -103z" />
    <glyph glyph-name="afii10099" unicode="&#x452;" horiz-adv-x="660" 
d="M11 0v2c41 32 41 41 41 107v479h-51v25h51v24c0 73 -12 85 -58 110v2h286v-136h100v-25h-100v-213c23 87 88 135 172 135c117 0 160 -86 160 -173v-345c0 -149 -121 -217 -270 -217c-98 0 -183 31 -183 109c0 56 53 90 110 90c36 0 68 -10 84 -24c-36 -8 -59 -37 -59 -89
c0 -40 13 -70 48 -70c31 0 42 29 42 64v495c0 32 -17 56 -47 56c-34 0 -57 -23 -57 -101v-196c0 -66 0 -75 41 -107v-2h-310z" />
    <glyph glyph-name="afii10100" unicode="&#x453;" horiz-adv-x="515" 
d="M15 0v2c41 32 41 41 41 107v279c0 69 0 78 -41 110v2h414c20 0 49 4 63 12l14 -196h-2c-70 102 -119 164 -206 164h-14v-371c0 -66 17 -80 61 -107v-2h-330zM207 749h213c-40 -91 -121 -163 -240 -213h-6c28 53 33 140 33 213z" />
    <glyph glyph-name="afii10101" unicode="&#x454;" horiz-adv-x="526" 
d="M247 271h153v-25h-151c12 -102 64 -154 145 -154c45 0 91 19 122 70l7 -4c-33 -106 -129 -168 -242 -168c-149 0 -269 96 -269 250c0 171 147 270 305 270c96 0 181 -30 181 -112c0 -61 -47 -84 -94 -84c-56 0 -87 28 -91 58c5 -3 13 -4 17 -4c37 0 49 29 49 65
c0 45 -20 63 -55 63c-57 0 -78 -88 -78 -197c0 -10 0 -19 1 -28z" />
    <glyph glyph-name="afii10102" unicode="&#x455;" horiz-adv-x="481" 
d="M34 -11l-11 178h2c64 -108 135 -161 221 -161c44 0 73 17 73 57c0 46 -40 55 -108 79c-127 44 -188 96 -188 202c0 97 80 166 190 166c63 0 105 -22 142 -22c25 0 41 8 60 23v-160h-2c-48 89 -134 143 -200 143c-36 0 -62 -16 -62 -48c0 -44 37 -52 124 -83
c127 -45 186 -91 186 -197c0 -104 -81 -176 -215 -176c-69 0 -118 19 -157 19c-28 0 -40 -11 -55 -20z" />
    <glyph glyph-name="afii10103" unicode="&#x456;" horiz-adv-x="336" 
d="M50 647c0 65 51 114 120 114s122 -49 122 -114c0 -64 -53 -114 -122 -114s-120 50 -120 114zM284 500v-391c0 -66 0 -75 41 -107v-2h-310v2c41 32 41 41 41 107v279c0 73 -2 79 -48 110v2h276z" />
    <glyph glyph-name="afii10104" unicode="&#x457;" horiz-adv-x="336" 
d="M284 500v-391c0 -66 0 -75 41 -107v-2h-310v2c41 32 41 41 41 107v279c0 73 -2 79 -48 110v2h276zM53 539c-57 0 -101 47 -101 103c0 57 44 106 101 106c58 0 104 -49 104 -106c0 -56 -46 -103 -104 -103zM281 539c-57 0 -104 47 -104 103c0 57 47 106 104 106
s103 -49 103 -106c0 -56 -46 -103 -103 -103z" />
    <glyph glyph-name="afii10105" unicode="&#x458;" horiz-adv-x="324" 
d="M46 647c0 65 51 114 120 114s122 -49 122 -114c0 -64 -53 -114 -122 -114s-120 50 -120 114zM52 -145v533c-1 73 -2 79 -48 110v2h276v-508c0 -149 -121 -217 -270 -217c-98 0 -183 31 -183 109c0 56 53 90 110 90c36 0 68 -10 84 -24c-36 -8 -59 -37 -59 -89
c0 -40 13 -70 48 -70c31 0 42 29 42 64z" />
    <glyph glyph-name="afii10106" unicode="&#x459;" horiz-adv-x="927" 
d="M319 0v2c41 32 41 41 41 107v366h-81c-8 -152 -26 -283 -49 -351c-29 -86 -57 -131 -130 -131c-59 0 -100 41 -100 95c0 70 49 108 103 108c13 0 24 -3 30 -6c-17 -6 -27 -24 -27 -43c0 -32 19 -49 44 -49c23 0 41 4 56 47c28 81 39 224 39 263s-17 75 -52 90v2h436v-2
c-41 -32 -41 -41 -41 -107v-112h139c116 0 186 -52 186 -141c0 -86 -70 -138 -188 -138h-406zM588 25h10c64 0 87 47 87 114c0 68 -23 115 -87 115h-10v-229z" />
    <glyph glyph-name="afii10107" unicode="&#x45a;" horiz-adv-x="955" 
d="M15 0v2c41 32 41 41 41 107v279c0 69 0 78 -41 110v2h310v-2c-41 -32 -41 -41 -41 -107v-112h104v112c0 66 0 75 -41 107v2h310v-2c-41 -32 -41 -41 -41 -107v-112h139c116 0 186 -52 186 -141c0 -86 -70 -138 -188 -138h-406v2c41 32 41 41 41 107v145h-104v-145
c0 -66 0 -75 41 -107v-2h-310zM616 25h10c64 0 87 47 87 114c0 68 -23 115 -87 115h-10v-229z" />
    <glyph glyph-name="afii10108" unicode="&#x45b;" horiz-adv-x="660" 
d="M11 0v2c41 32 41 41 41 107v479h-51v25h51v24c0 73 -12 85 -58 110v2h286v-136h100v-25h-100v-213c23 87 88 135 172 135c117 0 160 -86 160 -173v-228c0 -66 0 -75 41 -107v-2h-310v2c41 32 41 41 41 107v241c0 32 -17 56 -47 56c-34 0 -57 -23 -57 -101v-196
c0 -66 0 -75 41 -107v-2h-310z" />
    <glyph glyph-name="afii10109" unicode="&#x45c;" horiz-adv-x="660" 
d="M15 0v2c41 32 41 41 41 107v279c0 69 0 78 -41 110v2h310v-2c-41 -32 -41 -41 -41 -107v-123c28 2 64 18 92 97c33 93 56 145 142 145c61 0 100 -44 100 -100c0 -67 -54 -108 -109 -108c-15 0 -28 4 -32 7c17 6 29 23 29 48c0 27 -20 46 -46 46c-24 0 -44 -12 -64 -59
c-17 -39 -34 -62 -52 -76h18c152 0 197 -26 219 -111l18 -68c12 -45 26 -63 66 -87v-2h-253c-18 23 -27 46 -34 77l-26 114c-8 33 -14 53 -61 53h-7v-135c0 -66 0 -75 41 -107v-2h-310zM280 749h213c-40 -91 -121 -163 -240 -213h-6c28 53 33 140 33 213z" />
    <glyph glyph-name="afii10110" unicode="&#x45e;" horiz-adv-x="563" 
d="M284 -80l11 25l-232 447c-30 58 -40 72 -73 106v2h324v-2c-20 -14 -27 -25 -27 -46c0 -16 5 -35 14 -53l94 -193l69 176c6 16 9 30 9 43c0 37 -24 61 -57 73v2h157v-2c-34 -30 -52 -48 -76 -108l-204 -501c-32 -79 -74 -115 -136 -115s-110 36 -110 101c0 61 43 96 96 96
c10 0 16 -1 24 -3c-14 -11 -22 -25 -22 -47c0 -33 26 -58 60 -58c37 0 62 18 79 57zM319 549c-81 0 -131 47 -131 115c0 66 51 110 114 110c16 0 30 -4 36 -7c-20 -8 -32 -27 -32 -47c0 -36 23 -56 64 -56c39 0 125 30 169 109h12c-24 -81 -98 -224 -232 -224z" />
    <glyph glyph-name="afii10193" unicode="&#x45f;" horiz-adv-x="672" 
d="M15 0v2c41 32 41 41 41 110v279c0 66 0 75 -41 107v2h310v-2c-41 -32 -41 -41 -41 -107v-366h104v366c0 66 0 75 -41 107v2h310v-2c-41 -32 -41 -41 -41 -107v-282c0 -66 0 -75 41 -107v-2h-306c0 -53 53 -65 53 -124c0 -29 -27 -54 -68 -54c-39 0 -66 25 -66 54
c0 58 51 72 51 124h-306z" />
    <glyph glyph-name="afii10050" unicode="&#x490;" horiz-adv-x="630" 
d="M13 0v2c43 34 54 50 54 116v464c0 66 -11 82 -54 116v2h357c144 0 166 74 248 218h2l-29 -245h-282v-555c0 -66 17 -82 74 -116v-2h-370z" />
    <glyph glyph-name="afii10098" unicode="&#x491;" horiz-adv-x="515" 
d="M15 0v2c41 32 41 41 41 107v279c0 69 0 78 -41 110v2h270c106 0 124 52 223 180h2l-19 -200h-207v-371c0 -66 17 -80 61 -107v-2h-330z" />
    <glyph glyph-name="Wgrave" unicode="&#x1e80;" horiz-adv-x="1011" 
d="M591 939c0 -73 5 -160 33 -213h-6c-119 50 -200 122 -240 213h213zM686 -10l-181 450l-183 -450h-6l-253 598c-25 60 -45 84 -73 110v2h351v-2c-27 -18 -38 -35 -38 -61c0 -17 3 -32 11 -52l112 -270l64 161l-45 112c-25 60 -45 84 -73 110v2h346v-2
c-27 -18 -38 -35 -38 -61c0 -17 4 -32 11 -52l100 -277l104 268c5 14 8 27 8 39c-1 33 -20 61 -60 83v2h178v-2c-33 -27 -64 -60 -89 -120l-240 -588h-6z" />
    <glyph glyph-name="wgrave" unicode="&#x1e81;" horiz-adv-x="810" 
d="M453 749c0 -73 5 -160 33 -213h-6c-119 50 -200 122 -240 213h213zM555 -10l-137 314l-161 -314h-2l-196 402c-26 53 -36 74 -69 106v2h301v-2c-12 -14 -18 -24 -18 -45c0 -20 6 -36 14 -53l76 -153l44 83l-27 62c-27 55 -36 73 -69 106v2h307v-2
c-20 -14 -30 -27 -30 -48c0 -16 5 -32 12 -51l53 -142l62 138c5 11 7 23 7 34c0 29 -18 56 -55 69v2h153v-2c-34 -31 -48 -47 -77 -106l-186 -402h-2z" />
    <glyph glyph-name="Wacute" unicode="&#x1e82;" horiz-adv-x="1011" 
d="M455 939h213c-40 -91 -121 -163 -240 -213h-6c28 53 33 140 33 213zM686 -10l-181 450l-183 -450h-6l-253 598c-25 60 -45 84 -73 110v2h351v-2c-27 -18 -38 -35 -38 -61c0 -17 3 -32 11 -52l112 -270l64 161l-45 112c-25 60 -45 84 -73 110v2h346v-2
c-27 -18 -38 -35 -38 -61c0 -17 4 -32 11 -52l100 -277l104 268c5 14 8 27 8 39c-1 33 -20 61 -60 83v2h178v-2c-33 -27 -64 -60 -89 -120l-240 -588h-6z" />
    <glyph glyph-name="wacute" unicode="&#x1e83;" horiz-adv-x="810" 
d="M349 749h213c-40 -91 -121 -163 -240 -213h-6c28 53 33 140 33 213zM555 -10l-137 314l-161 -314h-2l-196 402c-26 53 -36 74 -69 106v2h301v-2c-12 -14 -18 -24 -18 -45c0 -20 6 -36 14 -53l76 -153l44 83l-27 62c-27 55 -36 73 -69 106v2h307v-2
c-20 -14 -30 -27 -30 -48c0 -16 5 -32 12 -51l53 -142l62 138c5 11 7 23 7 34c0 29 -18 56 -55 69v2h153v-2c-34 -31 -48 -47 -77 -106l-186 -402h-2z" />
    <glyph glyph-name="Wdieresis" unicode="&#x1e84;" horiz-adv-x="1011" 
d="M402 732c-57 0 -101 47 -101 103c0 57 44 106 101 106c58 0 104 -49 104 -106c0 -56 -46 -103 -104 -103zM630 732c-57 0 -104 47 -104 103c0 57 47 106 104 106s103 -49 103 -106c0 -56 -46 -103 -103 -103zM686 -10l-181 450l-183 -450h-6l-253 598
c-25 60 -45 84 -73 110v2h351v-2c-27 -18 -38 -35 -38 -61c0 -17 3 -32 11 -52l112 -270l64 161l-45 112c-25 60 -45 84 -73 110v2h346v-2c-27 -18 -38 -35 -38 -61c0 -17 4 -32 11 -52l100 -277l104 268c5 14 8 27 8 39c-1 33 -20 61 -60 83v2h178v-2
c-33 -27 -64 -60 -89 -120l-240 -588h-6z" />
    <glyph glyph-name="wdieresis" unicode="&#x1e85;" horiz-adv-x="810" 
d="M294 539c-57 0 -101 47 -101 103c0 57 44 106 101 106c58 0 104 -49 104 -106c0 -56 -46 -103 -104 -103zM522 539c-57 0 -104 47 -104 103c0 57 47 106 104 106s103 -49 103 -106c0 -56 -46 -103 -103 -103zM555 -10l-137 314l-161 -314h-2l-196 402
c-26 53 -36 74 -69 106v2h301v-2c-12 -14 -18 -24 -18 -45c0 -20 6 -36 14 -53l76 -153l44 83l-27 62c-27 55 -36 73 -69 106v2h307v-2c-20 -14 -30 -27 -30 -48c0 -16 5 -32 12 -51l53 -142l62 138c5 11 7 23 7 34c0 29 -18 56 -55 69v2h153v-2c-34 -31 -48 -47 -77 -106
l-186 -402h-2z" />
    <glyph glyph-name="Ygrave" unicode="&#x1ef2;" horiz-adv-x="737" 
d="M469 939c0 -73 5 -160 33 -213h-6c-119 50 -200 122 -240 213h213zM468 341l138 234c9 15 15 31 15 47c0 28 -15 55 -55 76v2h181v-2c-43 -33 -69 -64 -101 -118l-168 -283v-179c0 -66 11 -82 54 -116v-2h-337v2c43 34 54 50 54 116v179l-168 283c-32 54 -53 85 -91 118
v2h365v-2c-28 -24 -37 -39 -37 -61c0 -16 5 -31 14 -46z" />
    <glyph glyph-name="ygrave" unicode="&#x1ef3;" horiz-adv-x="563" 
d="M351 749c0 -73 5 -160 33 -213h-6c-119 50 -200 122 -240 213h213zM284 -80l11 25l-232 447c-30 58 -40 72 -73 106v2h324v-2c-20 -14 -27 -25 -27 -46c0 -16 5 -35 14 -53l94 -193l69 176c6 16 9 30 9 43c0 37 -24 61 -57 73v2h157v-2c-34 -30 -52 -48 -76 -108
l-204 -501c-32 -79 -74 -115 -136 -115s-110 36 -110 101c0 61 43 96 96 96c10 0 16 -1 24 -3c-14 -11 -22 -25 -22 -47c0 -33 26 -58 60 -58c37 0 62 18 79 57z" />
    <glyph glyph-name="uni2009" unicode="&#x2009;" horiz-adv-x="40" 
 />
    <glyph glyph-name="endash" unicode="&#x2013;" 
d="M40 260v60h420v-60h-420z" />
    <glyph glyph-name="emdash" unicode="&#x2014;" horiz-adv-x="800" 
d="M40 260v60h720v-60h-720z" />
    <glyph glyph-name="quoteleft" unicode="&#x2018;" horiz-adv-x="270" 
d="M86 578c12 13 36 23 68 23c53 0 96 -37 96 -98c0 -62 -50 -104 -110 -104c-71 0 -120 52 -120 124c0 132 104 196 224 193v-17c-81 -2 -158 -30 -158 -121z" />
    <glyph glyph-name="quoteright" unicode="&#x2019;" horiz-adv-x="270" 
d="M184 538c-12 -13 -36 -23 -68 -23c-53 0 -96 37 -96 98c0 62 50 104 110 104c71 0 120 -52 120 -124c0 -132 -104 -196 -224 -193v17c81 2 158 30 158 121z" />
    <glyph glyph-name="quotesinglbase" unicode="&#x201a;" horiz-adv-x="270" 
d="M184 23c-12 -13 -36 -23 -68 -23c-53 0 -96 37 -96 98c0 62 50 104 110 104c71 0 120 -52 120 -124c0 -132 -104 -196 -224 -193v17c81 2 158 30 158 121z" />
    <glyph glyph-name="quotedblleft" unicode="&#x201c;" horiz-adv-x="526" 
d="M342 578c12 13 36 23 68 23c53 0 96 -37 96 -98c0 -62 -50 -104 -110 -104c-71 0 -120 52 -120 124c0 132 104 196 224 193v-17c-81 -2 -158 -30 -158 -121zM86 578c12 13 36 23 68 23c53 0 96 -37 96 -98c0 -62 -50 -104 -110 -104c-71 0 -120 52 -120 124
c0 132 104 196 224 193v-17c-81 -2 -158 -30 -158 -121z" />
    <glyph glyph-name="quotedblright" unicode="&#x201d;" horiz-adv-x="526" 
d="M440 538c-12 -13 -36 -23 -68 -23c-53 0 -96 37 -96 98c0 62 50 104 110 104c71 0 120 -52 120 -124c0 -132 -104 -196 -224 -193v17c81 2 158 30 158 121zM184 538c-12 -13 -36 -23 -68 -23c-53 0 -96 37 -96 98c0 62 50 104 110 104c71 0 120 -52 120 -124
c0 -132 -104 -196 -224 -193v17c81 2 158 30 158 121z" />
    <glyph glyph-name="quotedblbase" unicode="&#x201e;" horiz-adv-x="526" 
d="M440 23c-12 -13 -36 -23 -68 -23c-53 0 -96 37 -96 98c0 62 50 104 110 104c71 0 120 -52 120 -124c0 -132 -104 -196 -224 -193v17c81 2 158 30 158 121zM184 23c-12 -13 -36 -23 -68 -23c-53 0 -96 37 -96 98c0 62 50 104 110 104c71 0 120 -52 120 -124
c0 -132 -104 -196 -224 -193v17c81 2 158 30 158 121z" />
    <glyph glyph-name="dagger" unicode="&#x2020;" horiz-adv-x="502" 
d="M313 542c0 0 -54 -192 -58 -386h-8c-4 194 -58 386 -58 386c-4 14 -12 34 -26 41c-11 -40 -39 -71 -71 -71c-27 0 -52 17 -52 52c0 28 22 51 50 58c6 -24 16 -35 31 -35c18 0 32 12 53 12c25 0 58 -26 69 -46c-9 53 -37 102 -79 148c19 31 56 48 87 48s68 -17 87 -48
c-42 -46 -70 -95 -79 -148c11 20 44 46 69 46c21 0 35 -12 53 -12c15 0 25 11 31 35c28 -7 50 -30 50 -58c0 -35 -25 -52 -52 -52c-32 0 -60 31 -71 71c-14 -7 -22 -27 -26 -41z" />
    <glyph glyph-name="daggerdbl" unicode="&#x2021;" horiz-adv-x="502" 
d="M253 446h-4c-19 63 -62 148 -90 180c-11 -40 -35 -74 -67 -74c-27 0 -52 17 -52 52c0 28 22 51 50 58c6 -24 16 -35 31 -35c18 0 32 12 53 12c25 0 61 -16 72 -36c-9 53 -40 72 -82 98c19 31 56 48 87 48s68 -17 87 -48c-42 -26 -73 -45 -82 -98c11 20 47 36 72 36
c21 0 35 -12 53 -12c15 0 25 11 31 35c28 -7 50 -30 50 -58c0 -35 -25 -52 -52 -52c-32 0 -56 34 -67 74c-28 -32 -71 -117 -90 -180zM253 429c19 -63 62 -148 90 -180c11 40 35 74 67 74c27 0 52 -17 52 -52c0 -28 -22 -51 -50 -58c-6 24 -16 35 -31 35
c-18 0 -32 -12 -53 -12c-25 0 -61 16 -72 36c9 -53 40 -72 82 -98c-19 -31 -56 -48 -87 -48s-68 17 -87 48c42 26 73 45 82 98c-11 -20 -47 -36 -72 -36c-21 0 -35 12 -53 12c-15 0 -25 -11 -31 -35c-28 7 -50 30 -50 58c0 35 25 52 52 52c32 0 56 -34 67 -74
c28 32 71 117 90 180h4z" />
    <glyph glyph-name="bullet" unicode="&#x2022;" horiz-adv-x="437" 
d="M40 284c0 99 81 180 178 180c98 0 179 -81 179 -180c0 -97 -81 -178 -179 -178c-97 0 -178 81 -178 178z" />
    <glyph glyph-name="ellipsis" unicode="&#x2026;" horiz-adv-x="772" 
d="M249 111c0 -65 -50 -118 -117 -118s-117 53 -117 118s50 118 117 118s117 -53 117 -118zM503 111c0 -65 -50 -118 -117 -118s-117 53 -117 118s50 118 117 118s117 -53 117 -118zM757 111c0 -65 -50 -118 -117 -118s-117 53 -117 118s50 118 117 118s117 -53 117 -118z
" />
    <glyph glyph-name="perthousand" unicode="&#x2030;" horiz-adv-x="1107" 
d="M179 0h-52l409 678c-24 -21 -81 -49 -140 -49c-23 0 -43 4 -63 9c20 -26 33 -58 33 -94c0 -96 -83 -165 -173 -165s-173 69 -173 165s83 165 173 165c80 0 120 -56 203 -56c73 0 122 25 167 66l11 -9zM193 397c35 0 39 49 39 147s-4 147 -39 147s-39 -49 -39 -147
s4 -147 39 -147zM1087 160c0 -96 -83 -165 -173 -165s-173 69 -173 165s83 165 173 165s173 -69 173 -165zM542 -5c-90 0 -173 69 -173 165s83 165 173 165s173 -69 173 -165s-83 -165 -173 -165zM914 13c35 0 39 49 39 147s-4 147 -39 147s-39 -49 -39 -147s4 -147 39 -147
zM542 13c35 0 39 49 39 147s-4 147 -39 147s-39 -49 -39 -147s4 -147 39 -147z" />
    <glyph glyph-name="guilsinglleft" unicode="&#x2039;" horiz-adv-x="327" 
d="M20 242v4c84 41 197 123 273 215h4c-23 -90 -55 -167 -89 -217c34 -50 66 -127 89 -217h-4c-76 92 -189 174 -273 215z" />
    <glyph glyph-name="guilsinglright" unicode="&#x203a;" horiz-adv-x="327" 
d="M307 246v-4c-84 -41 -197 -123 -273 -215h-4c23 90 55 167 89 217c-34 50 -66 127 -89 217h4c76 -92 189 -174 273 -215z" />
    <glyph glyph-name="fraction" unicode="&#x2044;" horiz-adv-x="358" 
d="M0 -123l300 872h38l-300 -872h-38z" />
    <glyph glyph-name="Euro" unicode="&#x20ac;" horiz-adv-x="661" 
d="M646 210c-23 -136 -124 -220 -276 -220c-171 0 -290 129 -301 306h-54v25h53v3c0 25 2 49 5 72h-58v25h63c34 165 157 289 349 289c102 0 208 -44 208 -139c0 -61 -48 -96 -102 -96c-45 0 -85 20 -102 56c4 -1 8 -1 12 -1c39 0 62 32 62 80c0 49 -24 82 -78 82
c-79 0 -123 -115 -130 -271h178l-9 -25h-170v-23c0 -18 1 -35 2 -52h147l-9 -25h-135c15 -126 73 -200 170 -200c82 0 133 36 171 114h4z" />
    <glyph glyph-name="afii61352" unicode="&#x2116;" horiz-adv-x="940" 
d="M617 698c-54 -34 -74 -79 -74 -153v-555h-8l-434 591v-415c0 -85 22 -134 87 -164v-2h-195v2c54 34 74 79 74 153v427c0 66 -11 82 -54 116v2h290l206 -281v115c0 85 -22 134 -87 164v2h195v-2zM768 410c-79 0 -152 61 -152 145s73 145 152 145s152 -61 152 -145
s-73 -145 -152 -145zM768 429c31 0 34 40 34 126s-3 126 -34 126s-34 -40 -34 -126s3 -126 34 -126zM626 336v25h284v-25h-284z" />
    <glyph glyph-name="uni2117" unicode="&#x2117;" horiz-adv-x="810" 
d="M765 350c0 -209 -161 -360 -360 -360s-360 151 -360 360s161 360 360 360s360 -151 360 -360zM745 350c0 197 -152 340 -340 340s-340 -143 -340 -340s152 -340 340 -340s340 143 340 340zM386 317v-99c0 -39 10 -48 44 -68v-2h-222v2c25 20 32 29 32 68v270
c0 38 -7 47 -32 67v2h244c103 0 163 -45 163 -120c0 -76 -60 -120 -162 -120h-67zM386 334h6c55 0 84 42 84 103s-29 103 -84 103h-6v-206z" />
    <glyph glyph-name="trademark" unicode="&#x2122;" horiz-adv-x="919" 
d="M63 700h290c13 0 20 1 26 3l12 -127h-5c-20 47 -53 102 -100 102h-15v-235c0 -30 11 -36 30 -52v-2h-186v2c20 16 30 22 30 52v235h-15c-47 0 -80 -55 -100 -102h-5l12 127c6 -2 13 -3 26 -3zM641 558l65 142h152v-2c-21 -16 -27 -20 -27 -49v-208c0 -29 6 -33 27 -50v-2
h-170v2c20 17 18 21 18 50v212l-120 -267h-2l-119 267v-212c0 -29 8 -33 29 -50v-2h-83v2c22 17 28 21 28 50v201c0 29 -6 40 -28 56v2h164z" />
    <glyph glyph-name="uni2153" unicode="&#x2153;" horiz-adv-x="405" 
d="M149 664c0 18 -9 20 -43 31v5h154v-254c0 -18 9 -20 43 -31v-5h-197v5c34 11 43 13 43 31v218zM20 358h365v-16h-365v16zM199 11c19 0 28 27 28 67c0 46 -10 72 -40 72v8c26 2 35 28 35 68c0 35 -6 53 -23 53c-15 0 -28 -14 -28 -43c0 -24 7 -42 21 -42c3 0 5 0 8 2l3 -2
c-6 -9 -20 -20 -49 -20c-35 0 -58 22 -58 52c0 49 50 68 103 68c65 0 126 -23 126 -73c0 -41 -38 -61 -83 -64c53 -4 93 -26 93 -78c0 -56 -61 -83 -136 -83c-63 0 -118 23 -118 75c0 37 28 57 65 57c32 0 47 -11 54 -21l-3 -2c-2 2 -6 3 -8 3c-16 0 -23 -19 -23 -46
c0 -30 14 -51 33 -51z" />
    <glyph glyph-name="uni2154" unicode="&#x2154;" horiz-adv-x="405" 
d="M188 689c-23 0 -38 -16 -38 -42c0 -31 17 -44 32 -44c7 0 12 2 18 8h4c-10 -32 -35 -44 -62 -44c-33 0 -58 22 -58 59c0 52 48 78 104 78c70 0 134 -20 134 -90c0 -66 -69 -103 -161 -124h84c45 0 58 6 77 32h4l-10 -112h-240v4c115 125 144 159 144 230
c0 25 -10 45 -32 45zM20 358h365v-16h-365v16zM199 11c19 0 28 27 28 67c0 46 -10 72 -40 72v8c26 2 35 28 35 68c0 35 -6 53 -23 53c-15 0 -28 -14 -28 -43c0 -24 7 -42 21 -42c3 0 5 0 8 2l3 -2c-6 -9 -20 -20 -49 -20c-35 0 -58 22 -58 52c0 49 50 68 103 68
c65 0 126 -23 126 -73c0 -41 -38 -61 -83 -64c53 -4 93 -26 93 -78c0 -56 -61 -83 -136 -83c-63 0 -118 23 -118 75c0 37 28 57 65 57c32 0 47 -11 54 -21l-3 -2c-2 2 -6 3 -8 3c-16 0 -23 -19 -23 -46c0 -30 14 -51 33 -51z" />
    <glyph glyph-name="uni215B" unicode="&#x215b;" horiz-adv-x="405" 
d="M149 664c0 18 -9 20 -43 31v5h154v-254c0 -18 9 -20 43 -31v-5h-197v5c34 11 43 13 43 31v218zM20 358h365v-16h-365v16zM251 195c54 -18 82 -52 82 -96c0 -73 -61 -103 -125 -103c-71 0 -127 25 -127 69c0 33 28 46 62 51c-27 12 -52 40 -52 81c0 66 54 97 113 97
c57 0 104 -19 104 -58c0 -26 -26 -41 -57 -41zM164 251c1 -17 11 -26 33 -34l49 -20c7 12 10 23 10 37c0 31 -21 46 -52 46c-23 0 -40 -9 -40 -29zM149 113c-6 -9 -10 -19 -10 -38c0 -38 31 -64 69 -64c30 0 48 15 48 35c0 23 -17 29 -43 41z" />
    <glyph glyph-name="uni215C" unicode="&#x215c;" horiz-adv-x="405" 
d="M199 421c19 0 28 27 28 67c0 46 -10 72 -40 72v8c26 2 35 28 35 68c0 35 -6 53 -23 53c-15 0 -28 -14 -28 -43c0 -24 7 -42 21 -42c3 0 5 0 8 2l3 -2c-6 -9 -20 -20 -49 -20c-35 0 -58 22 -58 52c0 49 50 68 103 68c65 0 126 -23 126 -73c0 -41 -38 -61 -83 -64
c53 -4 93 -26 93 -78c0 -56 -61 -83 -136 -83c-63 0 -118 23 -118 75c0 37 28 57 65 57c32 0 47 -11 54 -21l-3 -2c-2 2 -6 3 -8 3c-16 0 -23 -19 -23 -46c0 -30 14 -51 33 -51zM20 358h365v-16h-365v16zM251 195c54 -18 82 -52 82 -96c0 -73 -61 -103 -125 -103
c-71 0 -127 25 -127 69c0 33 28 46 62 51c-27 12 -52 40 -52 81c0 66 54 97 113 97c57 0 104 -19 104 -58c0 -26 -26 -41 -57 -41zM164 251c1 -17 11 -26 33 -34l49 -20c7 12 10 23 10 37c0 31 -21 46 -52 46c-23 0 -40 -9 -40 -29zM149 113c-6 -9 -10 -19 -10 -38
c0 -38 31 -64 69 -64c30 0 48 15 48 35c0 23 -17 29 -43 41z" />
    <glyph glyph-name="uni215D" unicode="&#x215d;" horiz-adv-x="405" 
d="M327 511c0 -75 -67 -105 -137 -105c-60 0 -110 21 -110 71c0 36 26 57 62 57c30 0 48 -16 54 -25h-4c-2 1 -5 2 -8 2c-14 0 -24 -15 -24 -45c0 -29 11 -45 30 -45c20 0 31 32 31 77c0 37 -12 75 -48 75c-17 0 -35 -10 -48 -24h-4l20 156c32 -4 76 -6 101 -6
c35 0 56 2 74 18h4c0 -64 -17 -98 -82 -98c-24 0 -69 9 -90 18l-8 -60c16 12 38 22 77 22c65 0 110 -34 110 -88zM20 358h365v-16h-365v16zM251 195c54 -18 82 -52 82 -96c0 -73 -61 -103 -125 -103c-71 0 -127 25 -127 69c0 33 28 46 62 51c-27 12 -52 40 -52 81
c0 66 54 97 113 97c57 0 104 -19 104 -58c0 -26 -26 -41 -57 -41zM164 251c1 -17 11 -26 33 -34l49 -20c7 12 10 23 10 37c0 31 -21 46 -52 46c-23 0 -40 -9 -40 -29zM149 113c-6 -9 -10 -19 -10 -38c0 -38 31 -64 69 -64c30 0 48 15 48 35c0 23 -17 29 -43 41z" />
    <glyph glyph-name="uni215E" unicode="&#x215e;" horiz-adv-x="405" 
d="M101 557l10 143h225v-1l-72 -117c-23 -40 -23 -122 -5 -168l-109 -11c5 73 49 127 95 180l15 17h-110c-19 0 -29 -11 -45 -43h-4zM20 358h365v-16h-365v16zM251 195c54 -18 82 -52 82 -96c0 -73 -61 -103 -125 -103c-71 0 -127 25 -127 69c0 33 28 46 62 51
c-27 12 -52 40 -52 81c0 66 54 97 113 97c57 0 104 -19 104 -58c0 -26 -26 -41 -57 -41zM164 251c1 -17 11 -26 33 -34l49 -20c7 12 10 23 10 37c0 31 -21 46 -52 46c-23 0 -40 -9 -40 -29zM149 113c-6 -9 -10 -19 -10 -38c0 -38 31 -64 69 -64c30 0 48 15 48 35
c0 23 -17 29 -43 41z" />
    <glyph glyph-name="Delta" unicode="&#x2206;" horiz-adv-x="729" 
d="M246 422l-181 -391h374zM719 0h-709l344 710h5z" />
    <glyph glyph-name="minus" unicode="&#x2212;" horiz-adv-x="479" 
d="M44 306v32h391v-32h-391z" />
    <glyph glyph-name="approxequal" unicode="&#x2248;" horiz-adv-x="484" 
d="M46 329v40c38 38 73 52 105 52c68 0 115 -56 179 -56c32 0 69 17 108 57v-39c-39 -40 -76 -53 -108 -53c-67 0 -114 56 -179 56c-32 0 -67 -19 -105 -57zM46 221v40c38 38 73 52 105 52c68 0 115 -56 179 -56c32 0 69 17 108 58v-40c-39 -40 -76 -53 -108 -53
c-67 0 -114 56 -179 56c-32 0 -67 -18 -105 -57z" />
    <glyph glyph-name="notequal" unicode="&#x2260;" horiz-adv-x="484" 
d="M438 242h-241l-79 -97h-39l79 97h-112v31h137l81 100h-218v31h243l77 95h39l-77 -95h110v-31h-135l-81 -100h216v-31z" />
    <glyph glyph-name="lessequal" unicode="&#x2264;" horiz-adv-x="351" 
d="M26 341v24l285 125v-35l-235 -102l235 -102v-35zM26 139v31h285v-31h-285z" />
    <glyph glyph-name="greaterequal" unicode="&#x2265;" horiz-adv-x="351" 
d="M325 365v-24l-285 -125v35l235 102l-235 102v35zM325 170v-31h-285v31h285z" />
    <glyph glyph-name="cyrbreve" unicode="&#xf6d4;" 
d="M213 549c-81 0 -131 47 -131 115c0 66 51 110 114 110c16 0 30 -4 36 -7c-20 -8 -32 -27 -32 -47c0 -36 23 -56 64 -56c39 0 125 30 169 109h12c-24 -81 -98 -224 -232 -224z" />
    <glyph glyph-name="guilsinglright.cap" horiz-adv-x="327" 
d="M307 356v-4c-84 -41 -197 -123 -273 -215h-4c23 90 55 167 89 217c-34 50 -66 127 -89 217h4c76 -92 189 -174 273 -215z" />
    <glyph glyph-name="uni00200326" 
d="M359 -134c0 -108 -91 -152 -202 -152v17c76 4 129 26 137 70c-11 -11 -35 -20 -64 -20c-51 0 -89 44 -89 97c0 55 47 97 104 97c68 0 114 -46 114 -109z" />
    <glyph glyph-name="uni00200323" 
d="M129 -139c0 65 51 114 120 114s122 -49 122 -114c0 -64 -53 -114 -122 -114s-120 50 -120 114z" />
    <glyph glyph-name="i.dot" horiz-adv-x="336" 
d="M45 647c0 65 51 114 120 114s122 -49 122 -114c0 -64 -53 -114 -122 -114s-120 50 -120 114zM284 500v-391c0 -66 0 -75 41 -107v-2h-310v2c41 32 41 41 41 107v279c0 73 -2 79 -48 110v2h276z" />
    <glyph glyph-name="hyphen.cap" horiz-adv-x="329" 
d="M40 309v82h249v-82h-249z" />
    <glyph glyph-name="endash.cap" 
d="M40 320v60h420v-60h-420z" />
    <glyph glyph-name="emdash.cap" horiz-adv-x="800" 
d="M40 320v60h720v-60h-720z" />
    <glyph glyph-name="parenleft.cap" horiz-adv-x="391" 
d="M28 338c0 230 161 360 329 436h19c-107 -90 -148 -266 -148 -436s41 -346 148 -436h-19c-168 76 -329 206 -329 436z" />
    <glyph glyph-name="parenright.cap" horiz-adv-x="391" 
d="M34 774c168 -76 329 -206 329 -436s-161 -360 -329 -436h-19c107 90 148 266 148 436s-41 346 -148 436h19z" />
    <glyph glyph-name="bracketleft.cap" horiz-adv-x="378" 
d="M80 -93v872h278v-2l-103 -41v-785l103 -42v-2h-278z" />
    <glyph glyph-name="bracketright.cap" horiz-adv-x="378" 
d="M298 779v-872h-278v2l103 42v785l-103 41v2h278z" />
    <glyph glyph-name="braceleft.cap" horiz-adv-x="395" 
d="M10 341v4c64 2 114 39 114 146c0 43 -15 85 -15 137c0 99 78 151 215 151c24 0 40 -2 56 -5v-2c-79 0 -95 -54 -95 -125c0 -66 19 -116 19 -162c0 -108 -156 -138 -217 -142c61 -4 217 -34 217 -142c0 -46 -19 -96 -19 -162c0 -71 16 -125 95 -125v-2
c-16 -3 -32 -5 -56 -5c-137 0 -215 52 -215 151c0 52 15 94 15 137c0 107 -50 144 -114 146z" />
    <glyph glyph-name="braceright.cap" horiz-adv-x="395" 
d="M385 345v-4c-64 -2 -114 -39 -114 -146c0 -43 15 -85 15 -137c0 -99 -78 -151 -215 -151c-24 0 -40 2 -56 5v2c79 0 95 54 95 125c0 66 -19 116 -19 162c0 108 156 138 217 142c-61 4 -217 34 -217 142c0 46 19 96 19 162c0 71 -16 125 -95 125v2c16 3 32 5 56 5
c137 0 215 -52 215 -151c0 -52 -15 -94 -15 -137c0 -107 50 -144 114 -146z" />
    <glyph glyph-name="guilsinglleft.cap" horiz-adv-x="327" 
d="M20 352v4c84 41 197 123 273 215h4c-23 -90 -55 -167 -89 -217c34 -50 66 -127 89 -217h-4c-76 92 -189 174 -273 215z" />
    <glyph glyph-name="at.cap" horiz-adv-x="920" 
d="M759 556l-77 -302c-9 -33 -5 -56 23 -56c56 0 132 97 132 238c0 200 -158 301 -337 301c-244 0 -382 -206 -382 -420c0 -246 174 -357 359 -357c123 0 235 34 315 104v-4c-71 -82 -195 -126 -315 -126c-239 0 -437 114 -437 383c0 234 186 440 460 440
c208 0 380 -119 380 -321c0 -188 -123 -301 -250 -301c-85 0 -132 39 -145 93c-33 -61 -74 -93 -143 -93c-83 0 -140 64 -140 159c0 145 90 274 241 274c72 0 107 -34 120 -80c45 47 123 73 196 68zM507 320l33 139c8 35 0 58 -22 58c-50 0 -112 -151 -112 -253
c0 -32 7 -63 30 -63c28 0 57 55 71 119z" />
    <glyph glyph-name="guillemotleft.cap" horiz-adv-x="545" 
d="M20 352v4c84 41 197 123 273 215h4c-23 -90 -55 -167 -89 -217c34 -50 66 -127 89 -217h-4c-76 92 -189 174 -273 215zM238 352v4c84 41 197 123 273 215h4c-23 -90 -55 -167 -89 -217c34 -50 66 -127 89 -217h-4c-76 92 -189 174 -273 215z" />
    <glyph glyph-name="guillemotright.cap" horiz-adv-x="545" 
d="M307 356v-4c-84 -41 -197 -123 -273 -215h-4c23 90 55 167 89 217c-34 50 -66 127 -89 217h4c76 -92 189 -174 273 -215zM525 356v-4c-84 -41 -197 -123 -273 -215h-4c23 90 55 167 89 217c-34 50 -66 127 -89 217h4c76 -92 189 -174 273 -215z" />
    <glyph glyph-name="slash.cap" horiz-adv-x="358" 
d="M0 -103l300 872h38l-300 -872h-38z" />
    <glyph glyph-name="backslash.cap" horiz-adv-x="358" 
d="M58 769l300 -872h-38l-300 872h38z" />
    <glyph glyph-name="bar.cap" horiz-adv-x="213" 
d="M90 -103v872h33v-872h-33z" />
    <glyph glyph-name="uni0192.op" horiz-adv-x="639" 
d="M22 -218c-100 0 -178 32 -178 110c0 56 48 90 98 90c33 0 62 -10 76 -24c-33 -8 -53 -35 -53 -87c0 -40 20 -73 57 -73c29 0 48 27 55 72l64 394h-85l4 25h85l17 104c23 139 110 243 291 243c100 0 179 -32 179 -114c0 -59 -50 -94 -103 -94c-34 0 -64 10 -79 25
c34 8 53 39 53 93c0 42 -13 74 -50 74c-29 0 -47 -24 -55 -72l-42 -259h96l-4 -25h-96l-31 -192c-30 -185 -118 -290 -299 -290z" />
    <glyph glyph-name="Euro.op" horiz-adv-x="636" 
d="M621 197c-22 -122 -119 -207 -264 -207c-160 0 -273 111 -287 265h-55v25h53v9c0 23 2 45 5 66h-58v25h63c35 146 153 256 342 256c89 0 190 -40 190 -125c0 -54 -46 -86 -97 -86c-43 0 -81 19 -98 52c5 -1 8 -1 12 -1c37 0 59 27 59 70c0 44 -23 72 -66 72
c-76 0 -121 -100 -130 -238h165l-9 -25h-157v-22c0 -19 1 -36 3 -53h133l-9 -25h-121c17 -101 69 -160 158 -160c79 0 127 32 164 102h4z" />
    <glyph glyph-name="yen.op" horiz-adv-x="699" 
d="M511 2v-2h-323v2c41 34 51 50 51 116v100h-162v25h162v34l-25 39h-137v25h122l-104 165c-33 53 -57 85 -95 118v2h362v-2c-28 -24 -37 -39 -37 -61c0 -16 4 -32 13 -48l114 -196l113 178c16 25 26 48 26 68c1 24 -12 44 -44 59v2h152v-2c-40 -32 -59 -64 -94 -118
l-104 -165h120v-25h-136l-25 -39v-34h161v-25h-161v-100c0 -66 10 -82 51 -116z" />
    <glyph glyph-name="sterling.op" horiz-adv-x="652" 
d="M488 -26c-91 0 -152 48 -213 93c-47 -49 -109 -78 -177 -78c-57 0 -97 36 -97 87c0 53 40 90 98 90c24 0 59 -7 100 -15c-5 59 -27 107 -46 155h-92v25h83c-12 34 -21 68 -21 107c0 133 137 198 305 198c99 0 188 -40 188 -127c0 -59 -46 -93 -99 -93
c-43 0 -79 19 -98 49c41 0 71 28 71 80c0 42 -18 72 -62 72c-32 0 -52 -26 -52 -70v-196v-20h122v-25h-124c-6 -69 -25 -130 -54 -180c38 -7 75 -12 106 -12c93 0 128 38 128 94c0 12 -3 32 -13 50c63 -27 101 -74 101 -140c0 -101 -76 -144 -154 -144zM90 17
c59 0 107 35 110 100c-30 16 -63 26 -101 26c-48 0 -73 -28 -73 -67c0 -38 29 -59 64 -59z" />
    <glyph glyph-name="dollar.op" horiz-adv-x="575" 
d="M288 616c-9 0 -18 0 -26 -1v-175l57 -16v190c-10 1 -20 2 -31 2zM229 450l13 -4v166c-54 -11 -87 -41 -87 -88c0 -43 30 -61 74 -74zM284 9c12 0 24 1 35 3v189l-57 16v-207c7 -1 14 -1 22 -1zM433 112c0 48 -30 66 -95 84v-181c54 13 95 47 95 97zM284 -10h-22v-104h-20
v105c-138 8 -231 55 -231 135c0 50 41 86 103 86c40 0 67 -15 79 -31c-26 -7 -45 -34 -45 -68c0 -47 33 -87 94 -100v210l-37 10c-99 27 -182 85 -182 193c0 109 82 192 219 208v108h20v-107c8 1 17 1 26 1c11 0 21 0 31 -1v107h19v-108c124 -10 194 -56 194 -121
c0 -45 -37 -79 -91 -79c-37 0 -66 17 -78 33c30 6 47 29 47 62c0 38 -27 68 -72 81v-192l35 -10c102 -30 182 -78 182 -194c0 -111 -89 -200 -217 -220v-108h-19v106c-11 -1 -23 -2 -35 -2z" />
    <glyph glyph-name="perthousand.op" horiz-adv-x="1107" 
d="M179 0h-49l405 605c-24 -21 -80 -49 -139 -49c-23 0 -43 4 -63 9c20 -26 33 -58 33 -94c0 -96 -83 -165 -173 -165s-173 69 -173 165s83 165 173 165c80 0 120 -56 203 -56c73 0 122 25 167 66l11 -9zM193 324c35 0 39 49 39 147s-4 147 -39 147s-39 -49 -39 -147
s4 -147 39 -147zM542 -5c-90 0 -173 69 -173 165s83 165 173 165s173 -69 173 -165s-83 -165 -173 -165zM914 -5c-90 0 -173 69 -173 165s83 165 173 165s173 -69 173 -165s-83 -165 -173 -165zM542 13c35 0 39 49 39 147s-4 147 -39 147s-39 -49 -39 -147s4 -147 39 -147z
M914 13c35 0 39 49 39 147s-4 147 -39 147s-39 -49 -39 -147s4 -147 39 -147z" />
    <glyph glyph-name="percent.op" horiz-adv-x="735" 
d="M179 0h-49l405 605c-24 -21 -80 -49 -139 -49c-23 0 -43 4 -63 9c20 -26 33 -58 33 -94c0 -96 -83 -165 -173 -165s-173 69 -173 165s83 165 173 165c80 0 120 -56 203 -56c73 0 122 25 167 66l11 -9zM193 324c35 0 39 49 39 147s-4 147 -39 147s-39 -49 -39 -147
s4 -147 39 -147zM542 -5c-90 0 -173 69 -173 165s83 165 173 165s173 -69 173 -165s-83 -165 -173 -165zM542 13c35 0 39 49 39 147s-4 147 -39 147s-39 -49 -39 -147s4 -147 39 -147z" />
    <glyph glyph-name="nine.op" horiz-adv-x="637" 
d="M243 425c0 -121 19 -197 63 -197s64 76 64 197s-20 195 -64 195s-63 -74 -63 -195zM258 -84c-122 0 -234 39 -234 145c0 65 55 105 119 105c55 0 106 -31 117 -88c-7 4 -14 8 -24 8c-29 0 -49 -29 -49 -71c0 -49 25 -82 71 -82c93 0 126 121 126 279c0 20 -1 42 -2 63
c-26 -53 -78 -90 -150 -90c-118 0 -212 74 -212 204c0 163 128 247 285 247c174 0 311 -136 311 -344c0 -192 -133 -376 -358 -376z" />
    <glyph glyph-name="eight.op" horiz-adv-x="598" 
d="M393 410c127 -39 191 -112 191 -206c0 -147 -134 -214 -286 -214c-161 0 -287 55 -287 151c0 72 66 106 149 117c-65 27 -125 89 -125 175c0 137 122 203 256 203c131 0 238 -44 238 -129c0 -60 -66 -95 -136 -97zM193 542c1 -40 27 -66 81 -86l106 -41
c22 25 33 56 33 96c0 71 -47 108 -122 108c-59 0 -99 -26 -98 -77zM313 196l-141 56c-20 -20 -34 -51 -34 -98c0 -87 70 -147 160 -147c74 0 120 35 120 88c0 55 -40 73 -105 101z" />
    <glyph glyph-name="seven.op" horiz-adv-x="563" 
d="M121 626h446v-2l-160 -262c-39 -64 -57 -160 -57 -255c0 -65 9 -129 24 -181h-240c15 185 134 306 249 440l37 43h-283c-52 0 -81 -25 -118 -101h-2l21 330c14 -8 39 -12 83 -12z" />
    <glyph glyph-name="six.op" horiz-adv-x="637" 
d="M379 710c122 0 234 -39 234 -145c0 -65 -55 -105 -119 -105c-55 0 -106 31 -117 88c7 -4 14 -8 24 -8c29 0 49 29 49 71c0 49 -25 82 -71 82c-93 0 -126 -121 -126 -279c0 -20 1 -42 2 -63c26 53 78 90 150 90c118 0 212 -74 212 -204c0 -163 -128 -247 -285 -247
c-174 0 -311 136 -311 344c0 192 133 376 358 376zM394 201c0 121 -19 197 -63 197s-64 -76 -64 -197s20 -195 64 -195s63 74 63 195z" />
    <glyph glyph-name="five.op" horiz-adv-x="578" 
d="M264 7c61 0 76 84 76 182c0 83 -32 163 -119 163c-42 0 -91 -23 -123 -56h-2l47 335c72 -8 171 -15 228 -15c80 0 133 9 175 43h2c0 -125 -41 -212 -187 -212c-62 0 -167 18 -213 37l-19 -141c34 30 97 58 187 58c147 0 248 -71 248 -188c0 -155 -140 -223 -300 -223
c-136 0 -255 50 -255 160c0 76 58 122 137 122c64 0 102 -25 116 -49c-7 2 -13 2 -18 2c-37 0 -58 -39 -58 -100c0 -67 30 -118 78 -118z" />
    <glyph glyph-name="four.op" horiz-adv-x="673" 
d="M287 226v310l-233 -310h233zM287 118v77h-287v5l318 426h208v-400h33c65 0 72 10 106 58h2v-147h-2c-34 48 -41 58 -106 58h-33v-77c0 -66 11 -82 54 -116v-2h-347v2c43 34 54 50 54 116z" />
    <glyph glyph-name="three.op" horiz-adv-x="599" 
d="M279 7c53 0 74 68 74 162c0 102 -27 162 -105 162v9c70 3 91 62 91 148c0 76 -10 131 -59 131c-42 0 -68 -42 -68 -103c0 -57 18 -99 54 -99c4 0 10 1 17 3c-14 -21 -47 -43 -110 -43c-77 0 -128 46 -128 110c0 103 112 149 235 149c152 0 280 -52 280 -157
c0 -89 -87 -132 -194 -140c123 -8 219 -59 219 -168c0 -122 -135 -181 -306 -181c-143 0 -269 50 -269 165c0 79 61 123 143 123c69 0 104 -23 119 -48c-8 1 -14 2 -18 2c-39 0 -58 -38 -58 -103c0 -68 33 -122 83 -122z" />
    <glyph glyph-name="two.op" horiz-adv-x="588" 
d="M255 620c-62 0 -95 -49 -95 -114s39 -96 75 -96c19 0 32 4 48 16c-20 -65 -72 -90 -133 -90c-77 0 -134 49 -134 129c0 108 100 171 239 171c160 0 299 -46 299 -192c0 -149 -153 -212 -389 -281h207c106 0 145 12 191 73h2l-25 -236h-544v2c261 271 342 349 342 496
c0 65 -19 122 -83 122z" />
    <glyph glyph-name="one.op" horiz-adv-x="425" 
d="M422 0h-420v5c73 30 92 32 92 83v450c0 51 -19 53 -92 83v5h328v-538c0 -51 19 -53 92 -83v-5z" />
    <glyph glyph-name="zero.op" horiz-adv-x="708" 
d="M687 313c0 -203 -144 -323 -333 -323s-333 120 -333 323s144 323 333 323s333 -120 333 -323zM432 313c0 227 -15 306 -78 306s-78 -79 -78 -306s15 -306 78 -306s78 79 78 306z" />
    <glyph glyph-name="bullet.cap" horiz-adv-x="437" 
d="M40 344c0 99 81 180 178 180c98 0 179 -81 179 -180c0 -97 -81 -178 -179 -178c-97 0 -178 81 -178 178z" />
    <glyph glyph-name="periodcentered.cap" horiz-adv-x="314" 
d="M274 348c0 -65 -50 -118 -117 -118s-117 53 -117 118s50 118 117 118s117 -53 117 -118z" />
    <glyph glyph-name="questiondown.cap" horiz-adv-x="589" 
d="M305 472c-67 0 -117 53 -117 118s50 118 117 118s117 -53 117 -118s-50 -118 -117 -118zM317 8c58 0 103 40 103 94c0 49 -26 83 -73 83c-5 0 -14 -1 -21 -4l-1 2c13 42 54 76 116 76c65 0 123 -43 123 -115c0 -99 -110 -153 -247 -153c-177 0 -292 75 -292 204
c0 125 127 214 269 228v21h20v-192c-73 -30 -108 -72 -108 -142c0 -58 38 -102 111 -102z" />
    <glyph glyph-name="exclamdown.cap" horiz-adv-x="328" 
d="M164 707c67 0 117 -53 117 -118s-50 -118 -117 -118s-117 53 -117 118s50 118 117 118zM306 0h-284l140 434h4z" />
    </font>
</defs>
</svg>
