<?xml version="1.0" encoding="iso-8859-1"?>
<!-- Generator: Adobe Illustrator 16.2.0, SVG Export Plug-In . SVG Version: 6.00 Build 0)  -->
<!DOCTYPE svg PUBLIC "-//W3C//DTD SVG 1.1//EN" "http://www.w3.org/Graphics/SVG/1.1/DTD/svg11.dtd">
<svg version="1.1" id="Layer_1" xmlns="http://www.w3.org/2000/svg" xmlns:xlink="http://www.w3.org/1999/xlink" x="0px" y="0px"
	 width="407.286px" height="403.92px" viewBox="105.264 117.54 407.286 403.92" xml:space="preserve">
<path d="M233.784,117.54c-70.992,0-128.521,57.528-128.521,128.52v146.88c0,70.992,57.528,128.52,128.521,128.52
	c70.991,0,128.52-57.528,128.52-128.52V246.06C362.304,175.068,304.776,117.54,233.784,117.54z M331.703,392.94
	c0,53.856-44.063,97.92-97.919,97.92c-53.856,0-97.921-44.064-97.921-97.92V246.06c0-53.856,44.064-97.92,97.921-97.92
	c53.855,0,97.919,44.064,97.919,97.92V392.94z"/>
<path d="M233.784,199.548c-8.568,0-15.301,6.732-15.301,15.3v44.676c0,8.568,6.732,15.3,15.301,15.3c8.567,0,15.3-6.732,15.3-15.3
	v-44.676C249.084,206.892,242.352,199.548,233.784,199.548z"/>
<path d="M496.944,392.328l-20.808,20.809V203.22c0-4.896-4.284-9.18-9.181-9.18c-4.896,0-9.18,4.284-9.18,9.18v210.528
	l-20.808-20.808c-3.672-3.672-9.181-3.672-12.853,0c-3.672,3.671-3.672,9.18,0,12.852l36.721,36.72
	c0.611,0.612,1.836,1.836,3.06,1.836l0,0c1.224,0.612,2.448,0.612,3.06,0.612c0.612,0,2.448,0,3.061-0.612l0,0
	c1.224-0.611,1.836-1.224,3.06-1.836l36.721-36.72c3.672-3.672,3.672-9.181,0-12.852
	C506.123,389.268,500.615,389.268,496.944,392.328z"/>
</svg>
